<svg id="Calque_1" data-name="Calque 1" height ="50" xmlns="http://www.w3.org/2000/svg" viewBox="0 0 48 43"><defs><style>.cls-1{fill:#4fd1b9;}</style></defs><title>graph</title><rect class="cls-1" x="37.6" y="31" width="8" height="11.2"/><rect class="cls-1" x="25.6" y="23.8" width="8" height="18.4"/><rect class="cls-1" x="13.6" y="17.4" width="8" height="24.8"/><rect class="cls-1" x="1.6" y="11" width="8" height="31.2"/><path class="cls-1" d="M48.2,46.66H1.8a.8.8,0,1,1,0-1.6H48.2a.8.8,0,0,1,0,1.6Z" transform="translate(-1 -3.66)"/><path class="cls-1" d="M42,23.26a.86.86,0,0,1-.4-.11l-31.18-18a.8.8,0,0,1,.8-1.39l31.18,18a.8.8,0,0,1-.4,1.5Z" transform="translate(-1 -3.66)"/><path class="cls-1" d="M35.15,23.92a.79.79,0,0,1-.79-.72.81.81,0,0,1,.71-.88l6.85-.66a.8.8,0,1,1,.16,1.59l-6.85.67Z" transform="translate(-1 -3.66)"/><path class="cls-1" d="M42,23.26a.82.82,0,0,1-.73-.47l-2.85-6.27a.8.8,0,1,1,1.46-.66l2.85,6.27a.79.79,0,0,1-.4,1.05A.76.76,0,0,1,42,23.26Z" transform="translate(-1 -3.66)"/></svg>