<svg height ="300" xmlns="http://www.w3.org/2000/svg" viewBox="0 0 792.77 491.15"><defs><style>.cls-1{fill:#3f0700;}.cls-2{fill:#916834;}.cls-3{fill:#b83a2b;}.cls-4{fill:#ffde00;}.cls-5{fill:#d44332;}.cls-6{fill:#4c571c;}.cls-7{fill:#ffb750;}.cls-8{fill:#66d782;}.cls-9{fill:#6b3020;}.cls-10{fill:#351a1a;}.cls-11{fill:#612b1d;}.cls-12{fill:#fff;}.cls-13{fill:#677331;}.cls-14{fill:#ccb9a3;}.cls-15{opacity:0.15;}.cls-16{fill:#007555;}.cls-17{opacity:0.25;}</style></defs><title>Hero_perso</title><g id="Calque_2" data-name="Calque 2"><g id="Calque_1-2" data-name="Calque 1"><path class="cls-1" d="M472,463.57c35.77-10.46,73.5-11.62,110.75-12.7l148.89-4.33c8.34-.24,16.85-.47,24.83,1.95a39.43,39.43,0,0,1,25.44,24.45,1933.13,1933.13,0,0,1-238.68,18.12c-28.93.39-58.76,0-85.38-11.34-2-.85-4.07-1.84-5.29-3.63-2.56-3.78.18-9.3,4.29-11.28s8.94-1.46,13.47-.89"/><path class="cls-2" d="M228.34,404.32l-166-17.66S-6.56,400.79.51,402.56s58.28,44.15,58.28,44.15H193Z"/><path class="cls-3" d="M99.68,440.41c5.11-.77,8.22-5.94,8.81-11.08a32,32,0,0,0-3.6-18.73c-2.07-3.83-5.39-7.48-9.72-7.93s-8.53,2.63-10.68,6.48-2.47,8.4-3.25,12.74C78.9,434.83,86.18,442.44,99.68,440.41Z"/><path class="cls-4" d="M132.13,408.66c1.93-2.92.4-6.76-1.32-9.81-3.59-6.34-8.48-13.5-15.76-13.6a4.94,4.94,0,0,0-3.67,1.22c-1.1,1.14-1.2,2.89-1.1,4.47.54,8.46,4.52,17.82,12.27,21.27C128.32,414.78,130.4,411.29,132.13,408.66Z"/><path class="cls-5" d="M119.86,419.64a11.86,11.86,0,0,1-5.9,3.43c-5.83,1.16-12-1.94-15.44-6.8s-4.41-11.13-3.72-17c.53-4.45,2.7-9.52,7.11-10.32s8.18,3.11,10.8,6.77c3.11,4.34,5.7,9,8.52,13.55S122.18,417.31,119.86,419.64Z"/><path class="cls-6" d="M171.25,402.75c.23-3.12,0-6.86-2-9.45-1.59-2.11-4.36-3.52-7-2.6l.33.76c5.58-3.35,13.38-.94,16.34,4.79.28.55,1.09.06.82-.48-3-6.24-11.72-8.59-17.59-5-.39.24-.14.93.33.76,2.51-.89,5.15.66,6.48,2.79,1.6,2.55,1.53,5.59,1.87,8.46a.19.19,0,0,0,.38,0Z"/><path class="cls-4" d="M210.8,426.64c1,5.24-1.06,11.43-5.94,13.59-3.64,1.61-8,.62-11.3-1.66s-5.57-5.65-7.55-9.1a72.12,72.12,0,0,1-8.88-25.18,11.77,11.77,0,0,1,.36-6.43,5.13,5.13,0,0,1,5.23-2.84c3.77.31,2.22-1.18,6.56-1.3S208,406.11,210.8,426.64Z"/><path class="cls-5" d="M196,439.49c-.47,5.31-4.11,10.72-9.39,11.48-3.94.56-7.9-1.58-10.42-4.65s-3.84-6.95-4.81-10.81a72,72,0,0,1-1.75-26.63c.28-2.16.7-4.42,2.08-6.1a5.14,5.14,0,0,1,5.81-1.32c3.54,1.32,2.46-.54,6.67.52S198.85,419,196,439.49Z"/><path class="cls-7" d="M177.74,405.82c-.88,7-2.77,13.76-4.54,20.55S168.26,440,162.47,444s-14.65,4-19.14-1.37c-2.83-3.4-3.42-8.24-2.52-12.56s3.12-8.26,5.45-12c3.44-5.53,8-10.12,12.81-14.55,4.11-3.8,10-6.81,15.1-4.86S177.87,404.77,177.74,405.82Z"/><path class="cls-8" d="M175.17,398.31c-2.11-1-6.88-3.48-11.27-.09s-5.87,4.46-5.87,4.46l9.09-1.73-.88,10.69,5.79-8.33s2-.61,3.53,3.34a9.76,9.76,0,0,0,5.25,5.69c.92.4-2.47-1.77-2.63-5.84S179.45,400.3,175.17,398.31Z"/><path class="cls-8" d="M182.51,393s-6.47.82-5.95,5.8.17,10.06-1.55,11.38,4.76-2.48,4.87-6.42,1.49-4.83,1.49-4.83,7.13,1.59,9.94,6.77,5.76,4,5.76,4-3.41-8.06-7.43-10.59,4.48-1.84,8.86,1.61,7.27.44,7.27.44a11.41,11.41,0,0,1-8.32-5.11C194.31,391.19,186.73,387.82,182.51,393Z"/><path class="cls-4" d="M159.83,389.59c-.88,7-2.76,13.76-4.54,20.56s-4.94,13.61-10.73,17.59-14.64,4-19.13-1.37c-2.83-3.39-3.43-8.23-2.53-12.56s3.12-8.26,5.45-12c3.44-5.54,8-10.13,12.82-14.56,4.11-3.79,10-6.81,15.09-4.86S160,388.54,159.83,389.59Z"/><path class="cls-6" d="M154.83,378.77l-1.33,1c-.23.17-.44.36-.66.54a2.58,2.58,0,0,0-.58.61.18.18,0,0,0,.21.26,2.37,2.37,0,0,0,.71-.43l.67-.52c.43-.35.84-.73,1.26-1.09.2-.17-.07-.53-.28-.37Z"/><path class="cls-6" d="M154.54,381.86a7.15,7.15,0,0,1,1.22-5.76,7.64,7.64,0,0,1,2.15-2.05,6.6,6.6,0,0,1,1.34-.64,5,5,0,0,0,1.45-.47.36.36,0,0,0-.07-.55,2.45,2.45,0,0,0-1.61.2,7.17,7.17,0,0,0-1.53.73,8.46,8.46,0,0,0-2.42,2.31,7.9,7.9,0,0,0-1.32,6.45.41.41,0,0,0,.79-.22Z"/><path class="cls-8" d="M157.9,382.45s-4.63-3.1-7.92-1.49-5.49,3.74-7.39,3.49-.79,1,2,1.22,7.2-2,7.2-2l-2.26,11.67,6.14-9.63s-.4,7,4,8.41,4.7.21,4.7.21a6,6,0,0,1-4.46-4.76C159.13,385.6,162.2,385.79,157.9,382.45Z"/><path class="cls-4" d="M23.35,404.91c-2.32-3.63,6.29-6,10.58-6.4s8.57.63,12.75,1.66c5.69,1.41,11.78,3.05,15.54,7.55s3.14,12.28-2.1,14.91C52.34,426.55,39.11,429.61,23.35,404.91Z"/><path class="cls-5" d="M22.9,404.28c-1.93-.07-3.44,1.89-3.61,3.81a11.5,11.5,0,0,0,1.42,5.56c2.9,6.53,5.94,13.26,11.21,18.09s13.42,7.27,19.72,3.89A8.65,8.65,0,0,0,55.38,432c1.67-3.35.12-7.4-1.94-10.53a34.92,34.92,0,0,0-31.13-15.27"/><path class="cls-7" d="M53.42,403.72c5.24-3.1,9.19-10.24,6.5-15.7s-10.66-5.29-16.51-3.4A65,65,0,0,0,23,395.51c-1.83,1.45-3.94,3.56-3.22,5.79C22.7,410.39,38,412.81,53.42,403.72Z"/><path class="cls-8" d="M18,401.71s-1.65-2.82,1.77-5.9,3-6.33,3-6.33,4.87-.05,3.29,3.62-3,6.73-3,6.73l11.52-4.38L28,403a13.48,13.48,0,0,1,8.33.52c3.88,1.78,2.27,3.42,2.27,3.42s-5.9-1.76-8.53-.31,5.93,4.2,5.93,4.2a63,63,0,0,0-10.16-1.92C20.33,408.39,16.65,406.4,18,401.71Z"/><path class="cls-4" d="M84.7,380.59c1.35-3,4.16-5.55,7.37-5.52,3.39,0,6.17,2.85,7.72,5.94,3.1,6.17,3.22,25-1.7,28.07s-10.41,3.1-15.69-2C75.83,400.78,83.35,383.59,84.7,380.59Z"/><path class="cls-4" d="M79.7,383.92c.14-2.77,0-5.75-2.51-6.9s-5.59-.4-7.87,1.18a24.53,24.53,0,0,0-5.57,6.13c-2.69,3.76-5.45,7.66-6.38,12.18s.45,9.93,4.51,12.15C69.3,412.73,78.3,410.49,79.7,383.92Z"/><path class="cls-6" d="M75,379.15c.55-1.89.79-3.86,1.32-5.76a48,48,0,0,1,4.27-10.48,22.32,22.32,0,0,1,3.19-4.77c1.41-1.46,3.52-2,4.73,0a9.54,9.54,0,0,1,1,4.44l.36,6.14a53.76,53.76,0,0,0,.5,6.22c.06.34.55.23.57-.07a51,51,0,0,0-.23-5.93q-.16-2.85-.34-5.7c-.13-2.23-.21-5.34-2.29-6.73-2.33-1.55-4.66.53-6,2.38a42.27,42.27,0,0,0-4.73,8.91,44,44,0,0,0-1.82,5.63,23,23,0,0,0-.93,5.7.17.17,0,0,0,.33,0Z"/><path class="cls-6" d="M87.7,356.78a65.69,65.69,0,0,0-4.5,13.82q-.7,3.43-1.1,6.91a27.57,27.57,0,0,0-.31,7.19.26.26,0,0,0,.5,0c.45-2.25.29-4.67.54-7A72.2,72.2,0,0,1,84,370.57a86.37,86.37,0,0,1,4.14-13.63c.08-.22-.29-.38-.39-.16Z"/><path class="cls-7" d="M88.31,407.86c-.89,4.72-3.67,9.72-8.36,10.72-5,1.08-9.93-3.26-11.27-8.21s-.05-10.2,1.45-15.1a21.49,21.49,0,0,1,3.49-7.5c1.77-2.14,4.57-3.64,7.29-3.11,4.14.82,5.7,5.63,7.31,9.52C89.23,396.61,89,404.13,88.31,407.86Z"/><path class="cls-8" d="M83.87,384.88c-2.11-1-6.89-3.48-11.27-.08s-5.88,4.46-5.88,4.46l9.1-1.74-.88,10.69,5.79-8.33s2-.61,3.53,3.35a9.73,9.73,0,0,0,5.25,5.68c.92.41-2.47-1.76-2.63-5.83S88.15,386.87,83.87,384.88Z"/><path class="cls-9" d="M147.1,425.52c-7.07,0-146.59-23-146.59-23s7.06,67.11,12.36,67.11S141.8,487.33,141.8,487.33Z"/><path class="cls-9" d="M219.51,459.07c-5.3,3.54-77.71,28.26-77.71,28.26l5.3-61.81,81.24-21.2Z"/><path class="cls-2" d="M4,420.16a265,265,0,0,0,26.67,7.33,226.73,226.73,0,0,0,27,3.76c9.23.87,18.48,1.8,27.46,4.18,4.39,1.16,8.71,2.57,13.13,3.61a106.92,106.92,0,0,0,13.1,1.95l31.88,3.37c.61.07.61-.9,0-1l-28-3c-4.74-.51-9.53-.88-14.22-1.8-4.38-.86-8.65-2.2-12.93-3.42-17.6-5-36-4.5-53.86-8-10.17-2-20-5.06-30-7.68a.33.33,0,0,0-.18.64Z"/><path class="cls-2" d="M6.43,446.3c8.49,2.44,17.22,4.27,25.85,6.17s17.34,3.62,26.09,5,17.54,2.37,26.31,3.46l27,3.35,15.09,1.87c5.08.65,10.22,1.56,15.34,1.82.46,0,.57-.73.11-.82-4.26-.84-8.66-1.17-13-1.69l-13.61-1.67-27-3.33c-8.89-1.09-17.79-2.1-26.65-3.38s-17.47-2.9-26.14-4.74c-9.77-2.07-19.45-4.72-29.26-6.61a.3.3,0,0,0-.16.58Z"/><path class="cls-2" d="M147.66,443.22a128.78,128.78,0,0,0,14.13-3.05q7.23-1.73,14.44-3.59,14.28-3.69,28.45-7.84,8.07-2.37,16.1-4.88c.58-.18.34-1.1-.25-.91q-28.18,8.78-56.84,15.85c-5.33,1.32-10.87,2.31-16.08,4.05-.18.07-.17.4,0,.37Z"/><path class="cls-2" d="M145.27,468.51c4.9-1.1,9.71-2.69,14.52-4.15s9.63-2.94,14.43-4.44q14.43-4.49,28.8-9.11,8.25-2.65,16.49-5.35c.57-.19.33-1.1-.25-.91q-28.71,9.4-57.59,18.27c-5.51,1.7-11.13,3.23-16.52,5.28a.21.21,0,0,0,.12.41Z"/><path class="cls-2" d="M146.15,426.4a47.32,47.32,0,0,0-.35,7q-.13,3.69-.33,7.38c-.27,4.91-.68,9.83-1.13,14.73-.92,9.91-2.15,19.83-3.79,29.65-.1.62.85.89,1,.26,1.63-9.76,3-19.55,3.82-29.42.43-4.9.72-9.82,1-14.73q.18-3.69.29-7.38a41.08,41.08,0,0,0,0-7.44c0-.22-.39-.21-.43,0Z"/><path class="cls-2" d="M138.78,429.45a1.46,1.46,0,0,0-.21.16l.08-.06a1,1,0,0,0-.16.12l-.12.17.36-.21h0a.55.55,0,0,0-.38.16l-.08.1a.54.54,0,0,0-.07.27.48.48,0,0,0,0,.17l0,.14a.32.32,0,0,0,.09.17.44.44,0,0,0,.26.18h0l-.24-.18a.73.73,0,0,0,.17.18.31.31,0,0,0,.13.06l.09,0,.12,0a.31.31,0,0,0,.16-.14,1.18,1.18,0,0,0,.07-.2l-.29.29h0a.53.53,0,0,0,.23-.13.5.5,0,0,0,.13-.22.66.66,0,0,1,0-.15l0,.12h0l.06-.12a.55.55,0,0,0,0-.22.28.28,0,0,0,0-.13.34.34,0,0,0-.11-.17l0,0,.11.41v0l0,.1,0-.07a.77.77,0,0,0,.07-.16l0,.1h0l-.06.08.09-.1-.07.06,0,0a.43.43,0,0,0,.18-.22.42.42,0,0,0,0-.29.4.4,0,0,0-.52-.14Z"/><path class="cls-2" d="M136.69,436.77v.1l.25-.34a.51.51,0,0,0-.17.07l-.11.08a.39.39,0,0,0-.11.17.34.34,0,0,0,0,.2.38.38,0,0,0,0,.21.45.45,0,0,0,.11.17.37.37,0,0,0,.17.1.35.35,0,0,0,.2.05l.14,0a.56.56,0,0,0,.24-.13l.08-.11a.5.5,0,0,0,.07-.27l0-.14a.38.38,0,0,0-.09-.18.47.47,0,0,0-.15-.13.61.61,0,0,0-.17-.07l.25.34v-.1a.16.16,0,0,0,0-.13.19.19,0,0,0-.07-.11.3.3,0,0,0-.11-.07.28.28,0,0,0-.13,0l-.09,0a.37.37,0,0,0-.15.08l0,.07a.34.34,0,0,0-.05.17Z"/><path class="cls-2" d="M135.67,450a1.21,1.21,0,0,0-.26.2l.1-.07a.61.61,0,0,0-.32.43l0,.16c0,.05,0,.11,0,.16a.84.84,0,0,0,0,.31.64.64,0,0,0,.13.26.47.47,0,0,0,.24.13.36.36,0,0,0,.27,0l.08-.05a.51.51,0,0,0,.09-.16h0l0,.08a.43.43,0,0,0,.05-.12.61.61,0,0,0,0-.27v.11a1,1,0,0,1,0-.17l0,.12a.61.61,0,0,1,.05-.18L136,451a.51.51,0,0,1,.09-.16l-.08.1a1.27,1.27,0,0,0,.1-.12.48.48,0,0,0,.07-.26l0,.13v0l0,.11v0l-.07.1a.38.38,0,0,1,.11-.11l-.09.07,0,0a.49.49,0,0,0,.21-.28A.45.45,0,0,0,136,450a.5.5,0,0,0-.36,0Z"/><path class="cls-2" d="M134.8,459.3a.49.49,0,0,0,0-1,.49.49,0,0,0,0,1Z"/><path class="cls-2" d="M134.05,474.38a1,1,0,0,0-.25.2l.27-.11a.45.45,0,0,0-.32.12s-.06.08-.09.11l0,.08a.71.71,0,0,0-.08.18.45.45,0,0,0,0,.2.43.43,0,0,0,.09.21.55.55,0,0,0,.14.12l-.19-.32a.64.64,0,0,0,.3.59.27.27,0,0,0,.23,0,.24.24,0,0,0,.15-.16s0,0,0-.05a.33.33,0,0,0,0-.14.78.78,0,0,1,0-.14l0,.1,0-.11-.26.26a.5.5,0,0,0,.3-.23.38.38,0,0,0,0-.15.56.56,0,0,1,0-.12l0,.1a.69.69,0,0,0,.05-.13.36.36,0,0,0,0-.25l0,.28,0,0-.06.07a.57.57,0,0,1,.11-.11l-.07.06,0,0a.38.38,0,0,0,.17-.22.4.4,0,0,0,0-.28.36.36,0,0,0-.49-.13Z"/><path class="cls-2" d="M134.24,479.12l-.17,0,.1,0h0l.09,0,0,0,.18.24-.05-.12-.07-.09a.42.42,0,0,0-.14-.09.38.38,0,0,0-.34,0,.39.39,0,0,0-.23.23.33.33,0,0,0,0,.17l0,.12a.37.37,0,0,0,.11.19l.09.07a.43.43,0,0,0,.22.06l.12,0a.34.34,0,0,0,.15-.07.47.47,0,0,0,.11-.13,1.17,1.17,0,0,0,.05-.11l-.18.23,0,0-.09,0h-.09l.17,0a.32.32,0,0,0,.14,0,.41.41,0,0,0,.11-.07.29.29,0,0,0,.07-.12.28.28,0,0,0,0-.13v-.09a.38.38,0,0,0-.09-.15l-.07-.06a.37.37,0,0,0-.18,0Z"/><path class="cls-2" d="M15.86,465v-.07h0l.53-.14,0,0a.45.45,0,0,0-.21-.12.37.37,0,0,0-.18,0,.39.39,0,0,0-.18.06.41.41,0,0,0-.16.16h0l.41-.17h0l.09,0h0l.07.06-.07-.06-.09,0a.2.2,0,0,0-.13,0l-.09,0a.28.28,0,0,0-.11.08l0,.07h0a.79.79,0,0,0,0,.09v0a.49.49,0,0,0,0,.24.45.45,0,0,0,.12.21.82.82,0,0,0,.2.12.41.41,0,0,0,.19,0,.49.49,0,0,0,.17-.06.46.46,0,0,0,.23-.4.5.5,0,0,0-.06-.24h0l0,.16a.34.34,0,0,0,0-.1.36.36,0,0,0-.15-.19l-.07,0a.29.29,0,0,0-.13,0,.13.13,0,0,0-.08,0,.21.21,0,0,0-.1.06l0,.06a.32.32,0,0,0,0,.16Z"/><path class="cls-2" d="M14.27,458.17a.47.47,0,0,0,0-.94.47.47,0,0,0,0,.94Z"/><path class="cls-2" d="M10.36,439.17a.45.45,0,0,0,0-.89.45.45,0,0,0,0,.89Z"/><path class="cls-2" d="M9.31,430.71l-.06-.08.05.21v0l-.06.22,0-.06a.2.2,0,0,0,0-.11.41.41,0,0,0,0-.19h0a.35.35,0,0,0-.08-.16.28.28,0,0,0-.13-.11h0l-.05,0,0,0-.05,0-.1,0a.33.33,0,0,0-.17,0,.17.17,0,0,0-.1,0,.34.34,0,0,0-.14.09l-.06.08,0,.1a.33.33,0,0,0,0,.17.27.27,0,0,0,0,.15s0,0,0,.05l0,.05,0,0h0l.07.1a.38.38,0,0,0,.15.09l.06,0H9l.12-.05-.22.06h0l-.21-.06.09.07.09,0H9l.1,0a.38.38,0,0,0,.13-.09l.06-.08,0-.09a.29.29,0,0,0,0-.16.44.44,0,0,0,0-.15Z"/><path class="cls-2" d="M7,412.78l0,.17.27-.34-.14.05-.09.07a.31.31,0,0,0-.1.15.53.53,0,0,0,0,.18.47.47,0,0,0,0,.17.46.46,0,0,0,.25.25.33.33,0,0,0,.17,0l.13,0a.47.47,0,0,0,.2-.12l.07-.09a.46.46,0,0,0,.06-.23v-.12a.4.4,0,0,0-.08-.16.49.49,0,0,0-.13-.12l-.14-.05.26.34v-.17a.18.18,0,0,0,0-.14.19.19,0,0,0-.07-.11.26.26,0,0,0-.11-.07.32.32,0,0,0-.14,0H7.2a.38.38,0,0,0-.15.09L7,412.6a.39.39,0,0,0,0,.18Z"/><path class="cls-2" d="M6.83,407.43H6.65l.09,0h0l.17.22a.5.5,0,0,0,0-.13l-.08-.09a.33.33,0,0,0-.14-.1.37.37,0,0,0-.18,0,.33.33,0,0,0-.17,0,.31.31,0,0,0-.15.1.42.42,0,0,0-.09.14.37.37,0,0,0,0,.18v.12a.82.82,0,0,0,.12.2l.09.07a.46.46,0,0,0,.23.06l.12,0a.54.54,0,0,0,.28-.2.58.58,0,0,0,0-.14l-.17.22h0l-.09,0h.18l.08,0S7,408,7,408a.25.25,0,0,0,0-.07.31.31,0,0,0,0-.13v-.09l0-.08a.25.25,0,0,0-.08-.1.24.24,0,0,0-.11-.06Z"/><path class="cls-2" d="M153.71,429v.1a.17.17,0,0,0,0,.12.61.61,0,0,0,.09.18.29.29,0,0,0,.25.15.31.31,0,0,0,.26-.15l0-.05v0h0l0,0,0-.05v-.09h0V429a.28.28,0,0,0,0-.13.41.41,0,0,0-.07-.11.29.29,0,0,0-.12-.07.28.28,0,0,0-.13,0H154a.38.38,0,0,0-.15.09l-.05.07a.34.34,0,0,0,0,.17Z"/><path class="cls-2" d="M154.14,433.93l-.12,0,.09,0h0a.37.37,0,0,0-.38,0h0a.32.32,0,0,0-.1.1.16.16,0,0,0,0,.09s0,0,0,.07l.13-.17h0a.25.25,0,0,0-.14.23.27.27,0,0,0,.14.24h0l-.13-.17v0a.21.21,0,0,0,.07.13s0,.05.06.07l.05,0a.37.37,0,0,0,.38,0h0l-.09,0,.12,0,.08,0s.08-.05.1-.09a.12.12,0,0,0,0-.08.28.28,0,0,0,0-.13v-.09l0-.08a.26.26,0,0,0-.09-.09.24.24,0,0,0-.12-.07Z"/><path class="cls-2" d="M153,448.83l-.2.15.07-.05-.08,0h.37a.33.33,0,0,0-.15,0,.33.33,0,0,0-.17,0l-.1,0a.4.4,0,0,0-.14.15h0l0,.09a.33.33,0,0,0,0,.17.17.17,0,0,0,0,.1.34.34,0,0,0,.09.14l.08.06.1,0a.33.33,0,0,0,.17,0,.3.3,0,0,0,.15-.05h0a.32.32,0,0,0,.12-.11.32.32,0,0,0,.08-.14v-.11a.42.42,0,0,0-.06-.21h0v.38a.59.59,0,0,1,0-.08l-.06.07.16-.2a.21.21,0,0,0,.06-.1.26.26,0,0,0,0-.24.21.21,0,0,0-.06-.1l-.07-.05a.26.26,0,0,0-.15,0h-.09a.29.29,0,0,0-.14.08Z"/><path class="cls-2" d="M151.26,457a.42.42,0,0,0,0-.84.42.42,0,0,0,0,.84Z"/><path class="cls-2" d="M149,475.09a.38.38,0,0,0,0-.75.38.38,0,0,0,0,.75Z"/><path class="cls-2" d="M147.91,479H148l-.35-.2a.39.39,0,0,0,.08.1l.09.07a.3.3,0,0,0,.16.05.33.33,0,0,0,.17,0l.11-.05a.49.49,0,0,0,.16-.16l0,0a.32.32,0,0,0,0-.37l0,0a.34.34,0,0,0-.12-.12.36.36,0,0,0-.15-.08H148a.43.43,0,0,0-.22.06l-.09.07a.39.39,0,0,0-.08.1l.35-.2h-.07a.27.27,0,0,0-.15,0,.33.33,0,0,0-.21.21.27.27,0,0,0,0,.15v.11a.4.4,0,0,0,.1.18l.08.06a.49.49,0,0,0,.2,0Z"/><path class="cls-2" d="M216,456.86v.1h0l0-.07v0l.19-.14-.11,0-.07.06a.2.2,0,0,0-.08.12.26.26,0,0,0,0,.15.23.23,0,0,0,0,.14.2.2,0,0,0,.08.12.25.25,0,0,0,.12.08.32.32,0,0,0,.14,0h.1a.37.37,0,0,0,.17-.1l.06-.07a.45.45,0,0,0,.05-.19l0-.1a.26.26,0,0,0-.06-.13.27.27,0,0,0-.11-.1l-.11,0,.19.14v0l0,.07h0v-.1a.14.14,0,0,0,0-.11.21.21,0,0,0-.06-.1l-.1-.06-.11,0h-.08a.33.33,0,0,0-.13.07l0,.06a.28.28,0,0,0,0,.15Z"/><path class="cls-2" d="M216.34,451.94l0-.17,0,.06,0-.08a.36.36,0,0,0,0-.09v-.05a.19.19,0,0,0-.05-.19.22.22,0,0,0-.19-.05h0l-.1,0-.08.05.06,0-.16.05a.42.42,0,0,0-.16.09.29.29,0,0,0-.09.16.35.35,0,0,0,.09.35.35.35,0,0,0,.35.1.39.39,0,0,0,.16-.1.38.38,0,0,0,.09-.15Z"/><path class="cls-2" d="M217.5,437.7h0l.08,0h0l.06,0,0,0a.26.26,0,0,0-.09-.05l-.09,0h-.07a.24.24,0,0,0-.11.06l0,0,.06,0h0l.07,0h0l-.1,0a.38.38,0,0,0-.11.11.24.24,0,0,0-.06.09.41.41,0,0,0,0,.16v.11l0,.09a.43.43,0,0,0,.11.12l.09.05a.29.29,0,0,0,.16,0l.11,0,.09,0a.32.32,0,0,0,.12-.11.19.19,0,0,0,0-.09.26.26,0,0,0,0-.15l0-.11,0-.1a.27.27,0,0,0-.1-.11.39.39,0,0,0-.14-.08Z"/><path class="cls-2" d="M217.67,431.9a.43.43,0,0,0,0-.86.43.43,0,0,0,0,.86Z"/><path class="cls-2" d="M219.49,417l-.15-.09.07.05h0l0,.07v0l0,.18v0l0-.11a.31.31,0,0,0-.07-.14.3.3,0,0,0-.08-.08.31.31,0,0,0-.14-.07,2.13,2.13,0,0,0-.25,0,.52.52,0,0,0-.28,0,.28.28,0,0,0-.13.23.31.31,0,0,0,.06.19l0,.06a1.47,1.47,0,0,0,.1.13l.06.06a.38.38,0,0,0,.13.09.29.29,0,0,0,.16,0h.11a.42.42,0,0,0,.18-.11h0l-.25.1h-.07a.19.19,0,0,1,.08,0l.09,0a.19.19,0,0,0,.13,0,.19.19,0,0,0,.12,0,.37.37,0,0,0,.13-.15.31.31,0,0,0,0-.21.43.43,0,0,0-.15-.2Z"/><path class="cls-2" d="M219.44,411.36l-.07.06h.35a.3.3,0,0,0-.16-.05h-.18a.47.47,0,0,0-.19.12.4.4,0,0,0-.11.19l0,.08a.19.19,0,0,0,0,.07.31.31,0,0,0,0,.19.3.3,0,0,0,.09.15.36.36,0,0,0,.33.08l.08,0,.07,0a.4.4,0,0,0,.2-.11.45.45,0,0,0,.11-.19h0a.37.37,0,0,0,0-.18.23.23,0,0,0,0-.11l0-.06v.36l0-.07,0-.08a.33.33,0,0,0,0-.14.24.24,0,0,0,0-.09.3.3,0,0,0-.07-.11l-.07-.06-.09,0a.22.22,0,0,0-.14,0,.33.33,0,0,0-.13,0Z"/><path class="cls-9" d="M214.09,185.19,189.64,235.4s-22.31,16-30.62,34S127.65,327,127.65,327L139,330.84s34.67-28.67,46.63-47.27a296.88,296.88,0,0,0,20.58-38.85L227,213Z"/><path class="cls-9" d="M429.22,228.7s2.06,13.09,34.3,26,71,24.36,71,23.62,11.7-8.28,11.7-8.28-45.74-39.89-87.59-51.74S429.22,228.7,429.22,228.7Z"/><path class="cls-9" d="M280.73,437.88l3.53,27.37s-38.85,6.19-40.62,9.72,60.94-.88,60.94-.88L298.39,437"/><path class="cls-10" d="M293.53,462.18a86.76,86.76,0,0,1-9.79-1l.52,4.07s-38.85,6.19-40.62,9.72,60.94-.88,60.94-.88l-1.93-11.57C299.13,462.53,295.79,462.27,293.53,462.18Z"/><path class="cls-9" d="M371.86,464.53c1.58,0,3.19,0,4.82-.12-7-5.86-30.26-25.17-33.25-27.41l-21.19,7.94L355.72,465C361.12,464.67,366.42,464.44,371.86,464.53Z"/><path class="cls-10" d="M368.15,462.18c-4.77-.18-20.39-1-20.39-1l7.59,4.07S320,471.44,318.26,475s60.93-.88,60.93-.88l-1.92-11.57C373.75,462.53,370.41,462.27,368.15,462.18Z"/><path class="cls-8" d="M313.23,297.75c-60.17,5.9-183.21,6.49-183.68,56.87-1.88,22.62,32.29,35.9,51.65,43.11s39.8,11.14,59.32,17.94c28.38,9.88,54.26,25.64,80.76,39.81,3,1.6,6.34,3.22,9.61,2.35a13.59,13.59,0,0,0,5-3.11l22-18.46A520.8,520.8,0,0,0,281.43,380s76.42,16.06,91.14,3.11S313.23,297.75,313.23,297.75Z"/><polygon class="cls-9" points="328.87 91.89 326.69 97.6 311.05 149.33 279.21 135.88 299.39 75.65 328.87 91.89"/><path class="cls-9" d="M360.06,80.71S348.86,58,348.4,57.16l-2.72-10.82c-1.43-5.12-4.08-18.61-21.51-18.48s-35.09-.6-39.19,17.06c-1.18,5.11,1,10.26,4.78,15l-.42.2c8.59,15.2,18.64,31.64,35.26,37,5.23,1.68,11.07,2.07,16.12-.09,5.72-2.44,9.1-8.37,9.67-14.51Z"/><path class="cls-10" d="M362.05,32.5a15.73,15.73,0,0,0-4.93-.39,5.18,5.18,0,0,0,2.44-1.28,1.82,1.82,0,0,0,.07-2.49,2.59,2.59,0,0,0-1.82-.39,29.25,29.25,0,0,0-7.06,1.27A8.75,8.75,0,0,0,352,25.87a3,3,0,0,0-1.51-3,4,4,0,0,0-2.09-.17c-2.54.29-5,1-7.52,1.47-7.23,1.29-14.63.19-22,.17a74.28,74.28,0,0,0-27.25,5.14A11.25,11.25,0,0,0,287.34,32,12.1,12.1,0,0,0,285,37.49c-1.73,7.06-3.38,14.7-.56,21.39,1.78,4.22,5.14,7.54,7.86,11.23s4.9,8.31,3.75,12.75l1.85-1.13c1.7-2.2,9.3-11.5,9.3-11.5a8.11,8.11,0,0,1-1.06-1.1c-2.22-2.62-4.94-8,.09-11.31,4.08-2.66,5.57,1.23,6.45,4.92.63,2.73.93,5.33,1.64,5.21,1.7-.27,8.26,0,5.95-11.41a5.05,5.05,0,0,0-.27-.93l1.49-1.44a19.52,19.52,0,0,0,4.85-.86,2.31,2.31,0,0,0,1.11-.65,2.53,2.53,0,0,0,.33-1.63,28.06,28.06,0,0,1,1.54-9.44,2.48,2.48,0,0,1,2.66-2C337.9,39,344,41,349.84,40a35.39,35.39,0,0,0,8.05-2.9C359.89,36.14,362.23,34.69,362.05,32.5Z"/><path class="cls-11" d="M326.69,97.6l-2.62,6.82c-16.43-12.18-18.47-29.69-14.41-19.61,4.44,11,16.41,11.12,16.65,12.4Z"/><path class="cls-12" d="M433.76,351.7C404.94,329.27,330.07,280.13,294,274.65a14.19,14.19,0,0,1-5.94-1.8c-3.71-2.36-4.48-7.31-5-11.65-2.61-23.67-6.14-48.18-19.28-68-1.06-1.55-2.09-3.14-3.15-4.7-9.78-14.37-19.74-28.5-20.24-45.84A18.19,18.19,0,0,1,245,130.43c.42-.49.85-1,1.34-1.44.28-.32.57-.6.85-.89a39.35,39.35,0,0,1,12.54-7.52,78.74,78.74,0,0,1,14.34-4c9.5-1.77,21.58-2.65,36.91-2.16a168.54,168.54,0,0,1,22.33,2.09c11.3,1.87,22.25,5.22,32.14,11,3.64,2.12,7.21,4.59,9.43,8.16,2.44,3.85,2.54,8.66,3.53,13.11C392.38,211.4,389,272.23,433.76,351.7Z"/><path class="cls-12" d="M355.94,129.9c8.75-2.19,17.28,3.72,24.25,9.44a592.74,592.74,0,0,1,70,67.83,77.24,77.24,0,0,0-16.64,26.68c-1.32,3.59-3.55,8.09-7.34,7.58a8.07,8.07,0,0,1-4-2.28L369.7,193.72l3.58-.89"/><path class="cls-8" d="M341.6,267.21c-22.9-14.61-49.27-25-76.43-24.93-7.73,0-15.77,1-22.3,5.1-9.13,5.78-13.69,17-14.21,27.77s2.39,21.43,5.28,31.84q19.53,70.45,39.08,140.9l35.1-2q-4.19-48.43-8.36-96.87c15.76,35.29,55.6,58.19,94,54.05,15.15-1.63,29.28-9.58,37.17-22.61C441.45,363.11,453.81,333.68,341.6,267.21Z"/><path class="cls-9" d="M547.46,268.44s1.19,3.41,7.45,4.67a8.3,8.3,0,0,0,9-4.27s-10.23-1.19-12.56-4.58-6.9-6.06-13.06-1.15-3.77,11.72.78,12.33S547.46,268.44,547.46,268.44Z"/><path class="cls-12" d="M263,120.32c-9-.24-16.06,7.38-21.61,14.48a593.76,593.76,0,0,0-53.56,81.46,77.22,77.22,0,0,1,22,22.42c2.07,3.22,5.23,7.12,8.82,5.8a8.17,8.17,0,0,0,3.4-3.1c13.79-18.59,52.52-80.14,68.55-75.88S263,120.32,263,120.32Z"/><path class="cls-9" d="M140.84,324.62l-.09,1a221.45,221.45,0,0,1-6.31,35.62,6.29,6.29,0,0,1-1.17,2.65,2.31,2.31,0,0,1-2.68.67c-1.58-.84-.94-3.11-.42-4.77a12.12,12.12,0,0,0-.16-7.53q-3,7.54-6,15.08a8.32,8.32,0,0,1-2.07,3.45,3.07,3.07,0,0,1-3.8.32c-1.5-1.23-.8-3.56,0-5.29a57.22,57.22,0,0,0,4.45-15.06c-5.47,3.84-7.78,10.65-12.23,15.6a2.13,2.13,0,0,1-1.78.93c-.45-.09-3.84-.78-4.3-4l10.29-12.88a5.67,5.67,0,0,0,1.39-2.55,2,2,0,0,0-1.4-2.31,3,3,0,0,0-2.28.95l-6.68,5.5a3.81,3.81,0,0,1-2.16,1.1c-1.48.05-2.54-1.66-2.34-3.09a6.92,6.92,0,0,1,2.28-3.63,90.11,90.11,0,0,1,9.68-8.51,2.48,2.48,0,0,0,1.15-1.43c.21-1.24-1.37-2-2.64-2.24a30.6,30.6,0,0,0-9.11-.32c.37-2.76,2.91-4.83,5.64-5.6s5.67-.47,8.52-.19,5.78.53,8.5-.3l10.21-8.21"/><path class="cls-9" d="M531.66,275.46c4.72,5.73,7.21,13.73,11.85,19.55,1,1.19,2.56,2.31,3.52,1.2s.25-2.91-.44-4.23q-2.6-5-5.18-10a47.79,47.79,0,0,0,16.77,12c.23-2.85-1.62-5.4-3.52-7.17s-4.1-3.35-5.18-6q6.07,3.38,12.13,6.77c1.06.6,2.69.92,3-.42a2.83,2.83,0,0,0-.92-2.35,32.25,32.25,0,0,0-9.42-7.56,61.9,61.9,0,0,0,13.81-.23c-.27-1.66-1.87-2.39-3.21-2.79a124,124,0,0,0-30.15-5"/><path class="cls-4" d="M116.43,322c5.55,4.3,10.44,9.38,15.38,14.37s9.2,11.19,9.68,18.19-4,14.66-10.92,15.78c-4.37.7-8.84-1.25-12.11-4.23s-5.51-6.89-7.56-10.81c-3-5.78-4.63-12.06-6-18.44-1.18-5.47-.78-12.06,3.5-15.46S115.6,321.32,116.43,322Z"/><path class="cls-6" d="M107.09,322.58a7.1,7.1,0,0,1-4.32-3.94,7.53,7.53,0,0,1-.69-2.92,6.8,6.8,0,0,1,.11-1.42,5.74,5.74,0,0,0,.36-1.47.35.35,0,0,0-.59-.25c-.38.29-.5,1-.59,1.49a8.3,8.3,0,0,0-.14,1.65A8.86,8.86,0,0,0,102,319a8,8,0,0,0,4.86,4.37.42.42,0,0,0,.22-.8Z"/><path class="cls-8" d="M109.3,320s-5,2.4-5.31,6.05.42,6.63-.76,8.15.42,1.17,2-1.08,2-7.2,2-7.2l8.9,7.89L111,323.6s5.8,3.91,9.24.89,2.58-3.93,2.58-3.93a6,6,0,0,1-6.37,1.41C112.64,320.53,114.37,318,109.3,320Z"/><path class="cls-9" d="M333.32,115.52c-2.09,6.35-10.78,26.88-34.34,24.65-27.83-2.65-24.3-24.3-24.3-24.3l-.6-.28c9.5-1.77,21.58-2.65,36.91-2.16A165,165,0,0,1,333.32,115.52Z"/><path class="cls-9" d="M591.51,463.89c-.22-2.5-10-463.71-10-463.71h5.86L602.4,464.73S592.35,473.1,591.51,463.89Z"/><path class="cls-8" d="M498.47,87.14l.22-.21c.1-.1.2-.22.31-.31l.05,0c2.16-1.93,7.82-4.19,7.82-4.19a28.92,28.92,0,0,1,20.89.78c-1.39-1.47.29-4.12,2.31-4.32s3.86,1.07,5.49,2.29L540.77,85c1.32,1,3.09,2,4.51,1.16,1.06-.64,1.37-2.06,2.29-2.89,1.75-1.57,4.55-.26,6.24,1.37a20.39,20.39,0,0,1,5,20.85l-.26-.11.31,1.33a53.67,53.67,0,0,1-22.16,8c-3.18.4-7.51-.38-7.8-3.58-.27-3,3.33-4.63,6.24-5.36a48.06,48.06,0,0,1-14.65-.87,5.64,5.64,0,0,1-2.37-.93,3.11,3.11,0,0,1-.54-4.16,2.88,2.88,0,0,1,1.7-1c-6.07-.9-12.1-2-18.06-3.49a7.29,7.29,0,0,1-3.16-1.36C496.19,92.23,496.73,89,498.47,87.14Z"/><path class="cls-8" d="M605.77,63.44c1.3-1.84,2.9-3.71,5.11-4.16s4.89,1.45,4.34,3.63a23.49,23.49,0,0,1,24.31-5.53c.66.24,1.42.65,1.46,1.36a2,2,0,0,1-.74,1.35c-1.47,1.48-2.93,3-4.39,4.45l26.59,3.28C658.36,75,649,76.85,640.8,78l7.39,1.6a33.07,33.07,0,0,1-10.05,4.57c-3.62.78-7.67.34-10.56-2-1.16-.92-2.94-2.1-3.85-.93,1.89,2.4,1.06,6.21-1.26,8.18s-5.68,2.35-8.66,1.71a30,30,0,0,1-8.33-3.7l-7.39-4.23L598,79.71A54.22,54.22,0,0,1,605.77,63.44Z"/><path class="cls-8" d="M564.91,45.92a71.14,71.14,0,0,1-16.33-9.3c-1.08-.82-2.22-2.32-1.34-3.35a2.58,2.58,0,0,1,1.7-.66L553.5,32l-9.94-9.49c-.9-.86-1.83-2.26-1-3.17a2.29,2.29,0,0,1,1.51-.57,29.69,29.69,0,0,1,22.39,6.79,16.29,16.29,0,0,1-1.05-6.06c4-.16,7.69,2.21,10.1,5.36a29.61,29.61,0,0,1,4.51,10,2.67,2.67,0,0,1,3.45-2.18c1.81.73,2.6,2.85,2.95,4.78A24.58,24.58,0,0,1,585,51.05c-1.44,3.47-3.73,6.81-3.64,10.57l-3,8a5.9,5.9,0,0,0-.61-2.7,14.38,14.38,0,0,0-3.85-4.2l-10.25-8.52a5.85,5.85,0,0,1-2-2.4C560.87,49.51,563,47.37,564.91,45.92Z"/><path class="cls-13" d="M578.35,69.6a4,4,0,0,1-1,2.68Z"/><path class="cls-4" d="M537.36,186.56c-1.5-4-8.58,1.4-11.5,4.57s-4.67,7.21-6.37,11.17c-2.31,5.38-4.67,11.23-3.35,16.95s7.88,9.91,13.15,7.32C537.11,222.73,547.53,214,537.36,186.56Z"/><path class="cls-6" d="M544.87,353.3c.34-2.88.27-5.91,1.87-8.46,1.34-2.13,4-3.68,6.48-2.79.46.17.72-.52.33-.76-5.87-3.56-14.56-1.21-17.59,5-.27.55.54,1,.82.49,3-5.73,10.76-8.15,16.34-4.79l.33-.77c-2.63-.91-5.4.5-7,2.61-2,2.58-2.2,6.33-2,9.45a.19.19,0,0,0,.38,0Z"/><path class="cls-6" d="M560.32,239.15c-2.47,6.89-3.42,14.29-4,21.57-.57,7.44-.58,14.91-.44,22.37.29,15.06.83,30.06-.13,45.11-.56,8.69-1.41,17.36-2.27,26-.15,1.55,2.26,1.54,2.41,0,1.49-15.31,2.94-30.63,2.79-46-.16-14.66-1.42-29.31-.75-44a171.56,171.56,0,0,1,3.29-24.83.48.48,0,0,0-.92-.25Z"/><path class="cls-6" d="M553.94,384.34c-.72,2.51-.39,5.45-.43,8.05,0,2.81,0,5.62,0,8.43-.06,5.63-.15,11.25-.33,16.87q-.54,17-2,33.91-.39,4.69-.87,9.39c-.16,1.56-.33,3.12-.5,4.69-.09.82-.2,1.64-.27,2.46s.09,1.62.08,2.47a.69.69,0,0,0,1.34.18c.14-.65.43-1.24.57-1.88a19.11,19.11,0,0,0,.22-2c.15-1.4.3-2.8.44-4.19q.42-4.32.81-8.65.76-8.52,1.3-17.06c.7-11.22,1.14-22.47,1.2-33.71,0-3.14,0-6.28,0-9.42,0-1.65-.08-3.31-.16-5a17.55,17.55,0,0,0-.52-4.58.44.44,0,0,0-.85,0Z"/><path class="cls-5" d="M542.1,274.24c.54,5.31,4.24,10.67,9.54,11.36,3.94.51,7.87-1.68,10.36-4.78s3.75-7,4.67-10.87a72.1,72.1,0,0,0,1.4-26.66,11.78,11.78,0,0,0-2.16-6.07,5.13,5.13,0,0,0-5.82-1.24c-3.53,1.36-2.47-.51-6.67.6S539,253.76,542.1,274.24Z"/><path class="cls-4" d="M565.18,242.56c.88,7,2.77,13.76,4.54,20.56s4.94,13.62,10.73,17.59,14.65,4,19.14-1.36c2.82-3.4,3.42-8.24,2.52-12.57s-3.12-8.26-5.45-12c-3.44-5.54-8-10.13-12.81-14.56-4.11-3.79-10-6.81-15.1-4.85S565.05,241.52,565.18,242.56Z"/><path class="cls-4" d="M598.84,255c-5.11-.77-8.22-5.93-8.81-11.07a32,32,0,0,1,3.61-18.73c2.06-3.83,5.38-7.48,9.71-7.93s8.53,2.63,10.68,6.48,2.47,8.4,3.25,12.74C619.62,249.39,612.34,257,598.84,255Z"/><path class="cls-4" d="M566.39,223.22c-1.93-2.92-.4-6.76,1.32-9.81,3.59-6.34,8.48-13.5,15.76-13.6a5,5,0,0,1,3.68,1.22c1.09,1.14,1.19,2.89,1.09,4.47-.54,8.46-4.52,17.81-12.27,21.26C570.2,229.33,568.12,225.85,566.39,223.22Z"/><path class="cls-6" d="M569.9,232.11c.42.36.83.74,1.26,1.09.21.18.44.34.65.51a2.82,2.82,0,0,0,.74.45.19.19,0,0,0,.2-.27,2.62,2.62,0,0,0-.56-.59c-.22-.19-.44-.38-.67-.56l-1.34-1c-.21-.16-.48.2-.28.37Z"/><path class="cls-6" d="M557.8,237.64a56.64,56.64,0,0,0,2.12-8.56c.57-2.89,1.15-5.78,1.7-8.67q1.68-8.68,3.23-17.39c2-11.53,3.82-23.11,5.18-34.73s2-23.22,2.66-34.88a148.25,148.25,0,0,1,1.73-17.33c1-5.63,2.6-11.13,3.66-16.75a76.58,76.58,0,0,0,.88-18c-.27-6-.29-12.09,1.8-17.84.25-.69-.85-1.15-1.19-.5-2.4,4.58-2.72,9.7-2.63,14.79.09,5.39.59,10.77,0,16.15-.67,5.81-2.31,11.47-3.58,17.17a118.68,118.68,0,0,0-2.38,17c-.42,5.82-.56,11.66-.88,17.48s-.8,11.75-1.4,17.61c-1.21,11.88-2.91,23.71-4.87,35.5q-1.62,9.69-3.38,19.37c-.58,3.23-1.17,6.45-1.77,9.68a65.46,65.46,0,0,0-1.41,9.85c0,.34.46.37.57.07Z"/><path class="cls-6" d="M571.3,163.1c-.41-1.84.91-3.26,2.52-3.92a5,5,0,0,1,4.81.68c2.88,1.94,4.7,5.6,6.19,8.63a32.68,32.68,0,0,1,3.37,11.37,37,37,0,0,1-1.05,11.95c-.51,2.16-1.15,4.28-1.85,6.39a44.66,44.66,0,0,0-2.09,6.56.28.28,0,0,0,.5.21,32.62,32.62,0,0,0,2.61-6.49,72.32,72.32,0,0,0,2-7.08,35.54,35.54,0,0,0,.66-13.47,36.78,36.78,0,0,0-4.68-12.48c-1.72-3-4-6.73-7.68-7.46-3-.59-6.7,1.94-5.75,5.22a.22.22,0,0,0,.42-.11Z"/><path class="cls-6" d="M591.11,182.45a50,50,0,0,1,5,10.59,57.63,57.63,0,0,1,2.17,11.5.33.33,0,0,0,.65,0,37,37,0,0,0-2.14-11.69,39.88,39.88,0,0,0-5.31-10.62c-.15-.22-.51,0-.37.22Z"/><path class="cls-6" d="M593.35,185.86a35.05,35.05,0,0,1,13,33.14c-.07.45.6.66.7.19,2.61-12.34-3-26.6-13.37-33.82-.28-.2-.66.27-.38.49Z"/><path class="cls-6" d="M571.27,235.05a7.94,7.94,0,0,0-1.33-6.45,8.55,8.55,0,0,0-2.41-2.31,7.24,7.24,0,0,0-1.54-.73,2.43,2.43,0,0,0-1.6-.2.34.34,0,0,0-.07.55,4.54,4.54,0,0,0,1.39.45,6.82,6.82,0,0,1,1.34.63,7.52,7.52,0,0,1,2.2,2.08,7.15,7.15,0,0,1,1.22,5.76.42.42,0,0,0,.8.22Z"/><path class="cls-6" d="M566,182.43c-.1-5.37-4.35-10.05-9.41-11.43-5.37-1.46-10.78,1.32-13.5,6-1.44,2.5-2.27,5.69-1.39,8.52.1.33.66.29.63-.09a13.38,13.38,0,0,1,2-8.66,11.87,11.87,0,0,1,7.6-5.2c6.63-1.16,12.95,4.4,13.69,10.84,0,.25.41.27.41,0Z"/><path class="cls-5" d="M537.12,185.82c1.11-1.58,3.59-1.61,5.22-.58a11.61,11.61,0,0,1,3.58,4.48c3.46,6.26,7,12.75,7.66,19.86s-2.31,15.1-8.81,18.08a8.64,8.64,0,0,1-5.11.81c-3.68-.69-6-4.37-7.23-7.9a34.92,34.92,0,0,1,6.61-34"/><path class="cls-7" d="M518.25,209.81c-5.63,2.31-13.71,1.15-16.43-4.29s2.22-11.69,7.25-15.22a65,65,0,0,1,21-9.69c2.27-.59,5.23-1,6.58.92C542.12,189.35,534.79,203,518.25,209.81Z"/><path class="cls-4" d="M612.06,144.37c-1.35-3-4.17-5.55-7.38-5.52-3.39,0-6.16,2.85-7.71,5.94-3.11,6.17-3.22,25,1.69,28.07s10.42,3.1,15.69-2C620.92,164.56,613.41,147.37,612.06,144.37Z"/><path class="cls-4" d="M617.06,147.7c-.15-2.77,0-5.75,2.5-6.9s5.59-.4,7.88,1.18a24.49,24.49,0,0,1,5.56,6.13c2.7,3.76,5.46,7.66,6.39,12.19s-.46,9.93-4.51,12.14C627.45,176.51,618.46,174.27,617.06,147.7Z"/><path class="cls-6" d="M622.11,142.88a20.65,20.65,0,0,0-.75-4.93,42,42,0,0,0-1.44-4.92,45.72,45.72,0,0,0-4.55-9.29c-1.25-1.95-3.31-4.82-6-3.82-2.17.79-2.69,3.53-2.87,5.54s-.26,4.24-.39,6.36a57.27,57.27,0,0,0-.27,6.8c0,.3.5.41.56.08a51.8,51.8,0,0,0,.5-6.23c.13-2,.24-4.09.37-6.14a9.44,9.44,0,0,1,1-4.44c1.21-2,3.33-1.43,4.74,0a22.66,22.66,0,0,1,3.18,4.77,45.94,45.94,0,0,1,2.51,5.25,48.68,48.68,0,0,1,1.76,5.23c.53,1.9.77,3.87,1.32,5.76a.17.17,0,0,0,.33-.05Z"/><path class="cls-6" d="M608.67,120.72a85.3,85.3,0,0,1,4.13,13.63c.5,2.37.87,4.77,1.13,7.17s.09,4.71.53,7a.26.26,0,0,0,.5,0,26.67,26.67,0,0,0-.28-7c-.26-2.39-.64-4.78-1.13-7.14a65.12,65.12,0,0,0-4.5-13.82c-.09-.21-.47-.06-.38.16Z"/><path class="cls-6" d="M610.93,120.43a19.82,19.82,0,0,0-2.07-5.21,35.55,35.55,0,0,0-3.11-5,26.29,26.29,0,0,0-8-7.27,20.55,20.55,0,0,0-10.11-2.6,17,17,0,0,0-5.19.82c-1.46.48-3.35,1.17-4.34,2.4-.2.25,0,.78.37.62,1.53-.61,2.8-1.62,4.41-2.13a16.49,16.49,0,0,1,5.12-.74,19.49,19.49,0,0,1,9.73,2.75,25.92,25.92,0,0,1,7.7,7.27,39,39,0,0,1,2.71,4.35c.86,1.6,1.5,3.38,2.47,4.91a.2.2,0,0,0,.36-.15Z"/><path class="cls-6" d="M572.22,142.3a50.23,50.23,0,0,0-8-29.25,47.3,47.3,0,0,0-23.1-18.5,38.86,38.86,0,0,0-17-2.57.23.23,0,0,0,0,.45c10,.24,19.56,3,27.73,8.82a48.18,48.18,0,0,1,17.39,24.23A55.56,55.56,0,0,1,572,142.3a.11.11,0,0,0,.22,0Z"/><path class="cls-6" d="M578.75,104c2.69-8.61,8.67-15.8,16-20.95,8.14-5.74,17.71-8.87,27.45-10.63,5.85-1,11.78-1.29,17.64-2.21.35-.06.26-.6-.08-.61a95.17,95.17,0,0,0-16.23,1.69,86.49,86.49,0,0,0-15.82,4.07c-8.63,3.21-16.71,8.32-22.51,15.57a36.46,36.46,0,0,0-6.75,13,.17.17,0,0,0,.32.09Z"/><path class="cls-6" d="M578.74,68.69c3.33-11.61-.29-24.71-8.19-33.68a27.79,27.79,0,0,0-8-6.48.19.19,0,0,0-.19.33c6.31,4.57,11.36,10.18,14.32,17.48a37.45,37.45,0,0,1,1.82,22.29.12.12,0,0,0,.23.06Z"/><path class="cls-7" d="M608.44,171.64c.89,4.72,3.67,9.72,8.36,10.73,5,1.07,9.93-3.26,11.28-8.22s0-10.2-1.46-15.1a21.47,21.47,0,0,0-3.49-7.5c-1.76-2.14-4.57-3.64-7.29-3.1-4.13.81-5.69,5.62-7.31,9.51C607.53,160.39,607.74,167.91,608.44,171.64Z"/><path class="cls-4" d="M504.94,377.19c-1,5.24,1.06,11.43,5.94,13.59,3.64,1.6,8,.61,11.3-1.66s5.57-5.65,7.55-9.11a72,72,0,0,0,8.88-25.17,11.77,11.77,0,0,0-.36-6.43,5.13,5.13,0,0,0-5.23-2.84c-3.77.31-2.22-1.19-6.56-1.3S507.74,356.66,504.94,377.19Z"/><path class="cls-5" d="M578.67,234.19a11.65,11.65,0,0,0,5.89,3.43c5.83,1.17,12-1.94,15.44-6.79s4.41-11.13,3.72-17c-.52-4.45-2.7-9.52-7.11-10.33s-8.18,3.12-10.8,6.78c-3.11,4.34-5.7,9-8.52,13.54S576.34,231.86,578.67,234.19Z"/><path class="cls-5" d="M519.75,390c.47,5.31,4.11,10.72,9.39,11.48,3.94.56,7.9-1.58,10.42-4.65s3.84-6.95,4.81-10.81a72,72,0,0,0,1.75-26.63c-.27-2.16-.7-4.42-2.08-6.1a5.14,5.14,0,0,0-5.81-1.32c-3.54,1.32-2.46-.54-6.67.52S516.89,369.52,519.75,390Z"/><path class="cls-7" d="M538,356.37c.87,7,2.76,13.76,4.53,20.55s5,13.62,10.73,17.6,14.65,4,19.14-1.37c2.83-3.4,3.42-8.24,2.52-12.56s-3.11-8.26-5.45-12c-3.44-5.53-8-10.13-12.81-14.55-4.11-3.8-10-6.81-15.1-4.86S537.87,355.32,538,356.37Z"/><path class="cls-8" d="M540.57,348.86c2.11-1,6.89-3.49,11.27-.09s5.88,4.46,5.88,4.46l-9.1-1.73.88,10.69-5.79-8.33s-2-.62-3.53,3.34a9.69,9.69,0,0,1-5.25,5.68c-.92.41,2.47-1.76,2.63-5.83S536.29,350.85,540.57,348.86Z"/><path class="cls-8" d="M533.23,343.52s6.47.82,5.95,5.8-.17,10.05,1.55,11.38-4.76-2.48-4.87-6.42-1.49-4.83-1.49-4.83-7.12,1.58-9.94,6.77-5.76,4-5.76,4,3.41-8.06,7.43-10.59-4.48-1.84-8.86,1.61-7.27.44-7.27.44a11.41,11.41,0,0,0,8.32-5.11C521.43,341.74,529,338.37,533.23,343.52Z"/><path class="cls-8" d="M567.12,235.42s4.62-3.1,7.91-1.49,5.49,3.74,7.39,3.49.8,1-2,1.22-7.19-2-7.19-2l2.25,11.68-6.14-9.64s.41,7-4,8.41-4.7.21-4.7.21a6,6,0,0,0,4.46-4.76C565.88,238.57,562.82,238.76,567.12,235.42Z"/><path class="cls-8" d="M538,180.38s-1.25-3-5.77-2.16-6.84-1.44-6.84-1.44-3,3.85.9,4.8,7.16,1.7,7.16,1.7L523,189.82l10-.7a13.5,13.5,0,0,0-4.62,6.95c-.91,4.17,1.37,3.88,1.37,3.88s2.15-5.78,4.89-7-.23,7.26-.23,7.26a62.55,62.55,0,0,1,4.61-9.27C542,186.25,542.58,182.12,538,180.38Z"/><path class="cls-8" d="M612.88,148.66c2.12-1,6.89-3.48,11.28-.08S630,153,630,153l-9.09-1.74.88,10.69L616,153.66s-2-.61-3.53,3.35a9.7,9.7,0,0,1-5.26,5.68c-.91.41,2.48-1.76,2.64-5.83S608.6,150.66,612.88,148.66Z"/><path class="cls-14" d="M570.62,67q5-.46,9.92-1c3.3-.34,6.61-.81,9.93-1a.51.51,0,0,0,0-1c-6-.23-12-.46-18-.65v1c5.76-.45,11.56-.65,17.33-.95.6,0,.61-1,0-1-5.77.32-11.55.75-17.33.92a.49.49,0,0,0,0,1c6,.25,12,.46,18,.69l-.14-1c-3.3.52-6.66.76-10,1.13s-6.49.74-9.73,1.13c-.45.06-.46.76,0,.72Z"/><path class="cls-14" d="M570.73,117c3.62,2,7.33,3.75,11,5.58s7.33,3.78,11.08,5.46c.55.24,1-.53.48-.82-3.62-1.94-7.4-3.63-11.11-5.42s-7.41-3.63-11.18-5.29c-.33-.14-.61.31-.29.49Z"/><path class="cls-14" d="M584.82,130.14c.73,0,1.46.12,2.19.13l2.2,0c1.46,0,2.93,0,4.39,0v-.85a29.79,29.79,0,0,0-10.78,2.94.45.45,0,0,0,.11.81,31.18,31.18,0,0,0,8.18.5l-.11-.85c-2.58.51-5.18,1.08-7.72,1.73a.39.39,0,0,0,.1.77c1.31,0,2.65,0,4-.19a.24.24,0,0,0,0-.48c-1.3-.14-2.64-.09-4-.11l.11.77c2.58-.47,5.18-1,7.73-1.66.46-.11.38-.88-.11-.84a26.53,26.53,0,0,1-8-.49l.11.81a38.19,38.19,0,0,1,10.44-2.88c.48-.07.36-.85-.11-.83-1.46.07-2.93,0-4.39.06l-2.09,0c-.77,0-1.54.14-2.3.16a.22.22,0,0,0,0,.43Z"/><path class="cls-14" d="M551.34,327.67a91.38,91.38,0,0,0,21.2-1.41,108.33,108.33,0,0,0,20.87-5.62c.61-.23.36-1.22-.28-1a128.38,128.38,0,0,1-20.38,5.61,165.25,165.25,0,0,1-21.41,2.08.17.17,0,0,0,0,.33Z"/><path class="cls-14" d="M587,320.25c.73,1.26,2.45,2,3.76,2.53a13.27,13.27,0,0,0,4.79.9.49.49,0,0,0,.24-.9,67.94,67.94,0,0,0-8.68-5.29l-.38.9c4.33.91,8.64,1.9,13,2.86a.46.46,0,0,0,.35-.84c-3.84-2.25-7.68-4.52-11.54-6.74l-.45.78c3.61,1.66,7.16,3.44,10.8,5,.49.22.93-.49.43-.74-3.55-1.77-7.2-3.36-10.78-5.07a.45.45,0,0,0-.45.78c3.83,2.28,7.68,4.51,11.53,6.76l.35-.85c-4.31-1-8.63-1.9-12.94-2.92-.52-.12-.89.63-.38.9a91.41,91.41,0,0,1,8.69,5.28l.25-.91a12.5,12.5,0,0,1-4.45-.75A12.92,12.92,0,0,1,589,321a10.94,10.94,0,0,0-1.83-1,.18.18,0,0,0-.2.26Z"/><path class="cls-9" d="M689.83,463.82c-.17-2.51,1-463.82,1-463.82l5.85.14,4,464.78S690.44,473,689.83,463.82Z"/><path class="cls-8" d="M695.6,83.64a104.49,104.49,0,0,1-18.11,1.22,7.39,7.39,0,0,1-3.3-.59,2.65,2.65,0,0,1-1.52-2.75,11.82,11.82,0,0,1,7-1.51,44.17,44.17,0,0,1-16.81-5.38,18.53,18.53,0,0,1,8.08-1.09A22.6,22.6,0,0,1,655.9,62a14.16,14.16,0,0,1,11.19,1.88,8.58,8.58,0,0,1-2-6.87,2.49,2.49,0,0,1,.81-1.66,2.75,2.75,0,0,1,1.88-.34,24.82,24.82,0,0,1,15.94,7.42c1.13-.81-.39-3.13.81-3.82.72-.43,1.56.34,2,1a41.35,41.35,0,0,1,5.63,11.8,9.76,9.76,0,0,1,1.85-5.88,34.3,34.3,0,0,1,3.05,18.08"/><path class="cls-8" d="M785.51,266.36c0-.07-.15-.15-.21-.22s-.19-.22-.3-.32l0,0c-2.09-2-7.67-4.46-7.67-4.46a29,29,0,0,0-20.91.07c1.45-1.43-.15-4.13-2.16-4.4s-3.89.94-5.56,2.1l-5.34,3.7c-1.36.95-3.16,1.91-4.55,1-1-.68-1.29-2.11-2.19-3-1.69-1.63-4.53-.42-6.28,1.15a20.4,20.4,0,0,0-5.74,20.67l.26-.1-.35,1.32a53.86,53.86,0,0,0,21.87,8.72c3.17.5,7.52-.13,7.92-3.32.38-3-3.17-4.74-6-5.57a47.8,47.8,0,0,0,14.67-.37,5.62,5.62,0,0,0,2.4-.85,3.1,3.1,0,0,0,.68-4.13,3,3,0,0,0-1.67-1.1c6.1-.69,12.17-1.61,18.17-2.87a7.08,7.08,0,0,0,3.21-1.24C787.61,271.52,787.19,268.31,785.51,266.36Z"/><path class="cls-8" d="M724.5,55.71c1.09-2,2.46-4,4.6-4.71s5,.88,4.73,3.11a23.5,23.5,0,0,1,23.52-8.25c.69.17,1.49.49,1.61,1.19a1.94,1.94,0,0,1-.58,1.42l-3.86,4.92,26.8.25C778.06,61.25,769,64.14,761,66.16l7.52.76A32.7,32.7,0,0,1,759,72.6c-3.51,1.19-7.58,1.21-10.71-.75-1.26-.79-3.16-1.76-3.93-.49,2.15,2.17,1.76,6-.33,8.27s-5.38,3-8.41,2.67a29.69,29.69,0,0,1-8.69-2.73l-7.82-3.36-.54-3.45A54.38,54.38,0,0,1,724.5,55.71Z"/><path class="cls-8" d="M715.57,41.58a70.86,70.86,0,0,0,16.64-8.73c1.1-.78,2.29-2.24,1.45-3.3a2.56,2.56,0,0,0-1.68-.72l-4.54-.74,10.27-9.15c.92-.82,1.9-2.2,1.1-3.14a2.37,2.37,0,0,0-1.49-.62,29.67,29.67,0,0,0-22.6,6,16.63,16.63,0,0,0,1.25-6c-4-.29-7.76,1.95-10.28,5A29.6,29.6,0,0,0,700.85,30a2.68,2.68,0,0,0-3.38-2.3c-1.84.67-2.7,2.77-3.11,4.68a24.55,24.55,0,0,0,1,13.63c1.32,3.52,3.49,6.93,3.28,10.69l2.68,8.07a5.82,5.82,0,0,1,.71-2.67,14.15,14.15,0,0,1,4-4.06l10.53-8.18a5.68,5.68,0,0,0,2.08-2.33C719.48,45.31,717.42,43.11,715.57,41.58Z"/><path class="cls-13" d="M701.32,64.79a4,4,0,0,0,.91,2.72Z"/><path class="cls-4" d="M738.29,183.08c1.64-4,8.53,1.7,11.34,5s4.42,7.36,6,11.38c2.13,5.46,4.29,11.39,2.78,17s-8.23,9.64-13.4,6.88C737.31,219.25,727.19,210.19,738.29,183.08Z"/><path class="cls-5" d="M730.56,270.56c-.72,5.29-4.61,10.52-9.92,11-4,.38-7.81-1.94-10.19-5.13s-3.51-7.12-4.3-11a72.17,72.17,0,0,1-.49-26.69c.38-2.15.91-4.38,2.37-6a5.16,5.16,0,0,1,5.86-1c3.48,1.48,2.48-.42,6.64.83S734.38,250.19,730.56,270.56Z"/><path class="cls-4" d="M708.57,238.1c-1.11,6.94-3.23,13.67-5.23,20.39s-5.41,13.45-11.33,17.22-14.78,3.53-19.08-2c-2.71-3.49-3.14-8.35-2.09-12.64s3.4-8.15,5.86-11.82c3.62-5.42,8.36-9.85,13.3-14.11,4.24-3.65,10.22-6.46,15.25-4.34S708.74,237.06,708.57,238.1Z"/><path class="cls-7" d="M674.51,249.35c5.13-.59,8.42-5.65,9.19-10.76a32.1,32.1,0,0,0-3-18.85c-1.94-3.9-5.12-7.66-9.44-8.26s-8.61,2.34-10.9,6.12-2.75,8.3-3.68,12.62C653.93,243.07,660.94,250.92,674.51,249.35Z"/><path class="cls-4" d="M708,218.73c2-2.85.63-6.74-1-9.85-3.37-6.46-8-13.78-15.29-14.13a5,5,0,0,0-3.71,1.1c-1.13,1.1-1.29,2.85-1.25,4.43.25,8.47,3.91,18,11.54,21.67C704,224.72,706.2,221.3,708,218.73Z"/><path class="cls-6" d="M703.94,227.13l-1.37,1-.67.52a2.4,2.4,0,0,0-.6.59.18.18,0,0,0,.2.26,2.52,2.52,0,0,0,.72-.39l.7-.52c.44-.34.86-.7,1.3-1,.21-.17-.07-.53-.28-.37Z"/><path class="cls-6" d="M719,467.09c1-13.47.09-27.22-1.08-40.65s-3.28-26.65-5-40a217.52,217.52,0,0,1-1.68-40.17c.71-13.57,2-27.09,2.26-40.69.45-27.14-1.07-54.37-1.89-81.5S710.37,170,708.78,143c-.77-13.1-1.86-26.3-4.44-39.19-1.3-6.5-2.73-13-2.59-19.67.12-6.12,1.28-12.32.56-18.44a26.92,26.92,0,0,0-2-7.54c-.29-.67-1.44-.19-1.19.5,2.11,5.84,1.68,12.12,1.19,18.2A74.64,74.64,0,0,0,700.73,95c1.07,6.64,2.6,13.17,3.49,19.84s1.53,13.4,2,20.13c1.93,26.65,2.08,53.46,3,80.16.89,27.16,2.26,54.35,2.38,81.53.06,13.49-.77,26.89-1.68,40.34s-1.33,26.65.05,40,3.85,26.48,5.37,39.77,2.3,26.77,2.67,40.2c.09,3.37.23,6.72.43,10.08a.29.29,0,0,0,.58,0Z"/><path class="cls-6" d="M705.59,158.6c.95-2.92-2-5.5-4.79-5.48-3.61,0-6.2,3.43-8,6.14a39.38,39.38,0,0,0-5.46,11.8,33.57,33.57,0,0,0-.47,13.28,60.3,60.3,0,0,0,1.76,7.86,36,36,0,0,0,2.71,7.71c.17.29.54.07.5-.21a37.87,37.87,0,0,0-1.58-5.72c-.58-1.9-1.12-3.81-1.56-5.75a40.49,40.49,0,0,1-1.15-12A31,31,0,0,1,690.67,165a30.39,30.39,0,0,1,5.79-8.81c1.42-1.37,3.35-2.5,5.38-2s3.89,2.18,3.34,4.34a.21.21,0,0,0,.41.11Z"/><path class="cls-6" d="M684.34,176.92a40.29,40.29,0,0,0-5.67,10.43A36.81,36.81,0,0,0,676.15,199c0,.36.58.45.63.09a57.65,57.65,0,0,1,2.52-11.33,49.66,49.66,0,0,1,5.41-10.59c.16-.23-.2-.43-.37-.21Z"/><path class="cls-6" d="M682,180c-10.61,6.86-16.68,20.93-14.5,33.35.07.4.76.31.72-.1a35,35,0,0,1,14.1-32.71c.32-.23,0-.76-.32-.54Z"/><path class="cls-6" d="M703.55,230.19a7.1,7.1,0,0,1,1.39-5.67,7.75,7.75,0,0,1,2.18-2,7.27,7.27,0,0,1,1.33-.61,7.1,7.1,0,0,1,.76-.2,1.76,1.76,0,0,0,.73-.2c.19-.14.27-.48,0-.6a2.47,2.47,0,0,0-1.6.14,7.59,7.59,0,0,0-1.54.68,8.32,8.32,0,0,0-2.52,2.24,7.94,7.94,0,0,0-1.53,6.41c.11.52.91.3.8-.22Z"/><path class="cls-6" d="M710.27,178c1-6.37,7.33-11.72,13.9-10.43a11.74,11.74,0,0,1,7.49,5.35,13.33,13.33,0,0,1,1.75,8.86c0,.38.52.41.63.09,1.76-5-1.53-10.94-5.75-13.59-4.71-3-10.68-1.88-14.64,1.84a11.7,11.7,0,0,0-3.79,7.83c0,.23.37.28.41,0Z"/><path class="cls-5" d="M738.56,182.35c-1.06-1.61-3.53-1.72-5.2-.75a11.55,11.55,0,0,0-3.73,4.36c-3.67,6.13-7.42,12.49-8.33,19.58s1.79,15.17,8.18,18.37a8.69,8.69,0,0,0,5.08,1c3.7-.57,6.13-4.17,7.5-7.66A34.93,34.93,0,0,0,736.61,183"/><path class="cls-7" d="M756.59,207c5.55,2.5,13.67,1.62,16.57-3.73s-1.81-11.76-6.72-15.46a65,65,0,0,0-20.65-10.4c-2.25-.67-5.19-1.18-6.6.7C733.44,185.71,740.3,199.65,756.59,207Z"/><path class="cls-4" d="M689.64,121.23c1.61-3.29,4.84-6,8.41-5.87,3.77.16,6.75,3.41,8.36,6.9,3.22,7,2.63,27.92-2.95,31.16s-11.71,3.06-17.38-2.8C679,143.35,688,124.51,689.64,121.23Z"/><path class="cls-4" d="M684,124.74c.27-3.08.24-6.4-2.53-7.77s-6.2-.66-8.8,1-4.53,4.16-6.42,6.61c-3.14,4.07-6.36,8.31-7.57,13.31s.13,11.06,4.55,13.68C671.29,156.39,681.38,154.24,684,124.74Z"/><path class="cls-6" d="M693.9,94.87a74.41,74.41,0,0,0-5.45,15c-.64,2.61-1.16,5.24-1.54,7.9s-.93,5.34-.64,7.89c0,.27.45.38.51.07.54-2.51.49-5.21.85-7.76s.86-5.15,1.47-7.68a93.5,93.5,0,0,1,5.16-15.17c.11-.24-.24-.46-.36-.21Z"/><path class="cls-6" d="M710.14,319a53.68,53.68,0,0,1,9.18-28.12,46.47,46.47,0,0,1,23.75-17.77,52.11,52.11,0,0,1,16.6-2.32c.3,0,.28-.41,0-.45-10-1.23-20.6,2.2-28.86,7.88a48.46,48.46,0,0,0-18,23.65A49.51,49.51,0,0,0,709.92,319a.11.11,0,0,0,.22,0Z"/><path class="cls-8" d="M631.53,306.53l.19-.23c.1-.12.17-.24.28-.35l0,0c1.93-2.16,7.3-5.05,7.3-5.05a28.85,28.85,0,0,1,20.84-1.59c-1.55-1.31-.17-4.13,1.81-4.56s4,.63,5.71,1.65l5.61,3.27c1.44.84,3.31,1.65,4.62.65,1-.76,1.13-2.21,2-3.14,1.56-1.75,4.49-.77,6.35.65A20.43,20.43,0,0,1,693.6,318l-.27-.09.45,1.29a53.61,53.61,0,0,1-21.11,10.42c-3.12.75-7.51.47-8.16-2.67-.61-2.94,2.78-5,5.59-6a47.8,47.8,0,0,1-14.66.8A5.7,5.7,0,0,1,653,321a3.11,3.11,0,0,1-1-4.07,2.94,2.94,0,0,1,1.57-1.22c-6.13-.21-12.25-.65-18.33-1.42a7.23,7.23,0,0,1-3.3-1C629.84,311.84,630,308.6,631.53,306.53Z"/><path class="cls-6" d="M711.05,353c-1.55-20.7-16.11-39-36.48-44a39.09,39.09,0,0,0-17-.59c-.24.05-.19.47.06.45,10.18-.91,20.24.8,29.15,6a48.31,48.31,0,0,1,19.44,21.75A55.47,55.47,0,0,1,710.83,353c0,.14.24.14.22,0Z"/><path class="cls-6" d="M702.24,99.07c1.71-8.93,6.88-16.76,13.62-22.74,7.5-6.66,16.77-10.84,26.31-13.67,5.57-1.65,11.31-2.54,16.9-4.08.32-.09.27-.65-.09-.61a96.26,96.26,0,0,0-15.55,3.39,88.33,88.33,0,0,0-14.84,5.55c-8.41,4.12-16.06,10.1-21.18,18a36.27,36.27,0,0,0-5.49,14c0,.21.28.3.32.09Z"/><path class="cls-6" d="M701.2,63.82a37.37,37.37,0,0,1,2.7-22.46c3.22-7.09,8.4-12.43,14.79-16.74a.19.19,0,0,0-.19-.33c-5.4,2.55-9.8,7.29-12.88,12.33a38.28,38.28,0,0,0-5.52,17A32.33,32.33,0,0,0,701,63.88a.12.12,0,0,0,.23-.06Z"/><path class="cls-5" d="M692.62,151.7c-1.17,5.21-4.45,10.66-9.71,11.61-5.62,1-10.92-4-12.23-9.56s.34-11.36,2.2-16.75c1-2.92,2.13-5.89,4.17-8.21s5.22-3.88,8.23-3.18c4.56,1.06,6.12,6.48,7.76,10.87C694.07,139.22,693.55,147.57,692.62,151.7Z"/><path class="cls-5" d="M695.38,229.28a11.76,11.76,0,0,1-6,3.23c-5.87,1-11.94-2.35-15.21-7.32s-4-11.28-3.13-17.16c.68-4.43,3-9.42,7.46-10.07s8.07,3.39,10.56,7.14c3,4.44,5.39,9.2,8.05,13.82S697.79,227,695.38,229.28Z"/><path class="cls-8" d="M706.88,230.9s-4.51-3.25-7.86-1.76-5.61,3.55-7.5,3.24-.83.93,1.92,1.28,7.26-1.73,7.26-1.73l-2.65,11.59,6.47-9.42s-.65,7,3.66,8.55,4.68.37,4.68.37a6,6,0,0,1-4.29-4.92C708,234.09,711.07,234.39,706.88,230.9Z"/><path class="cls-8" d="M737.84,176.89s1.36-3,5.85-2,6.88-1.21,6.88-1.21,2.85,3.95-1.06,4.77-7.22,1.45-7.22,1.45l10.22,6.89-10-1a13.56,13.56,0,0,1,4.37,7.11c.77,4.19-1.5,3.83-1.5,3.83s-2-5.85-4.65-7.16,0,7.27,0,7.27a62.47,62.47,0,0,0-4.28-9.42C733.71,182.62,733.22,178.47,737.84,176.89Z"/><path class="cls-8" d="M688.56,126c-2.32-1.18-7.53-4.14-12.54-.53s-6.71,4.74-6.71,4.74l10.19-1.58-1.39,11.86,6.76-9.05s2.25-.6,3.8,3.85a10.86,10.86,0,0,0,5.63,6.53c1,.48-2.69-2.06-2.71-6.59S693.24,128.35,688.56,126Z"/><path class="cls-6" d="M716.49,137.06c.33-3.1.22-6.87-1.65-9.52-1.54-2.16-4.25-3.65-6.91-2.82l.33.77c5.7-3.17,13.41-.46,16.16,5.36.27.56,1.07.07.83-.48-2.82-6.34-11.44-9-17.42-5.61a.42.42,0,0,0,.33.77c2.54-.81,5.12.85,6.38,3,1.5,2.6,1.32,5.64,1.57,8.51a.19.19,0,0,0,.38,0Z"/><path class="cls-4" d="M755.19,162.3c.8,5.27-1.45,11.39-6.4,13.38-3.69,1.48-8,.34-11.23-2.05s-5.38-5.84-7.24-9.35a72.44,72.44,0,0,1-8-25.47c-.24-2.16-.36-4.45.58-6.42a5.13,5.13,0,0,1,5.32-2.65c3.76.44,2.26-1.11,6.61-1.08S753.1,141.68,755.19,162.3Z"/><path class="cls-5" d="M740,174.63c-.66,5.3-4.47,10.58-9.78,11.16-3.95.43-7.84-1.85-10.26-5s-3.6-7.08-4.44-11a72.14,72.14,0,0,1-.83-26.68c.35-2.15.85-4.39,2.29-6a5.16,5.16,0,0,1,5.84-1.12c3.5,1.44,2.48-.45,6.65.75S743.52,154.22,740,174.63Z"/><path class="cls-7" d="M722.86,140.36c-1.11,6.93-3.23,13.66-5.23,20.39S712.22,174.19,706.3,178s-14.78,3.52-19.08-2c-2.71-3.5-3.14-8.35-2.09-12.65s3.4-8.15,5.86-11.82c3.62-5.41,8.36-9.85,13.3-14.1,4.24-3.66,10.22-6.47,15.25-4.34S723,139.32,722.86,140.36Z"/><path class="cls-8" d="M720.56,132.76c-2.08-1-6.77-3.71-11.27-.47s-6,4.26-6,4.26l9.15-1.42-1.24,10.65,6.06-8.13s2-.54,3.42,3.47a9.75,9.75,0,0,0,5.06,5.86c.89.43-2.42-1.85-2.44-5.92S724.77,134.9,720.56,132.76Z"/><path class="cls-8" d="M728.07,127.68s-6.49.6-6.14,5.6-.18,10.05-1.93,11.32,4.83-2.32,5.08-6.26,1.65-4.77,1.65-4.77,7.07,1.83,9.7,7.1,5.62,4.21,5.62,4.21S738.92,136.71,735,134s4.54-1.69,8.8,1.91,7.25.69,7.25.69a11.42,11.42,0,0,1-8.14-5.39C739.93,126.31,732.47,122.68,728.07,127.68Z"/><path class="cls-6" d="M677.35,119.78c1.34-3,2.26-6.27,3.6-9.32a38,38,0,0,1,5.18-8.8,22.71,22.71,0,0,1,7.23-5.87,16.94,16.94,0,0,1,9.54-1.7c.43,0,.54-.68.11-.76-6.35-1.17-12.86,2.57-16.91,7.2a35.28,35.28,0,0,0-5.51,9A57.19,57.19,0,0,0,677,119.64c0,.18.24.33.32.14Z"/><path class="cls-6" d="M698.77,93.6c-.46,2-.17,4.4-.16,6.49,0,2.32,0,4.64,0,7,0,4.64.11,9.28.1,13.92a.42.42,0,0,0,.84,0c-.12-4.64-.16-9.28-.23-13.92,0-2.32-.06-4.64-.11-7,0-2.08.2-4.46-.31-6.49a.09.09,0,0,0-.18,0Z"/><path class="cls-6" d="M676.09,69.3a48,48,0,0,1,10,4.59,39.41,39.41,0,0,1,8.12,7,38.5,38.5,0,0,1,9.17,19.41c.07.37.71.29.66-.09a37.36,37.36,0,0,0-9.23-19.68c-4.73-5.37-11.49-10.23-18.66-11.56a.19.19,0,0,0-.1.37Z"/><path class="cls-14" d="M705,65.94a3.76,3.76,0,0,0-1.13-1.5c-.57-.55-1.15-1.08-1.74-1.6-1.19-1-2.4-2-3.65-3a67.74,67.74,0,0,0-8.06-5.23l-.45.77a138.3,138.3,0,0,1,15.8,8.88l.36-.85q-4.08-1.62-8-3.55c-1.24-.61-2.47-1.25-3.68-1.9l-1.82-1c-.69-.4-1.43-.67-2.14-1a.28.28,0,0,0-.27.48c.66.45,1.24,1,1.94,1.35l1.81,1c1.3.71,2.62,1.38,3.95,2,2.6,1.28,5.26,2.44,8,3.51.51.2.78-.58.36-.85a136.84,136.84,0,0,0-15.82-8.85c-.51-.24-1,.49-.45.77a73.23,73.23,0,0,1,7.85,5q1.92,1.42,3.73,3,.84.72,1.68,1.47a4.63,4.63,0,0,0,1.66,1.16c.06,0,.14,0,.11-.11Z"/><path class="cls-14" d="M687.64,378.2c1.06.45,2.19.72,3.28,1.06s2.2.68,3.31,1c2.21.64,4.42,1.28,6.63,1.89l.15-1.05c-3.58.13-7.16.32-10.74.47a.5.5,0,0,0-.44.75,9.48,9.48,0,0,0,4,3.58L694,385a16.8,16.8,0,0,1-5.81.79.5.5,0,0,0-.13,1,30.61,30.61,0,0,0,4.9,1.16c.75.11,1.51.2,2.26.26l1.26.07a10.85,10.85,0,0,0,1.39-.11.38.38,0,0,0,0-.75c-.8,0-1.6-.13-2.4-.18s-1.67-.15-2.49-.28a30.9,30.9,0,0,1-4.65-1.13l-.14,1a17.63,17.63,0,0,0,6.08-.82.51.51,0,0,0,.12-.92,8.57,8.57,0,0,1-3.64-3.21l-.43.75c3.58-.14,7.16-.25,10.74-.4a.54.54,0,0,0,.14-1.05c-2.22-.61-4.44-1.19-6.67-1.78-1.11-.29-2.23-.57-3.35-.83s-2.22-.61-3.36-.77a.24.24,0,0,0-.13.47Z"/><path class="cls-14" d="M694.47,387.19a50.58,50.58,0,0,0,16.88-1.48.59.59,0,0,0-.32-1.14,66,66,0,0,1-16.56,2c-.39,0-.37.55,0,.59Z"/><path class="cls-14" d="M688.39,288.55a42.85,42.85,0,0,0,12.37,3c.53.06.67-.71.26-.95a54.71,54.71,0,0,0-12-5.32l-.13.95c1.5-.08,3-.09,4.49-.12s3-.14,4.49-.09c.63,0,.62-1,0-1-1.49.12-3,.09-4.49.13s-3,.1-4.49.09a.49.49,0,0,0-.12.95,58.7,58.7,0,0,1,11.79,5.26l.25-.95a61.32,61.32,0,0,1-12.12-2.6c-.34-.1-.6.45-.25.6Z"/><path class="cls-14" d="M701.29,289.44a25.64,25.64,0,0,1,6.06-.32,19.5,19.5,0,0,1,3,.48,12.77,12.77,0,0,0,2.76.67.31.31,0,0,0,.22-.52,6.13,6.13,0,0,0-2.73-1.06,19.85,19.85,0,0,0-3.17-.46,16.59,16.59,0,0,0-6.3.74.24.24,0,0,0,.13.47Z"/><g class="cls-15"><path class="cls-16" d="M244.41,146.68a59.75,59.75,0,0,0,2.15,18.19c1.57,5.78,3.86,11.88,7.31,16.81a.24.24,0,0,0,.41-.24c-1.37-2.61-2.84-5.14-4-7.85a65.32,65.32,0,0,1-3.13-8.87,72.33,72.33,0,0,1-2.37-18,.18.18,0,0,0-.35,0Z"/></g><g class="cls-15"><path class="cls-16" d="M383.1,201c-3.89-9.27-7.8-18.59-10.62-28.26a105.49,105.49,0,0,1-3.24-14.92c-.63-4.45-1.66-9.92.86-14,.11-.18-.16-.4-.3-.23-2,2.54-2.11,5.76-1.87,8.88a91.59,91.59,0,0,0,1.79,12.22,144.08,144.08,0,0,0,7.59,23.79c1.71,4.26,3.55,8.46,5.38,12.68.1.23.51.06.41-.18Z"/></g><g class="cls-15"><path class="cls-16" d="M269.33,122.09c0,12,9,23.13,19.87,27.47,6.75,2.71,14.41,2.56,21.51,1.54a30.56,30.56,0,0,0,17.82-9c5.16-5.26,8.91-11.92,11.77-18.66.19-.45-.45-.85-.66-.39-5.36,11.28-12.39,23.13-25.36,26.42a53.29,53.29,0,0,1-11.74,1.39,34.5,34.5,0,0,1-10.47-1.13,31,31,0,0,1-14.5-9.36,32.7,32.7,0,0,1-7.87-18.31.19.19,0,0,0-.37,0Z"/></g><g class="cls-15"><path class="cls-16" d="M294.73,151.25c.86,6.08,2.14,12.13,3.26,18.17s2.22,11.93,3.35,17.89c2.22,11.74,4.26,23.52,6.78,35.2.68,3.19,1.43,6.37,2.28,9.52a52.89,52.89,0,0,0,3,9.16c.13.28.54.08.48-.2-.64-2.86-1.7-5.65-2.46-8.48s-1.4-5.56-2-8.36c-1.25-5.72-2.3-11.49-3.39-17.24q-3.39-17.88-6.8-35.75c-1.27-6.68-2.4-13.42-4-20-.07-.3-.48-.16-.45.12Z"/></g><g class="cls-15"><path class="cls-16" d="M440.94,203.62c1.48.16-.5,2.31-.86,2.71-.51.57-1,1.14-1.48,1.74-.85,1.05-1.67,2.13-2.45,3.23A57.77,57.77,0,0,0,431.6,219a50.84,50.84,0,0,0-5.2,16.4c0,.4.62.48.71.09a69.26,69.26,0,0,1,6.81-19,59.14,59.14,0,0,1,5.79-8.49c.74-.92,2.15-2,2.41-3.22a1.07,1.07,0,0,0-1.18-1.36.1.1,0,1,0,0,.19Z"/></g><g class="cls-15"><path class="cls-16" d="M195.73,212.49c-1,1.91,2,3.39,3.17,4.29a65.88,65.88,0,0,1,11.92,11.73c1.69,2.16,3.06,4.54,4.74,6.7.16.2.41-.05.32-.25a32.07,32.07,0,0,0-4.07-6.27,67.72,67.72,0,0,0-4.55-5.33,61.35,61.35,0,0,0-5.35-5c-.88-.73-1.79-1.44-2.71-2.12s-3.77-2.08-3.06-3.54c.13-.27-.27-.5-.41-.24Z"/></g><g class="cls-17"><path class="cls-12" d="M427.47,383.09c-2,.52-3.8-.44-5.37-1.6-1.75-1.29-3.38-2.76-5.05-4.15l-9.53-7.93-19.07-15.83c-6.11-5.07-12.35-10-17.82-15.8-5.21-5.49-9.86-11.5-14.86-17.18-17.38-19.7-38.12-37.64-63-47.05a105.61,105.61,0,0,0-10.57-3.38q-2.7-.71-5.43-1.27a26.22,26.22,0,0,0-5.7-.82,6,6,0,0,0-1.61,11.78c.49.14.67-.58.21-.76a3,3,0,0,0-3.59,1.54,4.77,4.77,0,0,0,.25,5c1.19,2.08,2.93,3.72,3.94,5.93a74.47,74.47,0,0,1,2.86,8.42q2.7,8.53,5.41,17.06c1.74,5.5,3.61,11,5,16.57a64.54,64.54,0,0,1,2,17.56c-.12,5.93-.48,11.86-.57,17.79-.18,11.76.21,23.53,1.1,35.26a380.12,380.12,0,0,0,5.08,39.48c.11.61,1,.35.93-.26A402.88,402.88,0,0,1,286,375.36q0-8.57.3-17.14c.22-5.55.51-11.13-.2-16.65a87.43,87.43,0,0,0-3.77-15.38c-1.74-5.49-3.52-11-5.27-16.44l-2.88-9c-.92-2.89-1.73-5.85-2.87-8.67-1-2.41-2.62-4.17-4-6.33a4.62,4.62,0,0,1-.89-3.94c.42-1.31,1.62-2.51,3.06-1.95l.21-.76a5.23,5.23,0,0,1-2.64-8.34c2.56-3.06,7-1.64,10.31-.93a103.84,103.84,0,0,1,18.16,5.66,137.58,137.58,0,0,1,33.17,20.12,216.38,216.38,0,0,1,27.79,27.11c4.74,5.44,9.18,11.15,14.2,16.34,5.3,5.49,11.31,10.24,17.17,15.1l20.63,17.08,10.31,8.53c2.45,2,5.38,4.88,8.84,3.93a.32.32,0,0,0-.17-.61Z"/></g><path class="cls-2" d="M478.58,471.44c0,.18,0,.36,0,.54v-.08a1,1,0,0,1,0,.18l0-.08,0,0,.06-.08h0l.17-.1a.4.4,0,0,0,.1.79.38.38,0,0,0,.28-.12.36.36,0,0,0,.12-.28.42.42,0,0,0-.3-.39l.17.1h0l.06.08v0l0,.08a1,1,0,0,1,0-.18V472c0-.18,0-.36,0-.54a.31.31,0,0,0-.3-.3.29.29,0,0,0-.29.3Z"/><path class="cls-2" d="M487.24,480.19a.38.38,0,0,0,0-.76.38.38,0,0,0,0,.76Z"/><path class="cls-2" d="M488.92,467.76h-.66a.45.45,0,0,0-.2,0,.53.53,0,0,0-.2.13.31.31,0,0,0,0,.44.44.44,0,0,0,.2.13.45.45,0,0,0,.2,0l.21,0h.45a.33.33,0,0,0,.23-.09.37.37,0,0,0,.1-.24.35.35,0,0,0-.33-.33Z"/><path class="cls-2" d="M657.58,463.91v.28a2.8,2.8,0,0,0,0,.29l0,.11a.27.27,0,0,0,.07.14.39.39,0,0,0,.21.15h0l-.22-.17.08.17a.27.27,0,0,0,.47,0l.08-.17-.22.17h0l.1,0a.32.32,0,0,0,.12-.11.45.45,0,0,0,.09-.25,2.8,2.8,0,0,0,0-.29v-.28a.41.41,0,0,0-.41-.41.43.43,0,0,0-.41.41Z"/><path class="cls-2" d="M667.2,457.63a.42.42,0,0,0,0-.84.42.42,0,0,0,0,.84Z"/><path class="cls-2" d="M668.88,469.28a.35.35,0,0,0,0-.7.35.35,0,0,0,0,.7Z"/><path class="cls-2" d="M740,464.21l.2,0h-.09a.31.31,0,0,0,.19,0,.51.51,0,0,0,.16-.09l-.23.1h.48a.46.46,0,0,0,.2,0l.06,0a.26.26,0,0,0,0-.44l-.06,0a.73.73,0,0,0-.2,0h-.48l.23.09a.32.32,0,0,0-.16-.09.41.41,0,0,0-.19,0h.09l-.2,0a.33.33,0,0,0-.21.09.26.26,0,0,0-.09.22.27.27,0,0,0,.09.21l.06.05a.28.28,0,0,0,.15,0Z"/><path class="cls-2" d="M752.25,455.54l0,.83a.28.28,0,0,0,.08.2.26.26,0,0,0,.2.08.29.29,0,0,0,.28-.28l0-.83a.37.37,0,0,0-.1-.24.33.33,0,0,0-.23-.09.31.31,0,0,0-.33.33Z"/><path class="cls-2" d="M761,463.36a.29.29,0,0,0,0-.58.29.29,0,0,0,0,.58Z"/><path class="cls-8" d="M631,457.29l-9-25.78c-.71-2-1.35-4.45,0-6.11,3.58.32,5.1,4.64,5.79,8.17l4,20.37a136.06,136.06,0,0,1,6.21-22.32c1.16-3.13,3.07-6.72,6.41-7,1.55,4-.75,8.42-3,12.12l-10.05,16.71"/><path class="cls-8" d="M502.86,471.81l-21.74-38.64c-1.57-2.8-3.07-6.54-.95-8.95,1.53-1.74,4.27-1.77,6.47-1,5.62,1.91,9,7.53,11.39,13A85.25,85.25,0,0,1,505,471.43"/><path class="cls-8" d="M508,470.61a101.2,101.2,0,0,1,11-44.94,10.9,10.9,0,0,1,3.53-4.54c1.65-1,4.12-1,5.26.58a4.48,4.48,0,0,1,.71,2.56c.07,3-1.22,5.78-2.49,8.46l-17.85,37.84"/><path class="cls-8" d="M756.52,463.53c-1.87-14.5,6.58-29.75,19.87-35.85,3-1.37,6.33-2.32,9.57-1.74s6.32,3,6.81,6.27c-4.15,1.58-8.15,3.54-12.14,5.5a47.7,47.7,0,0,0-10.1,6.05c-5,4.23-7.95,10.27-10.8,16.14"/></g></g></svg>