<svg xmlns="http://www.w3.org/2000/svg" viewBox="0 0 2882 745.51"><defs><style>.cls-1,.cls-2{fill:#11d1b2;}.cls-1{opacity:0.56;}.cls-3{fill:#3f0700;}.cls-4{fill:#916834;}.cls-5{fill:#b83a2b;}.cls-6{fill:#ffde00;}.cls-7{fill:#d44332;}.cls-8{fill:#4c571c;}.cls-9{fill:#ffb750;}.cls-10{fill:#66d782;}.cls-11{fill:#6b3020;}.cls-12{fill:#351a1a;}.cls-13{fill:#612b1d;}.cls-14{fill:#fff;}.cls-15{fill:#677331;}.cls-16{fill:#ccb9a3;}.cls-17{opacity:0.15;}.cls-18{fill:#007555;}.cls-19{opacity:0.25;}</style></defs><title>hero_eden</title><g id="Calque_3" data-name="Calque 3"><path class="cls-1" d="M-2,732.72" transform="translate(1.5 -0.5)"/></g><g id="Calque_5" data-name="Calque 5"><path class="cls-2" d="M2880.5.5H.5V564.41L453,406h.22L-1.5,565.18v78.07Q712.17,744.82,1426,746q726.9,1.21,1454-101.64V599.69l.5.33Z" transform="translate(1.5 -0.5)"/></g><g id="Calque_4" data-name="Calque 4"><g id="Calque_1-2" data-name="Calque 1-2"><path class="cls-3" d="M2482.3,644.57c21.85-6.39,44.9-7.1,67.65-7.76l90.94-2.64c5.1-.15,10.3-.29,15.17,1.19a24.1,24.1,0,0,1,15.54,14.93,1179.43,1179.43,0,0,1-145.79,11.07c-17.67.24-35.89,0-52.15-6.93a7,7,0,0,1-3.23-2.21c-1.57-2.31.11-5.68,2.62-6.89s5.46-.89,8.23-.55" transform="translate(1.5 -0.5)"/><path class="cls-4" d="M2333.47,608.38l-101.39-10.79s-42.09,8.63-37.77,9.71,35.6,27,35.6,27h82Z" transform="translate(1.5 -0.5)"/><path class="cls-5" d="M2254.88,630.42c3.13-.47,5-3.63,5.39-6.76a19.63,19.63,0,0,0-2.2-11.45c-1.27-2.33-3.29-4.56-5.94-4.84s-5.21,1.61-6.52,4-1.51,5.13-2,7.78C2242.19,627,2246.64,631.66,2254.88,630.42Z" transform="translate(1.5 -0.5)"/><path class="cls-6" d="M2274.71,611c1.17-1.78.24-4.13-.81-6-2.19-3.87-5.18-8.25-9.63-8.31a3,3,0,0,0-2.24.75,3.54,3.54,0,0,0-.67,2.73c.33,5.16,2.76,10.88,7.49,13C2272.38,614.77,2273.65,612.64,2274.71,611Z" transform="translate(1.5 -0.5)"/><path class="cls-7" d="M2267.21,617.74a7.27,7.27,0,0,1-3.6,2.09c-3.56.71-7.33-1.18-9.43-4.15a15,15,0,0,1-2.28-10.39c.33-2.71,1.65-5.81,4.35-6.3s5,1.9,6.59,4.14c1.9,2.65,3.49,5.49,5.21,8.27S2268.63,616.31,2267.21,617.74Z" transform="translate(1.5 -0.5)"/><path class="cls-8" d="M2298.6,607.42c.14-1.91,0-4.19-1.22-5.77a3.91,3.91,0,0,0-4.28-1.59l.2.46a7.35,7.35,0,0,1,10,2.93c.17.34.66,0,.5-.29A7.83,7.83,0,0,0,2293,600.1c-.24.15-.08.57.2.47a3.49,3.49,0,0,1,4,1.7c1,1.56.94,3.42,1.14,5.17a.12.12,0,0,0,.24,0h0Z" transform="translate(1.5 -0.5)"/><path class="cls-6" d="M2322.76,622c.61,3.2-.65,7-3.63,8.3a7.24,7.24,0,0,1-6.9-1,16.26,16.26,0,0,1-4.61-5.56,44.12,44.12,0,0,1-5.43-15.38,7.3,7.3,0,0,1,.22-3.93,3.14,3.14,0,0,1,3.2-1.73c2.3.19,1.35-.72,4-.8S2321.05,609.47,2322.76,622Z" transform="translate(1.5 -0.5)"/><path class="cls-7" d="M2313.72,629.86c-.29,3.24-2.51,6.55-5.74,7a7.22,7.22,0,0,1-6.36-2.84,16.51,16.51,0,0,1-2.94-6.6,43.93,43.93,0,0,1-1.07-16.27,7.18,7.18,0,0,1,1.27-3.72,3.15,3.15,0,0,1,3.55-.81c2.16.81,1.5-.33,4.07.32S2315.46,617.35,2313.72,629.86Z" transform="translate(1.5 -0.5)"/><path class="cls-9" d="M2302.56,609.3a97.91,97.91,0,0,1-2.77,12.55c-1.08,4.14-3,8.32-6.55,10.77s-8.95,2.44-11.69-.84a9.14,9.14,0,0,1-1.54-7.67,22.92,22.92,0,0,1,3.33-7.33,43.74,43.74,0,0,1,7.82-8.89c2.51-2.32,6.11-4.16,9.22-3S2302.64,608.65,2302.56,609.3Z" transform="translate(1.5 -0.5)"/><path class="cls-10" d="M2301,604.71c-1.29-.61-4.21-2.13-6.89-.06s-3.58,2.73-3.58,2.73l5.55-1.06-.54,6.53,3.54-5.09s1.22-.37,2.15,2a6,6,0,0,0,3.21,3.48c.56.24-1.51-1.08-1.61-3.57S2303.61,605.92,2301,604.71Z" transform="translate(1.5 -0.5)"/><path class="cls-10" d="M2305.48,601.46s-3.95.51-3.64,3.55.11,6.14-.94,7,2.9-1.52,3-3.92.91-2.95.91-2.95,4.36,1,6.07,4.13,3.52,2.45,3.52,2.45-2.08-4.93-4.54-6.47,2.74-1.13,5.42,1,4.44.27,4.44.27a7,7,0,0,1-5.09-3.12C2312.69,600.36,2308.06,598.3,2305.48,601.46Z" transform="translate(1.5 -0.5)"/><path class="cls-6" d="M2291.63,599.38a97.72,97.72,0,0,1-2.78,12.56c-1.09,4.15-3,8.31-6.55,10.74s-8.94,2.45-11.69-.83a9.13,9.13,0,0,1-1.54-7.67,22.82,22.82,0,0,1,3.33-7.33,43.28,43.28,0,0,1,7.83-8.9c2.51-2.31,6.11-4.16,9.21-3A3.37,3.37,0,0,1,2291.63,599.38Z" transform="translate(1.5 -0.5)"/><path class="cls-8" d="M2288.57,592.77l-.81.61-.4.33a1.63,1.63,0,0,0-.36.38.11.11,0,0,0,0,.15h.09a1.34,1.34,0,0,0,.43-.26l.41-.32c.27-.21.52-.44.77-.66s0-.33-.17-.23Z" transform="translate(1.5 -0.5)"/><path class="cls-8" d="M2288.39,594.66a4.41,4.41,0,0,1,.75-3.52,4.73,4.73,0,0,1,1.31-1.25,4.11,4.11,0,0,1,.82-.39,3.1,3.1,0,0,0,.89-.29.22.22,0,0,0,0-.31l0,0a1.44,1.44,0,0,0-1,.12,4.4,4.4,0,0,0-.93.44,5.11,5.11,0,0,0-1.48,1.41,4.83,4.83,0,0,0-.81,3.94.25.25,0,1,0,.48-.13Z" transform="translate(1.5 -0.5)"/><path class="cls-10" d="M2290.45,595s-2.83-1.89-4.84-.91-3.35,2.28-4.52,2.13-.48.61,1.23.75,4.39-1.22,4.39-1.22l-1.38,7.12,3.75-5.88s-.24,4.28,2.45,5.14,2.87.13,2.87.13a3.69,3.69,0,0,1-2.73-2.91C2291.2,596.94,2293.07,597.06,2290.45,595Z" transform="translate(1.5 -0.5)"/><path class="cls-6" d="M2208.26,608.74c-1.42-2.22,3.84-3.67,6.46-3.91a23.76,23.76,0,0,1,7.79,1c3.48.87,7.2,1.87,9.49,4.62s1.92,7.5-1.28,9.1C2226,622,2217.89,623.83,2208.26,608.74Z" transform="translate(1.5 -0.5)"/><path class="cls-7" d="M2208,608.35a2.44,2.44,0,0,0-2.21,2.33,7.08,7.08,0,0,0,.87,3.4c1.77,4,3.63,8.1,6.85,11s8.19,4.44,12,2.37a5.31,5.31,0,0,0,2.29-2.21c1-2,.07-4.52-1.19-6.44a21.34,21.34,0,0,0-19-9.32" transform="translate(1.5 -0.5)"/><path class="cls-9" d="M2226.63,608c3.2-1.89,5.61-6.25,4-9.59s-6.51-3.23-10.09-2.07a39.43,39.43,0,0,0-12.46,6.65c-1.12.88-2.41,2.17-2,3.53C2207.86,612.09,2217.21,613.56,2226.63,608Z" transform="translate(1.5 -0.5)"/><path class="cls-10" d="M2205,606.78s-1-1.72,1.09-3.6a4.81,4.81,0,0,0,1.83-3.87s3,0,2,2.22-1.84,4.11-1.84,4.11l7-2.68-4,4.61a8.29,8.29,0,0,1,5.09.32c2.37,1.09,1.39,2.09,1.39,2.09s-3.61-1.08-5.21-.19,3.62,2.57,3.62,2.57a37.38,37.38,0,0,0-6.21-1.18C2206.42,610.86,2204.17,609.65,2205,606.78Z" transform="translate(1.5 -0.5)"/><path class="cls-6" d="M2245.73,593.88c.83-1.83,2.55-3.39,4.51-3.37s3.77,1.74,4.71,3.63c1.9,3.77,2,15.27-1,17.15s-6.35,1.89-9.58-1.23C2240.32,606.22,2244.91,595.72,2245.73,593.88Z" transform="translate(1.5 -0.5)"/><path class="cls-6" d="M2242.68,595.92c.09-1.69,0-3.51-1.53-4.22a5,5,0,0,0-4.81.72,15,15,0,0,0-3.4,3.75c-1.64,2.3-3.33,4.68-3.9,7.44s.28,6.06,2.76,7.42C2236.33,613.52,2241.83,612.15,2242.68,595.92Z" transform="translate(1.5 -0.5)"/><path class="cls-8" d="M2239.81,593c.34-1.15.48-2.35.81-3.51a29.44,29.44,0,0,1,2.6-6.4,13.78,13.78,0,0,1,2-2.92c.86-.89,2.15-1.22,2.89,0a5.78,5.78,0,0,1,.61,2.71l.22,3.75a32.09,32.09,0,0,0,.31,3.8c0,.21.33.14.35,0a33.6,33.6,0,0,0-.14-3.62l-.21-3.48c-.08-1.37-.13-3.27-1.4-4.11-1.42-.95-2.85.32-3.67,1.45a26,26,0,0,0-2.88,5.44,27.62,27.62,0,0,0-1.12,3.44,14.13,14.13,0,0,0-.56,3.48.1.1,0,0,0,.12.08.11.11,0,0,0,.08-.08Z" transform="translate(1.5 -0.5)"/><path class="cls-8" d="M2247.57,579.34a39.86,39.86,0,0,0-2.75,8.44c-.29,1.4-.51,2.81-.67,4.22a16.57,16.57,0,0,0-.19,4.39.15.15,0,0,0,.19.11.13.13,0,0,0,.11-.11c.28-1.37.18-2.85.33-4.27s.41-2.92.72-4.36a52.52,52.52,0,0,1,2.53-8.32c0-.14-.18-.23-.24-.1Z" transform="translate(1.5 -0.5)"/><path class="cls-9" d="M2247.94,610.54c-.54,2.88-2.24,5.94-5.11,6.55-3,.66-6.06-2-6.88-5s0-6.23.89-9.22a13,13,0,0,1,2.13-4.58,4.84,4.84,0,0,1,4.45-1.9c2.53.5,3.48,3.44,4.47,5.82C2248.5,603.67,2248.36,608.26,2247.94,610.54Z" transform="translate(1.5 -0.5)"/><path class="cls-10" d="M2245.23,596.5c-1.29-.61-4.21-2.12-6.89,0s-3.59,2.72-3.59,2.72l5.56-1.06-.54,6.53,3.54-5.09s1.22-.37,2.16,2a5.92,5.92,0,0,0,3.2,3.47c.56.25-1.51-1.07-1.6-3.56S2247.84,597.72,2245.23,596.5Z" transform="translate(1.5 -0.5)"/><path class="cls-11" d="M2283.85,621.33c-4.32,0-89.54-14.05-89.54-14.05s4.31,41,7.55,41,78.75,10.81,78.75,10.81Z" transform="translate(1.5 -0.5)"/><path class="cls-11" d="M2328.08,641.82c-3.24,2.16-47.47,17.26-47.47,17.26l3.24-37.75,49.62-13Z" transform="translate(1.5 -0.5)"/><path class="cls-4" d="M2196.44,618.05a161.55,161.55,0,0,0,16.29,4.48,139.13,139.13,0,0,0,16.49,2.3,103.19,103.19,0,0,1,16.78,2.55c2.68.71,5.32,1.57,8,2.21a65.39,65.39,0,0,0,8,1.19l19.47,2.06c.37,0,.37-.55,0-.62l-17.1-1.83c-2.9-.31-5.82-.54-8.69-1.1-2.67-.52-5.28-1.34-7.89-2.09-10.75-3.05-22-2.74-32.9-4.88-6.21-1.22-12.22-3.09-18.33-4.69a.2.2,0,0,0-.25.14.21.21,0,0,0,.14.25h0Z" transform="translate(1.5 -0.5)"/><path class="cls-4" d="M2197.93,634c5.18,1.49,10.51,2.61,15.79,3.77s10.59,2.21,15.93,3.05,10.72,1.45,16.07,2.12l16.49,2,9.22,1.15c3.1.39,6.24,1,9.37,1.11.28,0,.35-.45.07-.5-2.6-.52-5.29-.72-7.94-1l-8.31-1-16.5-2c-5.43-.67-10.86-1.28-16.27-2.06s-10.68-1.78-16-2.9c-6-1.26-11.88-2.88-17.87-4a.19.19,0,0,0-.23.13.19.19,0,0,0,.13.23Z" transform="translate(1.5 -0.5)"/><path class="cls-4" d="M2284.19,632.14a79.37,79.37,0,0,0,8.63-1.86q4.42-1.06,8.82-2.2,8.73-2.25,17.38-4.79,4.93-1.44,9.83-3c.36-.11.21-.67-.15-.55q-17.2,5.36-34.72,9.68c-3.25.81-6.64,1.41-9.82,2.47-.11.05-.1.25,0,.23Z" transform="translate(1.5 -0.5)"/><path class="cls-4" d="M2282.73,647.59c3-.68,5.93-1.65,8.87-2.54s5.88-1.79,8.81-2.71q8.82-2.75,17.6-5.56,5-1.62,10.07-3.27c.35-.12.2-.67-.15-.56q-17.55,5.74-35.18,11.16c-3.37,1-6.8,2-10.09,3.23a.13.13,0,1,0,.07.25Z" transform="translate(1.5 -0.5)"/><path class="cls-4" d="M2283.27,621.87a27.64,27.64,0,0,0-.21,4.27c-.06,1.5-.12,3-.21,4.51-.16,3-.41,6-.69,9-.56,6.05-1.31,12.11-2.31,18.11-.06.38.52.54.61.16,1-6,1.83-11.95,2.33-18,.27-3,.44-6,.61-9,.08-1.5.14-3,.18-4.51a24.59,24.59,0,0,0,0-4.54c0-.14-.24-.13-.26,0Z" transform="translate(1.5 -0.5)"/><path class="cls-4" d="M2278.77,623.73l-.13.1.05,0-.1.07-.07.11.22-.13h0a.29.29,0,0,0-.23.1l-.05.06a.3.3,0,0,0-.05.16v.19a.24.24,0,0,0,.06.11.31.31,0,0,0,.16.11h0l-.15-.11.1.11s.05,0,.08,0h.13a.16.16,0,0,0,.1-.08.5.5,0,0,0,0-.13l-.17.18h0a.29.29,0,0,0,.14-.08.57.57,0,0,0,.08-.13.14.14,0,0,1,0-.09v.07h0l0-.07a.33.33,0,0,0,0-.14.11.11,0,0,0,0-.08.17.17,0,0,0-.07-.1h0l.07.25h0v0a.42.42,0,0,0,0-.1v.06h0l0,.05.05-.06,0,0h0a.24.24,0,0,0,.11-.13.28.28,0,0,0,0-.18.25.25,0,0,0-.32-.08Z" transform="translate(1.5 -0.5)"/><path class="cls-4" d="M2277.49,628.2v.06l.15-.21-.1.05-.07,0a.24.24,0,0,0-.06.11.13.13,0,0,0,0,.12.15.15,0,0,0,0,.13.21.21,0,0,0,.06.1.24.24,0,0,0,.11.06.13.13,0,0,0,.12,0h.08a.35.35,0,0,0,.15-.07l.05-.07a.33.33,0,0,0,0-.17v-.08a.22.22,0,0,0-.05-.11.32.32,0,0,0-.09-.08.25.25,0,0,0-.11,0l.15.2v-.06a.06.06,0,0,0,0-.08.08.08,0,0,0,0-.06.18.18,0,0,0-.07-.05h-.13l-.09.05v0a.23.23,0,0,0,0,.11Z" transform="translate(1.5 -0.5)"/><path class="cls-4" d="M2276.87,636.28a1,1,0,0,0-.16.12l.06,0a.41.41,0,0,0-.2.26v.2a.61.61,0,0,0,0,.19.8.8,0,0,0,.08.16.44.44,0,0,0,.15.08.25.25,0,0,0,.17,0l0,0a.27.27,0,0,0,.06-.1h0v0l0-.08a.43.43,0,0,0,0-.16v0a.26.26,0,0,1,0-.11l-.06,0a.47.47,0,0,1,0-.1l0,.06.06-.07a.29.29,0,0,0,0-.16v.08h0v.07h0l0,.06s0-.05.06-.07l0,0h0a.31.31,0,0,0,.13-.17.29.29,0,0,0-.18-.35h0a.28.28,0,0,0-.22,0Z" transform="translate(1.5 -0.5)"/><path class="cls-4" d="M2276.34,642a.31.31,0,0,0,0-.61.31.31,0,1,0,0,.61Z" transform="translate(1.5 -0.5)"/><path class="cls-4" d="M2275.88,651.17a.61.61,0,0,0-.15.12l.16-.06a.26.26,0,0,0-.19.07l-.06.07v0a.37.37,0,0,0,0,.11.24.24,0,0,0,0,.12.31.31,0,0,0,.06.13.27.27,0,0,0,.08.07l-.11-.2a.41.41,0,0,0,.18.37.17.17,0,0,0,.14,0,.18.18,0,0,0,.09-.1v0a.14.14,0,0,0,0-.09v-.09l-.16.16a.3.3,0,0,0,.19-.14v-.09a.11.11,0,0,1,0-.08v.06l0-.08a.38.38,0,0,0,0-.15v.17h0l0,.05.07-.07,0,0h0a.26.26,0,0,0,.11-.14.25.25,0,0,0,0-.17.23.23,0,0,0-.3-.08Z" transform="translate(1.5 -0.5)"/><path class="cls-4" d="M2276,654.07h0l.11.14,0-.07-.05,0a.16.16,0,0,0-.08-.06.26.26,0,0,0-.21,0,.27.27,0,0,0-.14.14.21.21,0,0,0,0,.11v.07a.19.19,0,0,0,.07.11l.05,0a.32.32,0,0,0,.14,0h.07a.18.18,0,0,0,.09,0,.27.27,0,0,0,.07-.08l0-.07-.11.15h.08l.07,0a.16.16,0,0,0,0-.07v-.14a.24.24,0,0,0-.06-.09l0,0H2276Z" transform="translate(1.5 -0.5)"/><path class="cls-4" d="M2203.69,645.44v0h0l.32-.09h0a.27.27,0,0,0-.13-.07h-.11a.25.25,0,0,0-.11,0,.24.24,0,0,0-.1.1h0l.26-.11h0l0,0,0,0h-.19a.18.18,0,0,0-.07.05v0h0v.06h0a.38.38,0,0,0,0,.15.32.32,0,0,0,.08.12.36.36,0,0,0,.12.08h.11l.11,0a.27.27,0,0,0,.14-.24.24.24,0,0,0,0-.15h0v.1a.06.06,0,0,0,0-.06.22.22,0,0,0-.09-.12h-.17l-.06,0v0a.17.17,0,0,0,0,.1Z" transform="translate(1.5 -0.5)"/><path class="cls-4" d="M2202.72,641.27a.29.29,0,0,0,0-.57h0a.29.29,0,1,0,0,.57Z" transform="translate(1.5 -0.5)"/><path class="cls-4" d="M2200.33,629.67a.29.29,0,0,0,.23-.32.28.28,0,0,0-.23-.23.27.27,0,0,0-.23.31A.28.28,0,0,0,2200.33,629.67Z" transform="translate(1.5 -0.5)"/><path class="cls-4" d="M2199.69,624.5l0,0,0,.13h0l0,.13v0a.08.08,0,0,0,0-.07.24.24,0,0,0,0-.12h0a.16.16,0,0,0,0-.1.1.1,0,0,0-.08-.06h-.28l-.09,0,0,0v.06a.21.21,0,0,0,0,.11.14.14,0,0,0,0,.09v.06h0l0,.06.09.05h.26l.07,0-.13,0h0l-.13,0,.05,0h.2l.08-.06,0-.05v0a.17.17,0,0,0,0-.1.14.14,0,0,0,0-.09Z" transform="translate(1.5 -0.5)"/><path class="cls-4" d="M2198.27,613.55v.1l.17-.21-.09,0,0,0a.15.15,0,0,0-.06.09.2.2,0,0,0,0,.11.17.17,0,0,0,0,.1.25.25,0,0,0,.15.15h.18a.33.33,0,0,0,.13-.07l0,0a.43.43,0,0,0,0-.14v-.08l-.05-.1-.08-.07-.09,0,.16.21v-.11a.11.11,0,0,0,0-.08.16.16,0,0,0,0-.07l-.07,0h-.21a.19.19,0,0,0-.09,0l0,.05Z" transform="translate(1.5 -0.5)"/><path class="cls-4" d="M2198.17,610.28h-.05l.1.13v-.08l0-.05a.16.16,0,0,0-.08-.06h-.22a.18.18,0,0,0-.09.06.22.22,0,0,0-.05.08.2.2,0,0,0,0,.11v.08a.37.37,0,0,0,.07.12l0,0a.25.25,0,0,0,.14,0h.08a.35.35,0,0,0,.17-.12v-.09l-.11.14h.11l0,0a0,0,0,0,0,0,0,.11.11,0,0,0,0-.08v-.1l0-.06-.07,0Z" transform="translate(1.5 -0.5)"/><path class="cls-4" d="M2287.89,623.45v.06a.11.11,0,0,0,0,.08.54.54,0,0,0,.05.11.19.19,0,0,0,.15.09.19.19,0,0,0,.16-.09v0h0v-.09h0v-.13a.11.11,0,0,0,0-.08l0-.06a.18.18,0,0,0-.07,0h-.08l-.09.06,0,0a.21.21,0,0,0,0,.11Z" transform="translate(1.5 -0.5)"/><path class="cls-4" d="M2288.15,626.46h0a.24.24,0,0,0-.23,0h0a.13.13,0,0,0-.06.07,0,0,0,0,0,0,.05v0l.08-.1h0a.15.15,0,0,0-.09.14.16.16,0,0,0,.09.15h0l-.08-.11h0a.12.12,0,0,0,0,.08.06.06,0,0,0,0,.05h0a.24.24,0,0,0,.23,0h.07a.33.33,0,0,0,.06-.06v-.23a.17.17,0,0,0-.06-.06l-.07,0Z" transform="translate(1.5 -0.5)"/><path class="cls-4" d="M2287.45,635.57l-.12.09,0,0h-.08a.24.24,0,0,0-.08.09h0v0a.21.21,0,0,0,0,.11.06.06,0,0,0,0,.06.22.22,0,0,0,.05.08l0,0h.06a.21.21,0,0,0,.11,0l.09,0h0l.07-.07a.14.14,0,0,0,.05-.08v-.07a.22.22,0,0,0,0-.13h0v.19l0,0,.1-.12a.15.15,0,0,0,0-.07.12.12,0,0,0,0-.14.09.09,0,0,0,0-.06l0,0h-.14a.11.11,0,0,0-.09,0Z" transform="translate(1.5 -0.5)"/><path class="cls-4" d="M2286.39,640.56a.26.26,0,1,0-.26-.26A.27.27,0,0,0,2286.39,640.56Z" transform="translate(1.5 -0.5)"/><path class="cls-4" d="M2285,651.61a.23.23,0,0,0,.19-.27.21.21,0,0,0-.19-.19.23.23,0,0,0-.19.26A.23.23,0,0,0,2285,651.61Z" transform="translate(1.5 -0.5)"/><path class="cls-4" d="M2284.34,654h.06l-.21-.12s0,0,0,.06l.06.05a.17.17,0,0,0,.1,0h.1l.07,0a.47.47,0,0,0,.1-.1h0a.24.24,0,0,0,0-.23h0a.27.27,0,0,0-.08-.07l-.09-.05h-.09a.25.25,0,0,0-.14,0l-.05,0-.05.06.21-.12h-.13a.21.21,0,0,0-.13.13.14.14,0,0,0,0,.09v.07a.3.3,0,0,0,.06.11l0,0h.12Z" transform="translate(1.5 -0.5)"/><path class="cls-4" d="M2325.93,640.47v.06h0v0h0l.12-.09H2326l0,0a.18.18,0,0,0-.05.07.17.17,0,0,0,0,.1.11.11,0,0,0,0,.08.13.13,0,0,0,.05.07.15.15,0,0,0,.07,0,.14.14,0,0,0,.09,0h.06a.17.17,0,0,0,.1-.06l0,0a.27.27,0,0,0,0-.12v-.06s0,0,0-.08a.17.17,0,0,0-.06-.06h-.07l.12.09h0v0h0v-.06a.09.09,0,0,0,0-.07.21.21,0,0,0,0-.06l-.06,0h-.12l-.08.05v.12Z" transform="translate(1.5 -0.5)"/><path class="cls-4" d="M2326.14,637.47v-.21a.11.11,0,0,0-.14-.14h-.07l0,0h0l-.1,0-.09.05a.21.21,0,0,0-.06.1.23.23,0,0,0,.27.28l.1-.06a.31.31,0,0,0,.05-.1Z" transform="translate(1.5 -0.5)"/><path class="cls-4" d="M2326.85,628.77h.09l-.06,0h-.1l-.06,0h0l-.06.07,0,.06a.14.14,0,0,0,0,.09v.13l.07.07.05,0h.22a.27.27,0,0,0,.08-.07v0a.14.14,0,0,0,0-.09v-.13l-.06-.07-.09,0Z" transform="translate(1.5 -0.5)"/><path class="cls-4" d="M2327,625.23a.27.27,0,1,0,0-.53.26.26,0,0,0-.26.26A.27.27,0,0,0,2327,625.23Z" transform="translate(1.5 -0.5)"/><path class="cls-4" d="M2328.07,616.12l-.1,0,.05,0h0v0h0v.11h0v-.06a.13.13,0,0,0-.05-.09.1.1,0,0,0,0-.05.18.18,0,0,0-.09,0h-.15a.25.25,0,0,0-.17,0,.16.16,0,0,0-.08.14.2.2,0,0,0,0,.11v0l.06.08,0,0,.08.05h.17a.19.19,0,0,0,.11-.07h0l-.16.07h.22a.39.39,0,0,0,.08-.1.24.24,0,0,0,0-.12.26.26,0,0,0-.1-.13Z" transform="translate(1.5 -0.5)"/><path class="cls-4" d="M2328,612.68l-.05,0h.22a.19.19,0,0,0-.1,0H2328a.25.25,0,0,0-.12.07.24.24,0,0,0-.06.11v0a0,0,0,0,0,0,.05.11.11,0,0,0,0,.11.11.11,0,0,0,0,.09.21.21,0,0,0,.2.05h.09a.31.31,0,0,0,.13-.06.34.34,0,0,0,.06-.12h0a.21.21,0,0,0,0-.11.09.09,0,0,0,0-.07V613a.11.11,0,0,0,0-.08.06.06,0,0,0,0-.06l0-.06,0,0h-.22Z" transform="translate(1.5 -0.5)"/><path class="cls-11" d="M2324.77,474.53l-14.94,30.67s-13.62,9.77-18.7,20.77S2272,561.15,2272,561.15l6.93,2.35s21.18-17.52,28.48-28.88A179.39,179.39,0,0,0,2320,510.89l12.7-19.37Z" transform="translate(1.5 -0.5)"/><path class="cls-11" d="M2456.17,501.11s1.26,8,20.95,15.88,43.37,14.88,43.37,14.43,7.15-5.06,7.15-5.06-27.94-24.37-53.5-31.6S2456.17,501.11,2456.17,501.11Z" transform="translate(1.5 -0.5)"/><path class="cls-11" d="M2365.47,628.88l2.16,16.72s-23.73,3.78-24.81,5.93S2380,651,2380,651l-3.78-22.66" transform="translate(1.5 -0.5)"/><path class="cls-12" d="M2373.29,643.72a52.22,52.22,0,0,1-6-.61l.32,2.49s-23.73,3.78-24.81,5.93S2380,651,2380,651l-1.18-7.07C2376.71,643.93,2374.67,643.78,2373.29,643.72Z" transform="translate(1.5 -0.5)"/><path class="cls-11" d="M2421.14,645.16c1,0,1.94,0,2.94-.08-4.28-3.58-18.48-15.37-20.31-16.74l-12.94,4.85,20.45,12.25C2414.58,645.24,2417.81,645.1,2421.14,645.16Z" transform="translate(1.5 -0.5)"/><path class="cls-12" d="M2418.87,643.72c-2.91-.11-12.45-.61-12.45-.61l4.63,2.49s-21.59,3.78-22.65,5.95,37.21-.54,37.21-.54l-1.17-7.06C2422.29,643.93,2420.25,643.78,2418.87,643.72Z" transform="translate(1.5 -0.5)"/><path class="cls-10" d="M2385.32,543.28c-36.75,3.61-111.9,4-112.19,34.74-1.15,13.82,19.72,21.93,31.55,26.33s24.31,6.81,36.23,11c17.34,6,33.14,15.66,49.33,24.32,1.83,1,3.87,2,5.87,1.43a8.14,8.14,0,0,0,3-1.9l13.44-11.27a318.5,318.5,0,0,0-46.7-34.37s46.68,9.81,55.67,1.9S2385.32,543.28,2385.32,543.28Z" transform="translate(1.5 -0.5)"/><polygon class="cls-11" points="2396.38 417.04 2395.05 420.53 2385.49 452.13 2366.04 443.91 2378.37 407.12 2396.38 417.04"/><path class="cls-11" d="M2413.93,410.71s-6.84-13.87-7.12-14.38l-1.67-6.61c-.87-3.13-2.49-11.37-13.13-11.29s-21.44-.36-23.94,10.42c-.72,3.12.61,6.27,2.92,9.17l-.26.12c5.25,9.28,11.39,19.32,21.54,22.6a14.23,14.23,0,0,0,9.84-.06c3.5-1.49,5.56-5.11,5.91-8.86Z" transform="translate(1.5 -0.5)"/><path class="cls-12" d="M2415.14,381.27a9.52,9.52,0,0,0-3-.24,3.11,3.11,0,0,0,1.49-.78,1.11,1.11,0,0,0,.05-1.52,1.58,1.58,0,0,0-1.12-.24,18.06,18.06,0,0,0-4.31.77,5.37,5.37,0,0,0,.76-2,1.83,1.83,0,0,0-.92-1.84,2.5,2.5,0,0,0-1.27-.1c-1.56.18-3.06.61-4.6.9-4.41.79-8.93.11-13.44.1a45.56,45.56,0,0,0-16.64,3.14,6.88,6.88,0,0,0-2.62,1.54,7.42,7.42,0,0,0-1.43,3.35c-1.06,4.32-2.06,9-.34,13.07,1.09,2.58,3.14,4.61,4.8,6.86s3,5.08,2.29,7.79l1.13-.69c1-1.35,5.68-7,5.68-7a5.15,5.15,0,0,1-.65-.67c-1.35-1.6-3-4.89.06-6.91,2.49-1.62,3.4.75,3.94,3,.38,1.67.57,3.25,1,3.18,1-.16,5,0,3.63-7a3,3,0,0,0-.16-.57l.91-.88a11.94,11.94,0,0,0,3-.52,1.47,1.47,0,0,0,.68-.4,1.5,1.5,0,0,0,.2-1,17.11,17.11,0,0,1,.94-5.77,1.52,1.52,0,0,1,1.63-1.22c3.61-.36,7.34.86,10.91.25a22,22,0,0,0,4.91-1.77C2413.82,383.49,2415.25,382.6,2415.14,381.27Z" transform="translate(1.5 -0.5)"/><path class="cls-13" d="M2393.55,421l-1.61,4.17c-10-7.44-11.28-18.14-8.8-12,2.72,6.72,10,6.79,10.17,7.57Z" transform="translate(1.5 -0.5)"/><path class="cls-14" d="M2458.94,576.24c-17.6-13.7-63.33-43.72-85.36-47.07a8.56,8.56,0,0,1-3.63-1.09c-2.27-1.45-2.74-4.47-3-7.12-1.6-14.46-3.75-29.43-11.78-41.54-.65-.94-1.28-1.91-1.92-2.87-6-8.77-12.06-17.4-12.37-28a11.13,11.13,0,0,1,2.82-7.47,8.47,8.47,0,0,1,.82-.88c.17-.19.34-.36.52-.54a23.91,23.91,0,0,1,7.66-4.59,48.16,48.16,0,0,1,8.75-2.45A106.86,106.86,0,0,1,2384,431.3a103.87,103.87,0,0,1,13.64,1.28,57,57,0,0,1,19.63,6.72,16,16,0,0,1,5.76,5c1.49,2.36,1.55,5.29,2.16,8C2433.67,490.54,2431.6,527.7,2458.94,576.24Z" transform="translate(1.5 -0.5)"/><path class="cls-14" d="M2411.41,440.76c5.35-1.34,10.56,2.27,14.81,5.77A361.49,361.49,0,0,1,2469,488a47.1,47.1,0,0,0-10.16,16.29c-.81,2.2-2.17,4.95-4.49,4.63a4.88,4.88,0,0,1-2.44-1.39l-32.07-27.75,2.18-.54" transform="translate(1.5 -0.5)"/><path class="cls-10" d="M2402.65,524.63c-14-8.92-30.09-15.27-46.68-15.23-4.72,0-9.63.61-13.62,3.12-5.58,3.53-8.36,10.38-8.68,17s1.46,13.09,3.22,19.45L2360.76,635l21.44-1.22q-2.55-29.58-5.1-59.17c9.62,21.56,34,35.54,57.41,33,9.26-1,17.89-5.86,22.71-13.82C2463.64,583.21,2471.19,565.23,2402.65,524.63Z" transform="translate(1.5 -0.5)"/><path class="cls-11" d="M2528.39,525.38s.73,2.08,4.55,2.85a5.07,5.07,0,0,0,5.5-2.6s-6.25-.73-7.67-2.8-4.21-3.7-8-.7-2.3,7.15.48,7.53S2528.39,525.38,2528.39,525.38Z" transform="translate(1.5 -0.5)"/><path class="cls-14" d="M2354.64,434.91c-5.49-.15-9.81,4.51-13.2,8.84a362.69,362.69,0,0,0-32.71,49.76,47.38,47.38,0,0,1,13.44,13.69c1.26,2,3.19,4.35,5.38,3.55a5,5,0,0,0,2.08-1.9c8.42-11.35,32.08-49,41.87-46.35S2354.64,434.91,2354.64,434.91Z" transform="translate(1.5 -0.5)"/><path class="cls-11" d="M2280,559.7l-.06.61a136.23,136.23,0,0,1-3.85,21.76,3.85,3.85,0,0,1-.72,1.61,1.39,1.39,0,0,1-1.63.41c-1-.51-.58-1.9-.26-2.91a7.38,7.38,0,0,0-.1-4.6l-3.66,9.21a5.13,5.13,0,0,1-1.27,2.11,1.87,1.87,0,0,1-2.32.19c-.92-.75-.49-2.17,0-3.23a34.68,34.68,0,0,0,2.72-9.2c-3.34,2.35-4.75,6.51-7.47,9.53a1.32,1.32,0,0,1-1.09.57,3.16,3.16,0,0,1-2.63-2.44l6.29-7.87a3.46,3.46,0,0,0,.85-1.56,1.23,1.23,0,0,0-.86-1.41,1.87,1.87,0,0,0-1.39.58l-4.08,3.36a2.3,2.3,0,0,1-1.32.67,1.62,1.62,0,0,1-1.43-1.88,4.27,4.27,0,0,1,1.39-2.22,56.19,56.19,0,0,1,5.92-5.2,1.52,1.52,0,0,0,.7-.87c.13-.76-.84-1.22-1.61-1.37a18.92,18.92,0,0,0-5.57-.2,4.55,4.55,0,0,1,3.45-3.42,14.18,14.18,0,0,1,5.2-.11,13.3,13.3,0,0,0,5.19-.19l6.24-5" transform="translate(1.5 -0.5)"/><path class="cls-11" d="M2518.74,529.67c2.89,3.5,4.41,8.39,7.24,11.94.61.73,1.56,1.41,2.15.73s.15-1.77-.27-2.58l-3.16-6.11a29.16,29.16,0,0,0,10.24,7.33,5.72,5.72,0,0,0-2.15-4.38c-1.16-1.08-2.5-2-3.16-3.66l7.41,4.13c.64.37,1.64.56,1.83-.25a1.73,1.73,0,0,0-.56-1.44,19.7,19.7,0,0,0-5.76-4.62,37.81,37.81,0,0,0,8.44-.14c-.17-1-1.14-1.46-2-1.7a75.74,75.74,0,0,0-18.42-3.06" transform="translate(1.5 -0.5)"/><path class="cls-6" d="M2265.12,558.1a98.46,98.46,0,0,1,9.39,8.77c3,3,5.62,6.84,5.91,11.11s-2.44,9-6.67,9.64a9.14,9.14,0,0,1-7.39-2.58,23.16,23.16,0,0,1-4.62-6.6,44.55,44.55,0,0,1-3.67-11.27c-.72-3.34-.47-7.36,2.14-9.44S2264.61,557.68,2265.12,558.1Z" transform="translate(1.5 -0.5)"/><path class="cls-8" d="M2259.41,558.45a4.34,4.34,0,0,1-2.64-2.41,4.55,4.55,0,0,1-.42-1.78,4.26,4.26,0,0,1,.07-.87,3.86,3.86,0,0,0,.22-.89.22.22,0,0,0-.22-.22.35.35,0,0,0-.14.06,1.55,1.55,0,0,0-.36.91,5.75,5.75,0,0,0-.09,1,5.52,5.52,0,0,0,.47,2,4.87,4.87,0,0,0,3,2.67.24.24,0,0,0,.28-.22.23.23,0,0,0-.15-.26Z" transform="translate(1.5 -0.5)"/><path class="cls-10" d="M2260.76,556.88s-3.05,1.46-3.24,3.69.25,4-.47,5,.26.71,1.22-.66,1.23-4.4,1.23-4.4l5.43,4.82-3.13-6.24s3.54,2.39,5.64.55,1.58-2.4,1.58-2.4a3.67,3.67,0,0,1-3.89.86C2262.8,557.2,2263.86,555.65,2260.76,556.88Z" transform="translate(1.5 -0.5)"/><path class="cls-11" d="M2397.59,432c-1.27,3.88-6.58,16.42-21,15-17-1.62-14.84-14.84-14.84-14.84l-.37-.17A106.09,106.09,0,0,1,2384,430.7,100.41,100.41,0,0,1,2397.59,432Z" transform="translate(1.5 -0.5)"/><path class="cls-11" d="M2555.3,644.76c-.13-1.52-6.11-283.23-6.11-283.23h3.58L2562,645.28S2555.81,650.39,2555.3,644.76Z" transform="translate(1.5 -0.5)"/><path class="cls-10" d="M2498.47,414.64l.13-.13c.07-.06.13-.13.19-.19h0a22.74,22.74,0,0,1,4.78-2.56,17.73,17.73,0,0,1,12.76.48c-.85-.9.18-2.52,1.41-2.64a5.15,5.15,0,0,1,3.36,1.4l3.18,2.33c.8.62,1.89,1.23,2.75.71.65-.39.84-1.26,1.4-1.76,1.07-1,2.78-.16,3.81.83a12.48,12.48,0,0,1,3.06,12.74l-.16-.07.19.82a32.74,32.74,0,0,1-13.54,4.88c-1.94.25-4.59-.23-4.76-2.18s2-2.83,3.81-3.28a29.57,29.57,0,0,1-8.95-.53,3.5,3.5,0,0,1-1.45-.57,1.9,1.9,0,0,1-.33-2.54,1.75,1.75,0,0,1,1-.61c-3.71-.55-7.39-1.22-11-2.13a4.56,4.56,0,0,1-1.93-.83C2497.08,417.75,2497.41,415.78,2498.47,414.64Z" transform="translate(1.5 -0.5)"/><path class="cls-10" d="M2564,400.17a5.53,5.53,0,0,1,3.12-2.55c1.35-.27,3,.89,2.65,2.22a14.37,14.37,0,0,1,14.85-3.38c.4.15.87.4.89.83a1.17,1.17,0,0,1-.45.83c-.9.9-1.79,1.83-2.68,2.72l16.24,2c-2.5,4.39-8.21,5.52-13.22,6.22l4.51,1a20.32,20.32,0,0,1-6.14,2.79,7.74,7.74,0,0,1-6.45-1.22c-.71-.57-1.79-1.29-2.35-.57a3.77,3.77,0,0,1-.77,5,6.19,6.19,0,0,1-5.29,1.05,18.29,18.29,0,0,1-5.09-2.26l-4.51-2.58-.06-2.14A33.07,33.07,0,0,1,2564,400.17Z" transform="translate(1.5 -0.5)"/><path class="cls-10" d="M2539.05,389.46a43.18,43.18,0,0,1-10-5.68c-.66-.5-1.36-1.41-.82-2a1.6,1.6,0,0,1,1-.41l2.78-.37-6.07-5.8c-.55-.52-1.12-1.38-.61-1.93a1.37,1.37,0,0,1,.92-.35A18.12,18.12,0,0,1,2540,377a9.75,9.75,0,0,1-.64-3.7,7.68,7.68,0,0,1,6.17,3.27,18.13,18.13,0,0,1,2.75,6.11,1.63,1.63,0,0,1,1.84-1.39,1.31,1.31,0,0,1,.27.06c1.1.44,1.59,1.74,1.8,2.92a15,15,0,0,1-.87,8.3c-.88,2.12-2.27,4.16-2.22,6.45l-1.83,4.89a3.62,3.62,0,0,0-.37-1.65,8.87,8.87,0,0,0-2.36-2.56l-6.26-5.21a3.61,3.61,0,0,1-1.22-1.46C2536.59,391.66,2537.89,390.35,2539.05,389.46Z" transform="translate(1.5 -0.5)"/><path class="cls-15" d="M2547.26,403.93a2.44,2.44,0,0,1-.61,1.64Z" transform="translate(1.5 -0.5)"/><path class="cls-6" d="M2522.22,475.37c-.91-2.44-5.24.85-7,2.79a23.5,23.5,0,0,0-3.89,6.82c-1.41,3.29-2.85,6.86-2,10.36s4.82,6.05,8,4.47C2522.07,497.46,2528.44,492.13,2522.22,475.37Z" transform="translate(1.5 -0.5)"/><path class="cls-8" d="M2526.81,577.22c.21-1.76.17-3.61,1.14-5.17a3.53,3.53,0,0,1,4-1.71c.28.11.44-.31.2-.46a7.85,7.85,0,0,0-10.74,3c-.17.34.33.61.5.3a7.32,7.32,0,0,1,10-2.92l.2-.47a3.91,3.91,0,0,0-4.27,1.59c-1.22,1.58-1.35,3.87-1.22,5.77a.11.11,0,0,0,.11.12.12.12,0,0,0,.12-.12Z" transform="translate(1.5 -0.5)"/><path class="cls-8" d="M2536.25,507.49a50.79,50.79,0,0,0-2.44,13.18c-.35,4.54-.36,9.1-.27,13.66.17,9.2.5,18.36-.08,27.55-.34,5.31-.86,10.61-1.39,15.89-.09.94,1.38.94,1.47,0a264.37,264.37,0,0,0,1.71-28.1c-.1-9-.87-17.91-.46-26.88a104.54,104.54,0,0,1,2-15.16.31.31,0,0,0-.25-.34.3.3,0,0,0-.31.18Z" transform="translate(1.5 -0.5)"/><path class="cls-8" d="M2532.35,596.17a19.25,19.25,0,0,0-.26,4.92v5.15c0,3.44-.09,6.87-.2,10.31q-.33,10.38-1.22,20.71-.24,2.87-.54,5.73c-.09,1-.2,1.91-.3,2.87-.06.5-.12,1-.17,1.5s.06,1,.05,1.51a.42.42,0,0,0,.45.39.41.41,0,0,0,.37-.28c.09-.4.26-.76.35-1.15a9.89,9.89,0,0,0,.13-1.22c.1-.86.19-1.71.27-2.56.17-1.76.34-3.52.5-5.28.31-3.47.57-6.95.79-10.42.43-6.86.7-13.73.73-20.59V602c0-1,0-2-.09-3a11,11,0,0,0-.32-2.8.27.27,0,0,0-.33-.19.3.3,0,0,0-.19.19Z" transform="translate(1.5 -0.5)"/><path class="cls-7" d="M2525.12,528.92c.33,3.25,2.59,6.52,5.83,6.94a7.27,7.27,0,0,0,6.33-2.92,16.44,16.44,0,0,0,2.85-6.64A44.17,44.17,0,0,0,2541,510a7.12,7.12,0,0,0-1.32-3.71,3.14,3.14,0,0,0-3.55-.76c-2.16.84-1.51-.31-4.08.37S2523.23,516.42,2525.12,528.92Z" transform="translate(1.5 -0.5)"/><path class="cls-6" d="M2539.22,509.57a99.4,99.4,0,0,0,2.77,12.56c1.08,4.16,3,8.32,6.55,10.75s8.95,2.44,11.7-.83a9.19,9.19,0,0,0,1.53-7.68,22.8,22.8,0,0,0-3.32-7.33,43.88,43.88,0,0,0-7.83-8.9c-2.51-2.31-6.11-4.15-9.22-3S2539.14,508.94,2539.22,509.57Z" transform="translate(1.5 -0.5)"/><path class="cls-6" d="M2559.78,517.17c-3.12-.47-5-3.62-5.38-6.76a19.51,19.51,0,0,1,2.2-11.44c1.26-2.34,3.29-4.57,5.93-4.84s5.21,1.6,6.53,3.95,1.5,5.14,2,7.79C2572.47,513.75,2568,518.39,2559.78,517.17Z" transform="translate(1.5 -0.5)"/><path class="cls-6" d="M2540,497.76c-1.18-1.78-.25-4.13.8-6,2.2-3.87,5.18-8.25,9.63-8.31a3.08,3.08,0,0,1,2.25.75,3.58,3.58,0,0,1,.66,2.73c-.33,5.16-2.76,10.88-7.49,13C2542.28,501.49,2541,499.37,2540,497.76Z" transform="translate(1.5 -0.5)"/><path class="cls-8" d="M2542.1,503.19l.77.67.4.31a1.59,1.59,0,0,0,.45.27.11.11,0,0,0,.13-.09.08.08,0,0,0,0-.07,1.46,1.46,0,0,0-.34-.36c-.13-.12-.27-.23-.41-.34l-.82-.61C2542.14,502.87,2542,503.09,2542.1,503.19Z" transform="translate(1.5 -0.5)"/><path class="cls-8" d="M2534.71,506.57a33.85,33.85,0,0,0,1.29-5.23c.35-1.76.71-3.53,1-5.3.69-3.53,1.34-7.07,2-10.62,1.22-7,2.33-14.11,3.16-21.21s1.22-14.18,1.62-21.31a91.56,91.56,0,0,1,1.06-10.58c.61-3.44,1.59-6.8,2.24-10.23a46.56,46.56,0,0,0,.53-11c-.16-3.66-.17-7.38,1.1-10.89a.4.4,0,0,0-.72-.31c-1.47,2.8-1.66,5.93-1.61,9a77.39,77.39,0,0,1,0,9.87,101.74,101.74,0,0,1-2.19,10.49,72.62,72.62,0,0,0-1.45,10.38c-.26,3.56-.34,7.12-.54,10.68s-.49,7.17-.85,10.75c-.74,7.26-1.78,14.49-3,21.69q-1,5.91-2.06,11.83l-1.08,5.91a39.32,39.32,0,0,0-.86,6,.17.17,0,0,0,.34,0Z" transform="translate(1.5 -0.5)"/><path class="cls-8" d="M2543,461a2.17,2.17,0,0,1,1.54-2.4,3.06,3.06,0,0,1,2.93.42c1.76,1.18,2.87,3.42,3.78,5.27a19.73,19.73,0,0,1,2.06,6.95,22.46,22.46,0,0,1-.64,7.3c-.31,1.31-.7,2.61-1.13,3.9a27.92,27.92,0,0,0-1.28,4,.18.18,0,0,0,.15.19.17.17,0,0,0,.16-.07,19.63,19.63,0,0,0,1.59-4c.48-1.42.89-2.86,1.23-4.33a21.88,21.88,0,0,0,.4-8.22,22.46,22.46,0,0,0-2.86-7.63c-1-1.83-2.44-4.11-4.69-4.55-1.83-.36-4.09,1.18-3.51,3.19a.13.13,0,0,0,.17.06.11.11,0,0,0,.08-.13Z" transform="translate(1.5 -0.5)"/><path class="cls-8" d="M2555.06,472.86a30.85,30.85,0,0,1,3.05,6.47,35.65,35.65,0,0,1,1.33,7,.2.2,0,0,0,.39,0,22.86,22.86,0,0,0-1.3-7.14,24.68,24.68,0,0,0-3.25-6.49C2555.19,472.59,2555,472.72,2555.06,472.86Z" transform="translate(1.5 -0.5)"/><path class="cls-8" d="M2556.42,474.94a21.37,21.37,0,0,1,7.94,20.24c0,.28.37.41.43.12a20.89,20.89,0,0,0-8.16-20.66c-.18-.12-.41.17-.24.3Z" transform="translate(1.5 -0.5)"/><path class="cls-8" d="M2542.94,505a4.89,4.89,0,0,0-.81-3.94,5.23,5.23,0,0,0-1.48-1.41,4.07,4.07,0,0,0-.94-.45,1.48,1.48,0,0,0-1-.12.2.2,0,0,0-.09.28l0,0a2.93,2.93,0,0,0,.85.28,4.71,4.71,0,0,1,.82.38,4.51,4.51,0,0,1,1.34,1.27,4.35,4.35,0,0,1,.75,3.52.26.26,0,0,0,.23.29.26.26,0,0,0,.26-.15Z" transform="translate(1.5 -0.5)"/><path class="cls-8" d="M2539.72,472.85a7.76,7.76,0,0,0-5.75-7,7.43,7.43,0,0,0-8.25,3.67,6.76,6.76,0,0,0-.84,5.2c.06.2.4.18.38-.05a8.14,8.14,0,0,1,1.22-5.29,7.26,7.26,0,0,1,4.64-3.18c4.05-.71,7.91,2.69,8.37,6.62a.13.13,0,0,0,.25,0Z" transform="translate(1.5 -0.5)"/><path class="cls-7" d="M2522.08,474.92a2.42,2.42,0,0,1,3.19-.36,7.2,7.2,0,0,1,2.18,2.74c2.12,3.82,4.28,7.79,4.68,12.13s-1.41,9.22-5.38,11a5.25,5.25,0,0,1-3.12.5c-2.25-.42-3.67-2.67-4.42-4.83a21.33,21.33,0,0,1,4-20.77" transform="translate(1.5 -0.5)"/><path class="cls-9" d="M2510.55,489.57c-3.44,1.41-8.37.7-10-2.62s1.35-7.14,4.43-9.3a39.72,39.72,0,0,1,12.82-5.92c1.39-.36,3.2-.61,4,.57C2525.13,477.07,2520.66,485.41,2510.55,489.57Z" transform="translate(1.5 -0.5)"/><path class="cls-6" d="M2567.85,449.6c-.82-1.83-2.54-3.39-4.51-3.37s-3.76,1.74-4.7,3.62c-1.9,3.77-2,15.28,1,17.15s6.36,1.89,9.58-1.22C2573.26,461.93,2568.68,451.43,2567.85,449.6Z" transform="translate(1.5 -0.5)"/><path class="cls-6" d="M2570.91,451.63c-.1-1.69,0-3.51,1.52-4.21a5.05,5.05,0,0,1,4.82.72,15.1,15.1,0,0,1,3.39,3.74c1.65,2.3,3.34,4.68,3.91,7.45s-.29,6.06-2.76,7.41C2577.25,469.23,2571.76,467.86,2570.91,451.63Z" transform="translate(1.5 -0.5)"/><path class="cls-8" d="M2574,448.69a12.25,12.25,0,0,0-.46-3,24.13,24.13,0,0,0-.88-3,27.87,27.87,0,0,0-2.78-5.67c-.76-1.19-2-2.95-3.66-2.34-1.33.49-1.64,2.16-1.75,3.39s-.16,2.59-.24,3.88a36.08,36.08,0,0,0-.17,4.16c0,.18.31.25.35.05a32.59,32.59,0,0,0,.3-3.81c.08-1.22.15-2.5.23-3.75a5.78,5.78,0,0,1,.61-2.71c.74-1.22,2-.88,2.89,0a14,14,0,0,1,2,2.91,29.47,29.47,0,0,1,1.53,3.21,27.78,27.78,0,0,1,1.07,3.19c.33,1.16.47,2.37.81,3.52a.1.1,0,0,0,.13.06.1.1,0,0,0,.07-.09Z" transform="translate(1.5 -0.5)"/><path class="cls-8" d="M2565.78,435.15a51.57,51.57,0,0,1,2.52,8.33,40.69,40.69,0,0,1,.69,4.38c.16,1.46.06,2.87.33,4.27a.15.15,0,0,0,.19.11.13.13,0,0,0,.11-.11,15.68,15.68,0,0,0-.17-4.27c-.16-1.46-.39-2.92-.69-4.36a39.68,39.68,0,0,0-2.75-8.44C2566,434.93,2565.73,435,2565.78,435.15Z" transform="translate(1.5 -0.5)"/><path class="cls-8" d="M2567.16,435a12.2,12.2,0,0,0-1.26-3.19,22.23,22.23,0,0,0-1.9-3.05,16.09,16.09,0,0,0-4.89-4.44,12.58,12.58,0,0,0-6.17-1.59,10.3,10.3,0,0,0-3.17.5,5.69,5.69,0,0,0-2.65,1.47c-.13.15,0,.47.22.38.94-.38,1.71-1,2.7-1.3a10,10,0,0,1,3.12-.46,12,12,0,0,1,6,1.68,16,16,0,0,1,4.7,4.44,23.54,23.54,0,0,1,1.65,2.66c.53,1,.92,2.06,1.51,3a.13.13,0,0,0,.17,0,.12.12,0,0,0,.05-.12Z" transform="translate(1.5 -0.5)"/><path class="cls-8" d="M2543.52,448.33a30.69,30.69,0,0,0-4.89-17.86,28.87,28.87,0,0,0-14.11-11.3,23.74,23.74,0,0,0-10.38-1.57.13.13,0,0,0-.11.16.13.13,0,0,0,.11.11,30.1,30.1,0,0,1,16.94,5.39,29.52,29.52,0,0,1,10.62,14.8,34.14,34.14,0,0,1,1.68,10.27.07.07,0,0,0,.14,0Z" transform="translate(1.5 -0.5)"/><path class="cls-8" d="M2547.51,424.94a25.09,25.09,0,0,1,9.77-12.8,41.78,41.78,0,0,1,16.77-6.49c3.57-.61,7.19-.79,10.77-1.35.21,0,.16-.37-.05-.37a57.84,57.84,0,0,0-9.91,1,51.93,51.93,0,0,0-9.66,2.49,31.4,31.4,0,0,0-13.75,9.51,22.34,22.34,0,0,0-4.13,7.94.12.12,0,0,0,.1.11.11.11,0,0,0,.1-.06Z" transform="translate(1.5 -0.5)"/><path class="cls-8" d="M2547.5,403.37c2-7.09-.18-15.09-5-20.57a17.18,17.18,0,0,0-4.89-4,.13.13,0,0,0-.16,0,.12.12,0,0,0,.05.16h0a24.63,24.63,0,0,1,8.74,10.68,22.84,22.84,0,0,1,1.11,13.62.08.08,0,0,0,.07.08.08.08,0,0,0,.07-.05Z" transform="translate(1.5 -0.5)"/><path class="cls-9" d="M2565.64,466.26c.54,2.88,2.24,5.93,5.11,6.55,3.05.65,6.06-2,6.89-5s0-6.23-.89-9.22a13.21,13.21,0,0,0-2.14-4.59,4.83,4.83,0,0,0-4.45-1.89c-2.52.5-3.47,3.43-4.46,5.81C2565.09,459.38,2565.21,464,2565.64,466.26Z" transform="translate(1.5 -0.5)"/><path class="cls-6" d="M2502.42,591.81c-.61,3.2.65,7,3.63,8.3a7.27,7.27,0,0,0,6.9-1,16.16,16.16,0,0,0,4.61-5.56,44.14,44.14,0,0,0,5.43-15.37,7.2,7.2,0,0,0-.22-3.93,3.15,3.15,0,0,0-3.2-1.74c-2.3.19-1.35-.72-4-.79S2504.13,579.27,2502.42,591.81Z" transform="translate(1.5 -0.5)"/><path class="cls-7" d="M2547.46,504.46a7.13,7.13,0,0,0,3.6,2.1c3.56.71,7.32-1.19,9.43-4.15a15,15,0,0,0,2.27-10.38c-.32-2.72-1.65-5.82-4.34-6.31s-5,1.9-6.6,4.14c-1.9,2.65-3.48,5.49-5.21,8.27A4.7,4.7,0,0,0,2547.46,504.46Z" transform="translate(1.5 -0.5)"/><path class="cls-7" d="M2511.47,599.63c.29,3.25,2.51,6.55,5.73,7a7.23,7.23,0,0,0,6.37-2.84,16.64,16.64,0,0,0,2.94-6.6,44.11,44.11,0,0,0,1.07-16.26,7.25,7.25,0,0,0-1.27-3.73,3.15,3.15,0,0,0-3.55-.81c-2.17.81-1.51-.33-4.08.32S2509.72,587.12,2511.47,599.63Z" transform="translate(1.5 -0.5)"/><path class="cls-9" d="M2522.62,579.09a97.14,97.14,0,0,0,2.76,12.55c1.08,4.15,3.06,8.32,6.56,10.75s8.95,2.45,11.69-.83a9.16,9.16,0,0,0,1.54-7.68,23.12,23.12,0,0,0-3.33-7.33,43.74,43.74,0,0,0-7.83-8.88c-2.51-2.32-6.1-4.16-9.22-3S2522.54,578.45,2522.62,579.09Z" transform="translate(1.5 -0.5)"/><path class="cls-10" d="M2524.19,574.5c1.28-.61,4.2-2.13,6.88,0s3.59,2.72,3.59,2.72l-5.56-1,.54,6.53-3.54-5.09s-1.22-.38-2.15,2a5.94,5.94,0,0,1-3.21,3.47c-.56.25,1.51-1.08,1.61-3.56S2521.57,575.72,2524.19,574.5Z" transform="translate(1.5 -0.5)"/><path class="cls-10" d="M2519.7,571.24s4,.5,3.64,3.54-.11,6.14.94,7-2.9-1.52-3-3.93-.91-2.95-.91-2.95-4.35,1-6.07,4.14-3.52,2.44-3.52,2.44,2.08-4.92,4.54-6.47-2.74-1.12-5.41,1-4.45.27-4.45.27a7,7,0,0,0,5.09-3.13C2512.49,570.15,2517.12,568.1,2519.7,571.24Z" transform="translate(1.5 -0.5)"/><path class="cls-10" d="M2540.4,505.21s2.82-1.89,4.83-.91,3.36,2.29,4.52,2.13.49.62-1.22.75-4.4-1.22-4.4-1.22l1.38,7.13-3.75-5.89s.25,4.28-2.44,5.14-2.88.13-2.88.13a3.67,3.67,0,0,0,2.73-2.91C2539.65,507.14,2537.78,507.25,2540.4,505.21Z" transform="translate(1.5 -0.5)"/><path class="cls-10" d="M2522.62,471.59s-.77-1.83-3.53-1.32a4.78,4.78,0,0,1-4.18-.88s-1.83,2.36.55,2.94,4.38,1,4.38,1l-6.39,4,6.11-.43a8.28,8.28,0,0,0-2.82,4.25c-.56,2.54.84,2.37.84,2.37s1.31-3.53,3-4.28-.14,4.44-.14,4.44a38.39,38.39,0,0,1,2.82-5.67C2525.06,475.18,2525.41,472.66,2522.62,471.59Z" transform="translate(1.5 -0.5)"/><path class="cls-10" d="M2568.35,452.22c1.3-.61,4.21-2.13,6.89-.05s3.57,2.7,3.57,2.7l-5.55-1.06.54,6.53-3.54-5.07s-1.22-.37-2.16,2.05a5.9,5.9,0,0,1-3.21,3.47c-.56.25,1.51-1.08,1.61-3.56S2565.74,453.44,2568.35,452.22Z" transform="translate(1.5 -0.5)"/><path class="cls-16" d="M2542.54,402.34q3.06-.29,6.06-.61c2-.21,4-.5,6.07-.61a.32.32,0,0,0,.24-.37.31.31,0,0,0-.24-.24c-3.67-.14-7.33-.28-11-.4v.61c3.52-.27,7.06-.4,10.59-.58.36,0,.37-.61,0-.61-3.53.2-7.06.46-10.59.56a.3.3,0,0,0-.3.31.29.29,0,0,0,.3.3c3.67.16,7.33.28,11,.42l-.09-.61c-2,.32-4.07.47-6.11.69l-5.94.69c-.28,0-.28.47,0,.44Z" transform="translate(1.5 -0.5)"/><path class="cls-16" d="M2542.61,432.88c2.21,1.22,4.47,2.29,6.72,3.41s4.47,2.31,6.76,3.33c.34.15.62-.32.3-.5-2.21-1.18-4.52-2.21-6.79-3.31s-4.52-2.21-6.83-3.23c-.2-.08-.37.19-.17.3Z" transform="translate(1.5 -0.5)"/><path class="cls-16" d="M2551.21,440.91c.45,0,.9.07,1.34.08h4v-.52a18,18,0,0,0-6.59,1.79.27.27,0,0,0-.08.38.26.26,0,0,0,.15.12,19,19,0,0,0,5,.3l-.07-.52c-1.58.32-3.17.66-4.72,1.06a.25.25,0,0,0-.18.29.25.25,0,0,0,.24.18,17,17,0,0,0,2.45-.12.14.14,0,0,0,.14-.14.15.15,0,0,0-.14-.15c-.8-.08-1.61-.05-2.45-.07l.07.47c1.58-.28,3.17-.61,4.72-1,.28-.07.24-.54-.06-.51a16.37,16.37,0,0,1-4.89-.3l.07.49a23.56,23.56,0,0,1,6.37-1.76c.3,0,.22-.52-.06-.5-.9,0-1.79,0-2.69,0h-1.27c-.47,0-.94.09-1.41.1a.13.13,0,0,0-.1.16.13.13,0,0,0,.1.1Z" transform="translate(1.5 -0.5)"/><path class="cls-16" d="M2530.76,561.56a55.61,55.61,0,0,0,12.95-.86,66.69,66.69,0,0,0,12.75-3.43c.37-.14.22-.75-.17-.61a78.83,78.83,0,0,1-12.45,3.42,100.55,100.55,0,0,1-13.08,1.27.11.11,0,0,0-.07.13.1.1,0,0,0,.07.07Z" transform="translate(1.5 -0.5)"/><path class="cls-16" d="M2552.55,557a4.53,4.53,0,0,0,2.29,1.54,8,8,0,0,0,2.93.55.3.3,0,0,0,.28-.31.33.33,0,0,0-.14-.24,42.58,42.58,0,0,0-5.3-3.23l-.23.55c2.65.56,5.28,1.16,7.94,1.75a.28.28,0,0,0,.21-.51c-2.34-1.38-4.69-2.77-7-4.12l-.28.48c2.21,1,4.37,2.1,6.6,3,.3.13.57-.3.26-.45-2.17-1.08-4.4-2.06-6.58-3.1a.28.28,0,1,0-.28.48h0c2.34,1.39,4.69,2.75,7,4.13l.22-.52c-2.63-.61-5.27-1.16-7.91-1.79-.31-.07-.54.39-.23.55a57.35,57.35,0,0,1,5.31,3.23l.15-.56a7.45,7.45,0,0,1-2.72-.46,8.35,8.35,0,0,1-1.3-.56,6.42,6.42,0,0,0-1.12-.61.1.1,0,0,0-.13.08.06.06,0,0,0,0,.07Z" transform="translate(1.5 -0.5)"/><path class="cls-11" d="M2615.36,644.72c-.11-1.53.61-283.3.61-283.3l3.57.08L2622,645.39S2615.73,650.33,2615.36,644.72Z" transform="translate(1.5 -0.5)"/><path class="cls-10" d="M2618.88,412.5a64,64,0,0,1-11.06.75,4.67,4.67,0,0,1-2-.36,1.63,1.63,0,0,1-.93-1.68,7.19,7.19,0,0,1,4.28-.92,27,27,0,0,1-10.27-3.29,11.38,11.38,0,0,1,4.94-.67,13.77,13.77,0,0,1-9.19-7,8.68,8.68,0,0,1,6.84,1.14,5.24,5.24,0,0,1-1.23-4.19,1.56,1.56,0,0,1,.5-1,1.7,1.7,0,0,1,1.15-.2,15.11,15.11,0,0,1,9.73,4.53c.69-.5-.23-1.91.5-2.33.44-.27,1,.2,1.22.61a25.27,25.27,0,0,1,3.44,7.2,6,6,0,0,1,1.13-3.59,21,21,0,0,1,1.86,11.05" transform="translate(1.5 -0.5)"/><path class="cls-10" d="M2673.8,524.11s-.09-.09-.13-.13l-.18-.2h0a22.46,22.46,0,0,0-4.69-2.72,17.69,17.69,0,0,0-12.77,0c.88-.87-.09-2.52-1.32-2.69a5.13,5.13,0,0,0-3.4,1.29l-3.26,2.26c-.83.58-1.93,1.16-2.78.61-.61-.42-.79-1.29-1.33-1.84-1-1-2.77-.25-3.84.71a12.46,12.46,0,0,0-3.51,12.62l.16-.06-.21.81a32.87,32.87,0,0,0,13.36,5.32c1.93.31,4.59-.08,4.83-2s-1.93-2.9-3.66-3.41a29.27,29.27,0,0,0,9-.22,3.56,3.56,0,0,0,1.47-.52,1.9,1.9,0,0,0,.41-2.53,1.82,1.82,0,0,0-1-.67c3.73-.42,7.43-1,11.1-1.75a4.33,4.33,0,0,0,2-.76C2675.08,527.26,2674.82,525.3,2673.8,524.11Z" transform="translate(1.5 -0.5)"/><path class="cls-10" d="M2636.53,395.44a5.51,5.51,0,0,1,2.81-2.87c1.31-.44,3.06.53,2.89,1.9a14.35,14.35,0,0,1,14.37-5c.42.1.91.3,1,.72a1.18,1.18,0,0,1-.35.87l-2.36,3,16.37.15c-2,4.65-7.53,6.41-12.41,7.65l4.59.46a20.06,20.06,0,0,1-5.81,3.47,7.77,7.77,0,0,1-6.55-.46c-.77-.48-1.93-1.07-2.4-.3a3.77,3.77,0,0,1-.2,5.05,6.05,6.05,0,0,1-5.14,1.64A18.29,18.29,0,0,1,2638,410l-4.78-2-.33-2.11A33.29,33.29,0,0,1,2636.53,395.44Z" transform="translate(1.5 -0.5)"/><path class="cls-10" d="M2631.08,386.81a43.21,43.21,0,0,0,10.16-5.33c.67-.48,1.4-1.37.89-2a1.53,1.53,0,0,0-1-.44l-2.77-.46,6.27-5.59c.56-.5,1.16-1.34.67-1.91a1.41,1.41,0,0,0-.91-.38,18.1,18.1,0,0,0-13.8,3.66,10,10,0,0,0,.76-3.66,7.71,7.71,0,0,0-6.28,3.05,18,18,0,0,0-2.95,6,1.65,1.65,0,0,0-1.8-1.46l-.27.06c-1.12.4-1.65,1.69-1.9,2.85a15.06,15.06,0,0,0,.61,8.33c.81,2.15,2.13,4.23,2,6.53l1.63,4.93a3.58,3.58,0,0,1,.44-1.63,8.48,8.48,0,0,1,2.44-2.48l6.43-5a3.48,3.48,0,0,0,1.27-1.42C2633.47,389.09,2632.21,387.75,2631.08,386.81Z" transform="translate(1.5 -0.5)"/><path class="cls-15" d="M2622.37,401a2.49,2.49,0,0,0,.56,1.66Z" transform="translate(1.5 -0.5)"/><path class="cls-6" d="M2645,473.24c1-2.44,5.21,1,6.92,3.06a23.74,23.74,0,0,1,3.67,6.95c1.3,3.33,2.62,7,1.69,10.38s-5,5.89-8.18,4.2C2644.36,495.34,2638.18,489.8,2645,473.24Z" transform="translate(1.5 -0.5)"/><path class="cls-7" d="M2640.23,526.68c-.44,3.23-2.81,6.42-6.06,6.72a7.21,7.21,0,0,1-6.22-3.14,16.77,16.77,0,0,1-2.63-6.72,44.23,44.23,0,0,1-.3-16.3,7.29,7.29,0,0,1,1.45-3.66,3.14,3.14,0,0,1,3.58-.61c2.13.9,1.52-.26,4.06.5S2642.57,514.23,2640.23,526.68Z" transform="translate(1.5 -0.5)"/><path class="cls-6" d="M2626.8,506.85a98.8,98.8,0,0,1-3.19,12.45c-1.22,4.11-3.31,8.22-6.92,10.52s-9,2.16-11.66-1.22a9.13,9.13,0,0,1-1.27-7.72,23,23,0,0,1,3.58-7.22,43.63,43.63,0,0,1,8.12-8.62c2.59-2.23,6.24-3.94,9.31-2.65S2626.91,506.21,2626.8,506.85Z" transform="translate(1.5 -0.5)"/><path class="cls-9" d="M2606,513.72c3.13-.36,5.14-3.45,5.61-6.57a19.62,19.62,0,0,0-1.83-11.51c-1.19-2.39-3.13-4.68-5.77-5.05s-5.26,1.43-6.66,3.74-1.68,5.07-2.24,7.71C2593.43,509.89,2597.71,514.68,2606,513.72Z" transform="translate(1.5 -0.5)"/><path class="cls-6" d="M2626.45,495c1.23-1.74.39-4.12-.61-6-2.06-3.94-4.88-8.42-9.34-8.63a3,3,0,0,0-2.26.67,3.6,3.6,0,0,0-.77,2.71c.16,5.17,2.39,11,7.05,13.24C2624,498.68,2625.35,496.59,2626.45,495Z" transform="translate(1.5 -0.5)"/><path class="cls-8" d="M2624,500.15l-.83.61-.41.32a1.58,1.58,0,0,0-.37.36.11.11,0,0,0,0,.15h.07a1.7,1.7,0,0,0,.44-.24l.43-.32c.27-.21.53-.43.79-.61s0-.32-.17-.23Z" transform="translate(1.5 -0.5)"/><path class="cls-8" d="M2633.17,646.72a154.84,154.84,0,0,0-.66-24.83c-.71-8.2-2-16.28-3.05-24.43a133.35,133.35,0,0,1-1-24.54c.44-8.29,1.22-16.55,1.38-24.85.28-16.58-.65-33.21-1.15-49.78s-.76-33-1.73-49.53a175.07,175.07,0,0,0-2.71-23.94,54.79,54.79,0,0,1-1.58-12c.07-3.74.78-7.53.34-11.26a16.36,16.36,0,0,0-1.22-4.61c-.18-.41-.88-.12-.73.31,1.29,3.56,1,7.4.73,11.11a45.65,45.65,0,0,0,.25,11.08c.66,4.06,1.59,8.05,2.13,12.12s.94,8.19,1.23,12.3c1.18,16.27,1.27,32.65,1.83,49,.54,16.59,1.38,33.2,1.45,49.8,0,8.24-.47,16.42-1,24.64a141.35,141.35,0,0,0,0,24.43c.84,8.16,2.35,16.18,3.28,24.29s1.4,16.35,1.63,24.56c0,2.06.14,4.1.26,6.16a.18.18,0,0,0,.18.17.17.17,0,0,0,.17-.17Z" transform="translate(1.5 -0.5)"/><path class="cls-8" d="M2625,458.29c.58-1.78-1.22-3.36-2.92-3.35-2.21,0-3.79,2.1-4.89,3.75a24.29,24.29,0,0,0-3.34,7.21,20.52,20.52,0,0,0-.28,8.11,37,37,0,0,0,1.07,4.8,21.79,21.79,0,0,0,1.66,4.71c.1.18.33.05.3-.13a23.75,23.75,0,0,0-1-3.49c-.36-1.16-.69-2.33-.95-3.51a24.82,24.82,0,0,1-.71-7.33,19,19,0,0,1,1.91-6.86,18.37,18.37,0,0,1,3.53-5.38,3.63,3.63,0,0,1,3.29-1.22c1.24.3,2.38,1.33,2,2.65a.13.13,0,0,0,.09.16.14.14,0,0,0,.16-.1h0Z" transform="translate(1.5 -0.5)"/><path class="cls-8" d="M2612,469.48a24.6,24.6,0,0,0-3.46,6.37A22.31,22.31,0,0,0,2607,483c0,.22.35.27.38,0a35.68,35.68,0,0,1,1.54-6.92,30.39,30.39,0,0,1,3.31-6.47c.1-.14-.12-.26-.23-.13Z" transform="translate(1.5 -0.5)"/><path class="cls-8" d="M2610.57,471.36a20.89,20.89,0,0,0-8.85,20.37c0,.25.46.19.44-.06a21.37,21.37,0,0,1,8.61-20c.19-.14,0-.46-.2-.33Z" transform="translate(1.5 -0.5)"/><path class="cls-8" d="M2623.74,502a4.36,4.36,0,0,1,.84-3.47,5,5,0,0,1,1.34-1.22,4.57,4.57,0,0,1,.81-.37,3.9,3.9,0,0,1,.46-.12,1.16,1.16,0,0,0,.45-.12c.11-.09.16-.3,0-.37a1.5,1.5,0,0,0-1,.09,4.62,4.62,0,0,0-.94.41,5.17,5.17,0,0,0-1.54,1.37,4.86,4.86,0,0,0-.93,3.91c.06.32.55.19.49-.13Z" transform="translate(1.5 -0.5)"/><path class="cls-8" d="M2627.84,470.14c.61-3.89,4.48-7.16,8.49-6.37a7.17,7.17,0,0,1,4.58,3.27,8.13,8.13,0,0,1,1.06,5.41.2.2,0,0,0,.39.05c1.07-3.05-.94-6.68-3.51-8.3a7.34,7.34,0,0,0-8.95,1.13,7.17,7.17,0,0,0-2.31,4.78.13.13,0,0,0,.25,0Z" transform="translate(1.5 -0.5)"/><path class="cls-7" d="M2645.12,472.8a2.43,2.43,0,0,0-3.18-.46,7,7,0,0,0-2.27,2.66c-2.25,3.75-4.54,7.63-5.09,12s1.09,9.27,5,11.22a5.25,5.25,0,0,0,3.11.61c2.26-.34,3.74-2.54,4.58-4.68a21.35,21.35,0,0,0-3.33-20.92" transform="translate(1.5 -0.5)"/><path class="cls-9" d="M2656.13,487.85c3.39,1.53,8.35,1,10.12-2.27s-1.1-7.19-4.1-9.45a39.83,39.83,0,0,0-12.61-6.35c-1.38-.41-3.17-.72-4,.43C2642,474.85,2646.18,483.36,2656.13,487.85Z" transform="translate(1.5 -0.5)"/><path class="cls-6" d="M2615.24,435.46c1-2,3-3.66,5.14-3.58s4.12,2.08,5.1,4.21c2,4.28,1.61,17.06-1.8,19s-7.15,1.87-10.62-1.71C2608.74,449,2614.24,437.47,2615.24,435.46Z" transform="translate(1.5 -0.5)"/><path class="cls-6" d="M2611.79,437.61c.17-1.88.15-3.91-1.54-4.75a5.66,5.66,0,0,0-5.38.61,16.73,16.73,0,0,0-3.92,4c-1.92,2.49-3.88,5.08-4.62,8.13s.08,6.76,2.78,8.36C2604,456.94,2610.19,455.63,2611.79,437.61Z" transform="translate(1.5 -0.5)"/><path class="cls-8" d="M2617.84,419.36a45.92,45.92,0,0,0-3.33,9.17c-.39,1.59-.71,3.2-.94,4.82a19.41,19.41,0,0,0-.39,4.82c0,.17.28.23.31,0,.33-1.53.3-3.18.52-4.74s.53-3.14.9-4.69a57.08,57.08,0,0,1,3.15-9.26c.07-.15-.15-.28-.22-.13Z" transform="translate(1.5 -0.5)"/><path class="cls-8" d="M2627.76,556.26a32.78,32.78,0,0,1,5.61-17.17,28.38,28.38,0,0,1,14.5-10.86,32,32,0,0,1,10.14-1.41c.19,0,.18-.25,0-.28-6.1-.75-12.58,1.35-17.62,4.82a29.54,29.54,0,0,0-11,14.44,30.09,30.09,0,0,0-1.76,10.46.07.07,0,0,0,.06.07.07.07,0,0,0,.07-.07Z" transform="translate(1.5 -0.5)"/><path class="cls-10" d="M2579.74,548.65l.12-.14a1.84,1.84,0,0,1,.17-.22h0a22.31,22.31,0,0,1,4.46-3.08,17.63,17.63,0,0,1,12.73-1c-.95-.8-.1-2.53,1.11-2.79a5.07,5.07,0,0,1,3.48,1l3.43,2c.88.51,2,1,2.82.39.61-.46.69-1.35,1.22-1.91,1-1.07,2.75-.47,3.88.39a12.5,12.5,0,0,1,4.5,12.32l-.17,0,.28.79a32.79,32.79,0,0,1-12.9,6.36c-1.9.46-4.58.29-5-1.63s1.7-3,3.41-3.66a29.24,29.24,0,0,1-9,.48,3.36,3.36,0,0,1-1.49-.45,1.9,1.9,0,0,1-.61-2.49,1.79,1.79,0,0,1,1-.75c-3.75-.12-7.49-.39-11.2-.86a4.45,4.45,0,0,1-2-.61C2578.71,551.89,2578.81,549.91,2579.74,548.65Z" transform="translate(1.5 -0.5)"/><path class="cls-8" d="M2628.32,577c-1-12.64-9.84-23.82-22.29-26.87a23.77,23.77,0,0,0-10.38-.36.14.14,0,0,0,0,.27A28.71,28.71,0,0,1,2625.37,567a34.18,34.18,0,0,1,2.81,10C2628.18,577.12,2628.33,577.12,2628.32,577Z" transform="translate(1.5 -0.5)"/><path class="cls-8" d="M2622.94,421.93a25.17,25.17,0,0,1,8.31-13.89c4.59-4.07,10.25-6.62,16.08-8.35,3.4-1,6.9-1.55,10.32-2.49.19-.06.16-.4-.06-.38a59.63,59.63,0,0,0-9.5,2.07,54.31,54.31,0,0,0-9.06,3.4,31.88,31.88,0,0,0-12.94,11,22.21,22.21,0,0,0-3.35,8.55c0,.13.17.18.2.06Z" transform="translate(1.5 -0.5)"/><path class="cls-8" d="M2622.3,400.4a22.86,22.86,0,0,1,1.65-13.72,24.67,24.67,0,0,1,9-10.23.12.12,0,0,0,.05-.16.13.13,0,0,0-.16,0,19.47,19.47,0,0,0-7.87,7.53,23.4,23.4,0,0,0-3.37,10.39,19.69,19.69,0,0,0,.55,6.26.06.06,0,0,0,.09,0,.08.08,0,0,0,.05-.07Z" transform="translate(1.5 -0.5)"/><path class="cls-7" d="M2617.06,454.08c-.72,3.18-2.72,6.51-5.93,7.09-3.43.61-6.67-2.45-7.47-5.84s.21-6.94,1.34-10.23a14.45,14.45,0,0,1,2.55-5,5.36,5.36,0,0,1,5-1.94c2.78.65,3.73,4,4.74,6.64C2618,446.45,2617.63,451.55,2617.06,454.08Z" transform="translate(1.5 -0.5)"/><path class="cls-7" d="M2618.75,501.46a7.23,7.23,0,0,1-3.67,2c-3.59.61-7.29-1.44-9.29-4.48a15.09,15.09,0,0,1-1.91-10.48c.41-2.7,1.83-5.75,4.55-6.15s4.93,2.07,6.45,4.36c1.84,2.72,3.3,5.62,4.92,8.44S2620.22,500.07,2618.75,501.46Z" transform="translate(1.5 -0.5)"/><path class="cls-10" d="M2625.77,502.45s-2.76-2-4.8-1.07-3.43,2.17-4.58,2-.51.56,1.17.78,4.43-1.06,4.43-1.06l-1.61,7.08,3.95-5.75s-.4,4.27,2.23,5.22,2.86.22,2.86.22a3.66,3.66,0,0,1-2.62-3C2626.45,504.4,2628.33,504.58,2625.77,502.45Z" transform="translate(1.5 -0.5)"/><path class="cls-10" d="M2644.68,469.46s.83-1.83,3.57-1.22a4.78,4.78,0,0,0,4.21-.74s1.74,2.41-.65,2.91-4.41.89-4.41.89l6.24,4.21-6.11-.61a8.24,8.24,0,0,1,2.67,4.34c.47,2.56-.91,2.34-.91,2.34s-1.23-3.57-2.84-4.37,0,4.44,0,4.44a39.3,39.3,0,0,0-2.62-5.76C2642.16,473,2641.86,470.43,2644.68,469.46Z" transform="translate(1.5 -0.5)"/><path class="cls-10" d="M2614.58,438.38c-1.42-.72-4.6-2.53-7.66-.33s-4.1,2.9-4.1,2.9l6.23-1-.85,7.25,4.13-5.53s1.37-.37,2.32,2.35a6.61,6.61,0,0,0,3.44,4c.61.29-1.65-1.26-1.66-4S2617.44,439.81,2614.58,438.38Z" transform="translate(1.5 -0.5)"/><path class="cls-8" d="M2631.64,445.13c.2-1.89.13-4.19-1-5.81a3.91,3.91,0,0,0-4.22-1.72l.2.47a7.32,7.32,0,0,1,9.87,3.27c.17.34.66,0,.51-.29a7.83,7.83,0,0,0-10.64-3.43.25.25,0,0,0-.11.35.26.26,0,0,0,.31.12,3.52,3.52,0,0,1,3.9,1.83c.91,1.59.8,3.45,1,5.2a.11.11,0,0,0,.11.12.12.12,0,0,0,.12-.12h0Z" transform="translate(1.5 -0.5)"/><path class="cls-6" d="M2655.28,460.55c.49,3.22-.89,7-3.91,8.17a7.25,7.25,0,0,1-6.86-1.25,16.29,16.29,0,0,1-4.42-5.71,44.19,44.19,0,0,1-4.89-15.56,7.23,7.23,0,0,1,.35-3.92,3.15,3.15,0,0,1,3.25-1.62c2.3.27,1.38-.68,4-.66S2654,448,2655.28,460.55Z" transform="translate(1.5 -0.5)"/><path class="cls-7" d="M2646,468.08c-.4,3.24-2.73,6.46-6,6.82a7.26,7.26,0,0,1-6.27-3.06,16.43,16.43,0,0,1-2.71-6.71,44,44,0,0,1-.51-16.3,7.09,7.09,0,0,1,1.4-3.67,3.15,3.15,0,0,1,3.57-.68c2.13.88,1.51-.28,4.06.46S2648.15,455.61,2646,468.08Z" transform="translate(1.5 -0.5)"/><path class="cls-9" d="M2635.53,447.15a99.69,99.69,0,0,1-3.19,12.45c-1.23,4.11-3.31,8.21-6.92,10.54s-9,2.15-11.66-1.22a9.19,9.19,0,0,1-1.28-7.73,23.44,23.44,0,0,1,3.58-7.22,43.9,43.9,0,0,1,8.13-8.61c2.59-2.24,6.24-3.95,9.31-2.65S2635.62,446.51,2635.53,447.15Z" transform="translate(1.5 -0.5)"/><path class="cls-10" d="M2634.13,442.51c-1.27-.61-4.14-2.27-6.89-.29s-3.66,2.6-3.66,2.6l5.59-.87-.76,6.51,3.7-5s1.22-.33,2.09,2.12a5.93,5.93,0,0,0,3.09,3.58c.54.27-1.48-1.13-1.49-3.61S2636.7,443.81,2634.13,442.51Z" transform="translate(1.5 -0.5)"/><path class="cls-10" d="M2638.71,439.4s-4,.37-3.75,3.42-.11,6.14-1.18,6.92,2.95-1.42,3.11-3.82,1-2.92,1-2.92,4.32,1.12,5.93,4.34,3.43,2.57,3.43,2.57-1.91-5-4.3-6.65,2.77-1,5.37,1.17,4.43.42,4.43.42a7,7,0,0,1-5-3.29C2646,438.57,2641.4,436.35,2638.71,439.4Z" transform="translate(1.5 -0.5)"/><path class="cls-8" d="M2607.73,434.58c.82-1.83,1.38-3.83,2.2-5.69a22.93,22.93,0,0,1,3.17-5.38,13.65,13.65,0,0,1,4.41-3.58,10.32,10.32,0,0,1,5.83-1c.26,0,.33-.42.07-.47-3.88-.71-7.86,1.57-10.33,4.4a21.57,21.57,0,0,0-3.37,5.5,34.56,34.56,0,0,0-2.19,6.17c0,.11.15.2.19.09Z" transform="translate(1.5 -0.5)"/><path class="cls-8" d="M2620.82,418.59a17.42,17.42,0,0,0-.1,4v4.28c0,2.83.07,5.67.06,8.5a.26.26,0,1,0,.51,0h0c-.07-2.83-.1-5.67-.14-8.5,0-1.42,0-2.84-.07-4.28a16.9,16.9,0,0,0-.18-4,.06.06,0,0,0-.06-.06.06.06,0,0,0-.05.06Z" transform="translate(1.5 -0.5)"/><path class="cls-8" d="M2607,403.74a29.15,29.15,0,0,1,6.11,2.81,24.09,24.09,0,0,1,5,4.27,23.56,23.56,0,0,1,5.6,11.86c0,.23.44.18.4-.05a22.77,22.77,0,0,0-5.63-12c-2.89-3.28-7-6.24-11.4-7.06a.12.12,0,0,0-.14.09.11.11,0,0,0,.08.14h0Z" transform="translate(1.5 -0.5)"/><path class="cls-16" d="M2624.62,401.69a2.3,2.3,0,0,0-.69-.91c-.35-.34-.7-.66-1.06-1-.73-.61-1.47-1.22-2.23-1.83a41.87,41.87,0,0,0-4.92-3.2l-.28.47a84.58,84.58,0,0,1,9.65,5.43l.22-.52c-1.66-.66-3.29-1.39-4.89-2.17-.75-.37-1.5-.76-2.24-1.16l-1.11-.61c-.43-.25-.88-.41-1.31-.61a.17.17,0,0,0-.22.1.19.19,0,0,0,.05.19,11.47,11.47,0,0,0,1.19.82l1.1.62c.8.43,1.6.84,2.42,1.22q2.37,1.17,4.88,2.14c.31.12.48-.35.22-.52a82.18,82.18,0,0,0-9.66-5.4c-.31-.15-.61.3-.27.47a43.57,43.57,0,0,1,4.79,3.05q1.17.87,2.28,1.83l1,.9a2.89,2.89,0,0,0,1,.71s.08,0,.07-.07Z" transform="translate(1.5 -0.5)"/><path class="cls-16" d="M2614,592.42c.65.28,1.34.44,2,.65s1.34.42,2,.61l4.05,1.16.09-.64c-2.18.08-4.37.19-6.56.28a.32.32,0,0,0-.31.3.3.3,0,0,0,.05.16,5.74,5.74,0,0,0,2.44,2.19l.1-.55a10.13,10.13,0,0,1-3.55.48.3.3,0,0,0-.34.27.31.31,0,0,0,.26.34,18.17,18.17,0,0,0,3,.71c.46.07.92.12,1.38.16l.77,0a6.22,6.22,0,0,0,.85-.07.23.23,0,0,0,0-.45c-.49,0-1-.08-1.47-.11s-1-.1-1.52-.17a18.69,18.69,0,0,1-2.84-.7l-.09.62a10.67,10.67,0,0,0,3.72-.51.32.32,0,0,0,.07-.56,5.14,5.14,0,0,1-2.22-2l-.27.46c2.19-.09,4.38-.15,6.56-.24a.34.34,0,0,0,.09-.65l-4.07-1.08c-.68-.18-1.37-.35-2.05-.51s-1.36-.37-2-.47a.15.15,0,1,0-.08.29h0Z" transform="translate(1.5 -0.5)"/><path class="cls-16" d="M2618.19,597.92a30.89,30.89,0,0,0,10.31-.91.36.36,0,0,0,.25-.44.35.35,0,0,0-.45-.25h0a40.49,40.49,0,0,1-10.11,1.22.18.18,0,0,0,0,.36Z" transform="translate(1.5 -0.5)"/><path class="cls-16" d="M2614.48,537.67a26.23,26.23,0,0,0,7.55,1.83c.33,0,.41-.44.16-.58a32.7,32.7,0,0,0-7.33-3.25l-.08.58c.92,0,1.83-.06,2.74-.08s1.84-.08,2.75,0a.31.31,0,0,0,0-.61c-.91.07-1.84,0-2.75.08s-1.83.06-2.74,0a.3.3,0,0,0-.07.58,36,36,0,0,1,7.2,3.22l.15-.58a37.55,37.55,0,0,1-7.4-1.59c-.21-.06-.37.27-.15.36Z" transform="translate(1.5 -0.5)"/><path class="cls-16" d="M2622.36,538.21a15.8,15.8,0,0,1,3.7-.2,11.45,11.45,0,0,1,1.83.3,8.08,8.08,0,0,0,1.68.41.2.2,0,0,0,.19-.2.18.18,0,0,0-.05-.12,3.77,3.77,0,0,0-1.67-.65,12.47,12.47,0,0,0-1.93-.28,10.24,10.24,0,0,0-3.85.45.16.16,0,0,0-.11.19.17.17,0,0,0,.19.1h0Z" transform="translate(1.5 -0.5)"/><g class="cls-17"><path class="cls-18" d="M2343.29,451a36.23,36.23,0,0,0,1.31,11.11,33.37,33.37,0,0,0,4.47,10.27.14.14,0,0,0,.2,0,.16.16,0,0,0,.05-.17c-.84-1.59-1.74-3.14-2.45-4.79A41.48,41.48,0,0,1,2345,462a44.4,44.4,0,0,1-1.45-11,.11.11,0,0,0-.13-.08.11.11,0,0,0-.08.08Z" transform="translate(1.5 -0.5)"/></g><g class="cls-17"><path class="cls-18" d="M2428,484.19a166,166,0,0,1-6.49-17.26,64.4,64.4,0,0,1-2-9.12c-.39-2.71-1-6.06.52-8.55.07-.11-.1-.24-.18-.14-1.22,1.55-1.29,3.52-1.14,5.43a55.2,55.2,0,0,0,1.09,7.46,88,88,0,0,0,4.63,14.53c1.05,2.6,2.17,5.17,3.29,7.75.06.14.31,0,.25-.11Z" transform="translate(1.5 -0.5)"/></g><g class="cls-17"><path class="cls-18" d="M2358.51,436c0,7.33,5.5,14.13,12.14,16.78,4.12,1.65,8.8,1.56,13.13.94a18.64,18.64,0,0,0,10.89-5.5,36.58,36.58,0,0,0,7.19-11.4c.11-.27-.28-.52-.4-.23-3.28,6.89-7.57,14.12-15.49,16.13a32.17,32.17,0,0,1-7.18.85,20.87,20.87,0,0,1-6.39-.69,19,19,0,0,1-8.86-5.71,20,20,0,0,1-4.8-11.19.13.13,0,0,0-.14-.09.12.12,0,0,0-.09.09Z" transform="translate(1.5 -0.5)"/></g><g class="cls-17"><path class="cls-18" d="M2374,453.8c.53,3.71,1.31,7.41,2,11.1s1.36,7.29,2,10.93c1.36,7.17,2.6,14.36,4.14,21.5.42,1.95.88,3.89,1.4,5.81a31.61,31.61,0,0,0,1.83,5.6c.08.17.33.05.29-.12-.39-1.75-1-3.46-1.5-5.18s-.86-3.4-1.22-5.11c-.77-3.49-1.41-7-2.07-10.53q-2.07-10.92-4.16-21.84c-.77-4.08-1.46-8.19-2.44-12.21,0-.19-.29-.1-.28.07Z" transform="translate(1.5 -0.5)"/></g><g class="cls-17"><path class="cls-18" d="M2463.33,485.79c.9.1-.3,1.41-.52,1.65s-.62.7-.91,1.07c-.52.64-1,1.3-1.5,2a35.76,35.76,0,0,0-2.77,4.7,31.12,31.12,0,0,0-3.18,10c0,.24.38.29.43.06a42.61,42.61,0,0,1,4.16-11.61,36.56,36.56,0,0,1,3.54-5.19c.45-.56,1.31-1.22,1.47-2a.65.65,0,0,0-.44-.81.54.54,0,0,0-.28,0,.06.06,0,0,0-.08,0,.06.06,0,0,0,0,.07,0,0,0,0,0,0,0Z" transform="translate(1.5 -0.5)"/></g><g class="cls-17"><path class="cls-18" d="M2313.55,491.21c-.61,1.16,1.22,2.07,1.94,2.62a40.12,40.12,0,0,1,7.28,7.16c1,1.32,1.87,2.78,2.9,4.09.09.13.25,0,.19-.15a20.08,20.08,0,0,0-2.48-3.83,41.06,41.06,0,0,0-2.78-3.25,36.33,36.33,0,0,0-3.27-3.06c-.54-.44-1.1-.88-1.66-1.29s-2.3-1.27-1.87-2.16c.08-.17-.16-.31-.25-.15Z" transform="translate(1.5 -0.5)"/></g><g class="cls-19"><path class="cls-14" d="M2455.1,595.41a3.88,3.88,0,0,1-3.28-1c-1.07-.78-2.06-1.68-3.08-2.53l-5.82-4.84-11.65-9.67a121.51,121.51,0,0,1-10.89-9.65c-3.18-3.36-6-7-9.07-10.5-10.62-12-23.29-23-38.48-28.74a63.79,63.79,0,0,0-6.46-2.06c-1.1-.29-2.2-.55-3.32-.78a16.32,16.32,0,0,0-3.48-.5,3.67,3.67,0,0,0-1,7.2c.3.08.41-.36.13-.47a1.84,1.84,0,0,0-2.2.94,2.91,2.91,0,0,0,.16,3.06c.72,1.27,1.79,2.27,2.4,3.62a45.09,45.09,0,0,1,1.75,5.14l3.3,10.42c1.07,3.36,2.21,6.72,3.06,10.12a39.26,39.26,0,0,1,1.22,10.73c-.07,3.62-.29,7.24-.35,10.87-.11,7.18.13,14.37.67,21.53a232.87,232.87,0,0,0,3.11,24.12c.06.37.61.21.57-.16a245.74,245.74,0,0,1-3.72-41.59q0-5.24.18-10.47a59.54,59.54,0,0,0-.12-10.17,53.19,53.19,0,0,0-2.3-9.39c-1.06-3.36-2.15-6.72-3.22-10l-1.76-5.49c-.56-1.77-1.06-3.58-1.75-5.3a25.46,25.46,0,0,0-2.44-3.87,2.77,2.77,0,0,1-.55-2.4c.26-.8,1-1.53,1.87-1.19l.13-.47a3.19,3.19,0,0,1-1.61-5.09c1.56-1.87,4.27-1,6.29-.57a63.45,63.45,0,0,1,11.1,3.46A83.86,83.86,0,0,1,2394.77,542a132.11,132.11,0,0,1,17,16.56c2.9,3.32,5.61,6.81,8.67,10a127.61,127.61,0,0,0,10.49,9.22l12.6,10.43,6.3,5.21c1.5,1.23,3.29,3,5.4,2.4a.19.19,0,0,0,.1-.25.2.2,0,0,0-.2-.12Z" transform="translate(1.5 -0.5)"/></g><path class="cls-4" d="M2486.32,649.38v.34h0l0-.05h0l.1-.06a.24.24,0,0,0-.18.29.25.25,0,0,0,.24.19.21.21,0,0,0,.17-.07.25.25,0,0,0,.08-.17.27.27,0,0,0-.19-.24l.11.06h0l0,.05h0v-.33a.18.18,0,0,0-.18-.18.17.17,0,0,0-.18.17h0Z" transform="translate(1.5 -0.5)"/><path class="cls-4" d="M2491.61,654.72a.23.23,0,1,0,0-.46h0a.23.23,0,1,0,0,.46Z" transform="translate(1.5 -0.5)"/><path class="cls-4" d="M2492.64,647.13h-.53a.32.32,0,0,0-.12.08.2.2,0,0,0,0,.27h0a.36.36,0,0,0,.12.08.24.24,0,0,0,.12,0h.41a.2.2,0,0,0,.14-.06.2.2,0,0,0,.06-.15.22.22,0,0,0-.2-.2Z" transform="translate(1.5 -0.5)"/><path class="cls-4" d="M2595.66,644.78V645a.54.54,0,0,0,0,.18v.06a.18.18,0,0,0,0,.09.3.3,0,0,0,.13.09h0l-.14-.1,0,.1a.17.17,0,0,0,.23.06.17.17,0,0,0,.06-.06l0-.1-.14.1h.06a.25.25,0,0,0,.13-.22.54.54,0,0,0,0-.18v-.17a.25.25,0,0,0-.25-.25.28.28,0,0,0-.25.25Z" transform="translate(1.5 -0.5)"/><path class="cls-4" d="M2601.53,640.94a.26.26,0,1,0,0-.51.26.26,0,0,0,0,.51Z" transform="translate(1.5 -0.5)"/><path class="cls-4" d="M2602.56,648.06a.21.21,0,0,0,.21-.22.21.21,0,0,0-.42,0A.21.21,0,0,0,2602.56,648.06Z" transform="translate(1.5 -0.5)"/><path class="cls-4" d="M2646,645h.18l.1-.05-.14.06h.45a.15.15,0,0,0,0-.22.12.12,0,0,0,0,0h-.45l.14,0-.1,0H2646a.21.21,0,0,0-.13,0,.16.16,0,0,0,0,.14.14.14,0,0,0,0,.13l0,0h.09Z" transform="translate(1.5 -0.5)"/><path class="cls-4" d="M2653.48,639.66v.51a.17.17,0,0,0,.05.12.15.15,0,0,0,.12.05.17.17,0,0,0,.17-.17v-.51a.2.2,0,0,0-.06-.14.18.18,0,0,0-.14-.06.2.2,0,0,0-.2.18v0Z" transform="translate(1.5 -0.5)"/><path class="cls-4" d="M2658.83,644.44a.18.18,0,0,0,.17-.18.18.18,0,0,0-.17-.17.18.18,0,0,0-.18.18A.18.18,0,0,0,2658.83,644.44Z" transform="translate(1.5 -0.5)"/><path class="cls-10" d="M2579.42,640.73l-5.5-15.74c-.43-1.22-.82-2.72,0-3.74,2.19.2,3.12,2.84,3.54,5l2.44,12.44a83.6,83.6,0,0,1,3.8-13.64c.71-1.91,1.87-4.1,3.91-4.27.95,2.44-.46,5.14-1.83,7.4l-6.14,10.21" transform="translate(1.5 -0.5)"/><path class="cls-10" d="M2501.15,649.6,2487.87,626c-1-1.71-1.87-4-.58-5.47a3.68,3.68,0,0,1,3.95-.61c3.44,1.17,5.5,4.6,7,7.94a52.14,52.14,0,0,1,4.26,21.51" transform="translate(1.5 -0.5)"/><path class="cls-10" d="M2504.29,648.87a61.8,61.8,0,0,1,6.72-27.45,6.6,6.6,0,0,1,2.16-2.77,2.48,2.48,0,0,1,3.21.35,2.71,2.71,0,0,1,.43,1.56,11.47,11.47,0,0,1-1.52,5.17l-10.9,23.12" transform="translate(1.5 -0.5)"/><path class="cls-10" d="M2656.09,644.54a21.71,21.71,0,0,1,12.14-21.89,10,10,0,0,1,5.84-1.07,5,5,0,0,1,4.16,3.83c-2.53,1-5,2.17-7.41,3.36a29.44,29.44,0,0,0-6.17,3.7c-3.06,2.58-4.86,6.27-6.6,9.86" transform="translate(1.5 -0.5)"/></g></g></svg>