<svg height ="30" xmlns="http://www.w3.org/2000/svg" viewBox="0 0 150 60"><defs><style>.cls-1{fill:#fff;}.cls-2{fill:#42318c;}</style></defs><title>Fichier 1</title><g id="Calque_2" data-name="Calque 2"><g id="card_libra" data-name="card libra"><g id="bg"><rect class="cls-1" width="100" height="60" rx="6"/></g><g id="layer1"><g id="g829"><path id="path815" class="cls-2" d="M28.83,37.34a13.64,13.64,0,0,0,1.65-2.28L27.7,33.69a8.41,8.41,0,0,1-1.46,1.8,4.51,4.51,0,0,1-2.44,1.23c-1.63.2-2.76-.29-4.41-1.34s-3.71-2.34-6.5-2A7.54,7.54,0,0,0,8.27,36a13.11,13.11,0,0,0-1.64,2.29l2.78,1.36a8.41,8.41,0,0,1,1.46-1.8,4.38,4.38,0,0,1,2.44-1.21,5.49,5.49,0,0,1,.7-.05A6.76,6.76,0,0,1,17.72,38c1.62,1,3.64,2.3,6.5,1.94A7.37,7.37,0,0,0,28.83,37.34Zm0-8.16a13.32,13.32,0,0,0,1.65-2.29L27.7,25.53a8.41,8.41,0,0,1-1.46,1.8,4.51,4.51,0,0,1-2.44,1.23c-1.63.2-2.76-.29-4.41-1.34s-3.71-2.34-6.5-2a7.54,7.54,0,0,0-4.62,2.6,12.75,12.75,0,0,0-1.64,2.29l2.78,1.36a8.41,8.41,0,0,1,1.46-1.8,4.5,4.5,0,0,1,2.44-1.22,5.48,5.48,0,0,1,.7,0,6.68,6.68,0,0,1,3.71,1.37c1.62,1,3.64,2.3,6.5,1.94a7.37,7.37,0,0,0,4.61-2.55Zm0-8.16a13.32,13.32,0,0,0,1.65-2.29L27.7,17.37a8.41,8.41,0,0,1-1.46,1.8A4.51,4.51,0,0,1,23.8,20.4c-1.63.2-2.76-.29-4.41-1.34s-3.71-2.34-6.5-2a7.51,7.51,0,0,0-4.62,2.6A13.26,13.26,0,0,0,6.63,22l2.78,1.36a8.41,8.41,0,0,1,1.46-1.8,4.5,4.5,0,0,1,2.44-1.22,5.48,5.48,0,0,1,.7,0,6.68,6.68,0,0,1,3.71,1.37c1.62,1,3.64,2.3,6.5,1.94A7.42,7.42,0,0,0,28.83,21Z"/><path id="path817" class="cls-2" d="M38.55,17.39V39.7H35.34V17.39Zm3.39,6.42V39.7h3.22V23.81Zm30.25,3.67a6.13,6.13,0,0,1,4.44-.88V23.83c-.36,0-.72-.06-1.08-.07-2.21,0-4,.67-4.8,1.83l-.39.54V23.79H67.14V39.7h3.2V34.17c0-1,0-1.86,0-2.87a4.34,4.34,0,0,1,1.85-3.82ZM93.37,39.7V23.79h-3v1.75l-.36-.3a7.57,7.57,0,0,0-5-1.79,7.76,7.76,0,0,0-4,1,8.31,8.31,0,0,0,4,15.59,7.52,7.52,0,0,0,5-1.79l.36-.32V39.7Zm-4.27-4a5.21,5.21,0,0,1-3.61,1.63H85.3a5.61,5.61,0,0,1-5.73-5.6,5.67,5.67,0,0,1,1.52-3.91,5.47,5.47,0,0,1,4-1.69h.22a5.41,5.41,0,0,1,5.24,5.4v.52a5.25,5.25,0,0,1-1.48,3.65ZM57,40.05a7.87,7.87,0,0,0,3.95-1,8.46,8.46,0,0,0,0-14.55,8.43,8.43,0,0,0-4-1,7.51,7.51,0,0,0-5,1.78l-.36.32V17.39h-3V39.7h3V38l.36.31A7.57,7.57,0,0,0,57,40.05ZM51.34,32v-.52a5.3,5.3,0,0,1,5.1-5.28h.19a5.6,5.6,0,0,1,5.72,5.6,5.67,5.67,0,0,1-1.52,3.91,5.43,5.43,0,0,1-4,1.69h-.23A5.41,5.41,0,0,1,51.34,32ZM45.16,17.39H41.94v3.17h3.22Z"/></g></g></g></g></svg>