<?xml version="1.0" encoding="utf-8"?>
<!-- Generator: Adobe Illustrator 23.0.6, SVG Export Plug-In . SVG Version: 6.00 Build 0)  -->
<svg version="1.1" id="Calque_1" height ="50" xmlns="http://www.w3.org/2000/svg" xmlns:xlink="http://www.w3.org/1999/xlink" x="0px" y="0px"
	 viewBox="0 0 50 50" style="enable-background:new 0 0 50 50;" xml:space="preserve">
<style type="text/css">
	.st0{fill:#4FD1B9;}
</style>
<g>
	<g>
		<g>
			<path class="st0" d="M45,11.1c-1.7,0-3,1.4-3,3s1.4,3,3,3c1.7,0,3-1.4,3-3C48,12.5,46.6,11.1,45,11.1z M45,15.7
				c-0.8,0-1.5-0.7-1.5-1.5c0-0.8,0.7-1.5,1.5-1.5c0.8,0,1.5,0.7,1.5,1.5C46.5,15,45.8,15.7,45,15.7z"/>
		</g>
	</g>
	<g>
		<g>
			<path class="st0" d="M5.3,36.3c-1.7,0-3,1.4-3,3s1.4,3,3,3c1.7,0,3-1.4,3-3S7,36.3,5.3,36.3z M5.3,40.9c-0.8,0-1.5-0.7-1.5-1.5
				c0-0.8,0.7-1.5,1.5-1.5c0.8,0,1.5,0.7,1.5,1.5C6.8,40.2,6.2,40.9,5.3,40.9z"/>
		</g>
	</g>
	<g>
		<g>
			<path class="st0" d="M43.5,12.1l-6.6-3.2c-0.4-0.2-0.8,0-1,0.4c-0.2,0.4,0,0.8,0.4,1l6.6,3.2c0.1,0.1,0.2,0.1,0.3,0.1
				c0.3,0,0.6-0.2,0.7-0.4C44,12.7,43.9,12.3,43.5,12.1z"/>
		</g>
	</g>
	<g>
		<g>
			<path class="st0" d="M36.6,41.6c-1.7,0-3,1.4-3,3s1.4,3,3,3s3-1.4,3-3C39.6,43,38.2,41.6,36.6,41.6z M36.6,46.2
				c-0.8,0-1.5-0.7-1.5-1.5c0-0.8,0.7-1.5,1.5-1.5s1.5,0.7,1.5,1.5C38.1,45.5,37.4,46.2,36.6,46.2z"/>
		</g>
	</g>
	<g>
		<g>
			<path class="st0" d="M35.1,42.6l-6.6-3.2c-0.4-0.2-0.8,0-1,0.4c-0.2,0.4,0,0.8,0.4,1l6.6,3.2c0.1,0.1,0.2,0.1,0.3,0.1
				c0.3,0,0.6-0.2,0.7-0.4C35.6,43.2,35.5,42.8,35.1,42.6z"/>
		</g>
	</g>
	<g>
		<g>
			<path class="st0" d="M25.1,22.6c-1.7,0-3,1.4-3,3c0,1.7,1.4,3,3,3c1.7,0,3-1.4,3-3S26.8,22.6,25.1,22.6z M25.1,27.2
				c-0.8,0-1.5-0.7-1.5-1.5c0-0.8,0.7-1.5,1.5-1.5c0.8,0,1.5,0.7,1.5,1.5S26,27.2,25.1,27.2z"/>
		</g>
	</g>
	<g>
		<g>
			<path class="st0" d="M23.8,23.6l-5.1-3.9c-0.3-0.3-0.8-0.2-1.1,0.1c-0.3,0.3-0.2,0.8,0.1,1.1l5.1,3.9c0.1,0.1,0.3,0.2,0.5,0.2
				c0.2,0,0.5-0.1,0.6-0.3C24.2,24.4,24.1,23.9,23.8,23.6z"/>
		</g>
	</g>
	<g>
		<g>
			<path class="st0" d="M38.9,21.8c-4.6,0-8.4,3.8-8.4,8.4s3.8,8.4,8.4,8.4s8.4-3.8,8.4-8.4S43.5,21.8,38.9,21.8z M38.9,37.1
				c-3.8,0-6.9-3.1-6.9-6.9s3.1-6.9,6.9-6.9s6.9,3.1,6.9,6.9S42.6,37.1,38.9,37.1z"/>
		</g>
	</g>
	<g>
		<g>
			<path class="st0" d="M38.9,24.9c-1.7,0-3,1.4-3,3c0,1.7,1.4,3,3,3c1.7,0,3-1.4,3-3S40.5,24.9,38.9,24.9z M38.9,29.4
				c-0.8,0-1.5-0.7-1.5-1.5c0-0.8,0.7-1.5,1.5-1.5c0.8,0,1.5,0.7,1.5,1.5C40.4,28.8,39.7,29.4,38.9,29.4z"/>
		</g>
	</g>
	<g>
		<g>
			<path class="st0" d="M41.1,32.5h-4.4c-1.3,0-2.4,1-2.4,2.3v2c0,0.3,0.1,0.5,0.4,0.7c1.3,0.7,2.7,1.1,4.2,1.1s2.9-0.4,4.2-1.1
				c0.2-0.1,0.4-0.4,0.4-0.7v-2C43.4,33.5,42.4,32.5,41.1,32.5z M41.9,36.3c-1.9,0.9-4.2,0.9-6.1,0v-1.6c0-0.4,0.4-0.8,0.8-0.8h4.4
				c0.5,0,0.8,0.3,0.8,0.8L41.9,36.3L41.9,36.3z"/>
		</g>
	</g>
	<g>
		<g>
			<path class="st0" d="M20.6,31c-4.6,0-8.4,3.8-8.4,8.4s3.8,8.4,8.4,8.4s8.4-3.8,8.4-8.4S25.2,31,20.6,31z M20.6,46.2
				c-3.8,0-6.9-3.1-6.9-6.9s3.1-6.9,6.9-6.9s6.9,3.1,6.9,6.9S24.3,46.2,20.6,46.2z"/>
		</g>
	</g>
	<g>
		<g>
			<path class="st0" d="M20.6,34c-1.7,0-3,1.4-3,3c0,1.7,1.4,3,3,3c1.7,0,3-1.4,3-3S22.2,34,20.6,34z M20.6,38.6
				c-0.8,0-1.5-0.7-1.5-1.5c0-0.8,0.7-1.5,1.5-1.5c0.8,0,1.5,0.7,1.5,1.5C22.1,37.9,21.4,38.6,20.6,38.6z"/>
		</g>
	</g>
	<g>
		<g>
			<path class="st0" d="M22.8,41.6h-4.4c-1.3,0-2.4,1-2.4,2.3v2c0,0.3,0.1,0.5,0.4,0.7c1.3,0.7,2.7,1.1,4.2,1.1s2.9-0.4,4.2-1.1
				c0.2-0.1,0.4-0.4,0.4-0.7v-2C25.1,42.7,24.1,41.6,22.8,41.6z M23.6,45.5c-1.9,0.9-4.2,0.9-6.1,0v-1.6c0-0.4,0.4-0.8,0.8-0.8h4.4
				c0.5,0,0.8,0.3,0.8,0.8L23.6,45.5L23.6,45.5z"/>
		</g>
	</g>
	<g>
		<g>
			<path class="st0" d="M10.6,11.9c-4.6,0-8.4,3.8-8.4,8.4s3.8,8.4,8.4,8.4s8.4-3.8,8.4-8.4C19,15.7,15.3,11.9,10.6,11.9z
				 M10.6,27.2c-3.8,0-6.9-3.1-6.9-6.9s3.1-6.9,6.9-6.9s6.9,3.1,6.9,6.9S14.4,27.2,10.6,27.2z"/>
		</g>
	</g>
	<g>
		<g>
			<path class="st0" d="M10.6,15c-1.7,0-3,1.4-3,3s1.4,3,3,3c1.7,0,3-1.4,3-3S12.3,15,10.6,15z M10.6,19.5c-0.8,0-1.5-0.7-1.5-1.5
				s0.7-1.5,1.5-1.5c0.8,0,1.5,0.7,1.5,1.5S11.5,19.5,10.6,19.5z"/>
		</g>
	</g>
	<g>
		<g>
			<path class="st0" d="M12.9,22.6H8.4c-1.3,0-2.4,1-2.4,2.3v2c0,0.3,0.1,0.5,0.4,0.7c1.3,0.7,2.7,1.1,4.2,1.1s2.9-0.4,4.2-1.1
				c0.2-0.1,0.4-0.4,0.4-0.7v-2C15.2,23.6,14.2,22.6,12.9,22.6z M13.7,26.4c-1.9,0.9-4.2,0.9-6.1,0v-1.6c0-0.4,0.4-0.8,0.8-0.8h4.4
				c0.5,0,0.8,0.3,0.8,0.8L13.7,26.4L13.7,26.4z"/>
		</g>
	</g>
	<g>
		<g>
			<path class="st0" d="M28.9,2c-4.6,0-8.4,3.8-8.4,8.4s3.8,8.4,8.4,8.4s8.4-3.8,8.4-8.4C37.3,5.8,33.6,2,28.9,2z M28.9,17.2
				c-3.8,0-6.9-3.1-6.9-6.9s3.1-6.9,6.9-6.9s6.9,3.1,6.9,6.9S32.7,17.2,28.9,17.2z"/>
		</g>
	</g>
	<g>
		<g>
			<path class="st0" d="M28.9,5c-1.7,0-3,1.4-3,3s1.4,3,3,3c1.7,0,3-1.4,3-3S30.6,5,28.9,5z M28.9,9.6c-0.8,0-1.5-0.7-1.5-1.5
				c0-0.8,0.7-1.5,1.5-1.5s1.5,0.7,1.5,1.5C30.5,8.9,29.8,9.6,28.9,9.6z"/>
		</g>
	</g>
	<g>
		<g>
			<path class="st0" d="M31.2,12.7h-4.4c-1.3,0-2.4,1-2.4,2.3v2c0,0.3,0.1,0.5,0.4,0.7c1.3,0.7,2.7,1.1,4.2,1.1
				c1.5,0,2.9-0.4,4.2-1.1c0.2-0.1,0.4-0.4,0.4-0.7v-2C33.5,13.7,32.5,12.7,31.2,12.7z M32,16.5c-1.9,0.9-4.2,0.9-6.1,0V15
				c0-0.4,0.4-0.8,0.8-0.8h4.4c0.5,0,0.8,0.3,0.8,0.8L32,16.5L32,16.5z"/>
		</g>
	</g>
	<g>
		<g>
			<path class="st0" d="M21.9,9.9c-0.3-0.3-0.8-0.4-1.1-0.1l-5.3,4.5c-0.3,0.3-0.4,0.8-0.1,1.1c0.2,0.2,0.4,0.3,0.6,0.3
				c0.2,0,0.4-0.1,0.5-0.2l5.3-4.5C22.1,10.7,22.2,10.2,21.9,9.9z"/>
		</g>
	</g>
	<g>
		<g>
			<path class="st0" d="M38.7,22.1L34.1,16c-0.3-0.3-0.7-0.4-1.1-0.2c-0.3,0.3-0.4,0.7-0.2,1.1l4.6,6.1c0.2,0.2,0.4,0.3,0.6,0.3
				c0.2,0,0.3,0,0.5-0.2C38.9,22.9,39,22.5,38.7,22.1z"/>
		</g>
	</g>
	<g>
		<g>
			<path class="st0" d="M32.4,32.7c-0.3-0.3-0.7-0.4-1.1-0.2l-4.3,3.2c-0.3,0.3-0.4,0.7-0.2,1.1c0.2,0.2,0.4,0.3,0.6,0.3
				c0.2,0,0.3-0.1,0.5-0.2l4.3-3.2C32.6,33.5,32.7,33.1,32.4,32.7z"/>
		</g>
	</g>
	<g>
		<g>
			<path class="st0" d="M12.9,38.6H7.6c-0.4,0-0.8,0.3-0.8,0.8s0.3,0.8,0.8,0.8h5.3c0.4,0,0.8-0.3,0.8-0.8S13.4,38.6,12.9,38.6z"/>
		</g>
	</g>
	<g>
		<g>
			<path class="st0" d="M10.6,2c-1.7,0-3,1.4-3,3c0,1.7,1.4,3,3,3c1.7,0,3-1.4,3-3C13.7,3.4,12.3,2,10.6,2z M10.6,6.6
				C9.8,6.6,9.1,5.9,9.1,5c0-0.8,0.7-1.5,1.5-1.5c0.8,0,1.5,0.7,1.5,1.5C12.2,5.9,11.5,6.6,10.6,6.6z"/>
		</g>
	</g>
	<g>
		<g>
			<path class="st0" d="M10.6,6.6c-0.4,0-0.8,0.3-0.8,0.8v5.3c0,0.4,0.3,0.8,0.8,0.8s0.8-0.3,0.8-0.8V7.3
				C11.4,6.9,11.1,6.6,10.6,6.6z"/>
		</g>
	</g>
</g>
</svg>
