<svg id="Calque_1" data-name="Calque 1" height ="50" xmlns="http://www.w3.org/2000/svg" viewBox="0 0 47.77 40.29"><defs><style>.cls-1{fill:#4fd1b9;}</style></defs><title>online-shop</title><path class="cls-1" d="M46.06,5H4.17A2.94,2.94,0,0,0,1.23,7.94V36.36a3,3,0,0,0,2.94,3H18.34l-.57,4.58H15.39a.7.7,0,0,0,0,1.4H34.84a.7.7,0,1,0,0-1.4H32.46l-.57-4.58H46.06a3,3,0,0,0,2.94-3V7.94A2.94,2.94,0,0,0,46.06,5ZM19.18,43.89l.57-4.58h2.58l.25,1a2.61,2.61,0,0,0,5.07,0l.26-1h2.57l.57,4.58Zm4.59-4.58h2.69L26.3,40a1.23,1.23,0,0,1-1.18.92A1.21,1.21,0,0,1,23.94,40Zm23.83-3h0a1.55,1.55,0,0,1-1.54,1.55H4.17a1.55,1.55,0,0,1-1.54-1.55V7.94A1.54,1.54,0,0,1,4.17,6.4H46.06A1.54,1.54,0,0,1,47.6,7.94V36.36Z" transform="translate(-1.23 -5)"/><path class="cls-1" d="M40.82,8H4.92a.7.7,0,0,0-.7.7V35.62a.71.71,0,0,0,.7.7h1.5a.7.7,0,0,0,0-1.4h-.8V9.39h35.2a.7.7,0,0,0,0-1.4Z" transform="translate(-1.23 -5)"/><path class="cls-1" d="M45.31,8h-1.5a.7.7,0,0,0,0,1.4h.8V34.92H9.41a.7.7,0,0,0,0,1.4h35.9a.7.7,0,0,0,.7-.7V8.69A.7.7,0,0,0,45.31,8Z" transform="translate(-1.23 -5)"/><path class="cls-1" d="M34.64,15.74a.69.69,0,0,0-.52-.27l-16.45-.75h0a1.46,1.46,0,0,0-.58-.78L15,12.6a.7.7,0,0,0-1,.19.71.71,0,0,0,.2,1l2,1.34s0,0,0,0l2.57,9a2.13,2.13,0,0,0,.38.75l-.94,1.88a1.45,1.45,0,0,0,.06,1.41,1.35,1.35,0,0,0,.36.39,2.27,2.27,0,0,0-.29,1.09,2.2,2.2,0,1,0,4.39,0,2.06,2.06,0,0,0-.15-.79h6.38a2.26,2.26,0,0,0-.15.79,2.2,2.2,0,1,0,4.39,0,2.17,2.17,0,0,0-.23-1,.65.65,0,0,0,.23-.51.7.7,0,0,0-.7-.7h-13s0,0,0,0,0,0,0,0l.87-1.73a2.42,2.42,0,0,0,.54.07l.27,0,9.83-1.16a2.92,2.92,0,0,0,2.54-2.34l1.18-5.88A.69.69,0,0,0,34.64,15.74ZM31.1,28.84a.79.79,0,0,1,.79.79.79.79,0,0,1-.79.8.8.8,0,0,1-.8-.8A.79.79,0,0,1,31.1,28.84Zm-10.47,0a.79.79,0,0,1,.79.79.79.79,0,0,1-.79.8.8.8,0,0,1-.8-.8A.79.79,0,0,1,20.63,28.84Zm-1.72-9.63L18,16.14l2.79.13.49,2.94Zm2.15,5.09a.79.79,0,0,1-.86-.57l-.89-3.12h2.24l.59,3.56Zm4.1-.48L23.53,24,23,20.61h2.19Zm0-4.61H22.74l-.48-2.88,2.9.14Zm3.55,4.19-2.15.25v-3H29Zm.38-4.19H26.56V16.53l2.76.12Zm3.14,2.7a1.53,1.53,0,0,1-1.34,1.23l-.76.09.24-2.62h2.12Zm.54-2.7H30.49l.23-2.49,2.52.11Z" transform="translate(-1.23 -5)"/></svg>