<svg id="Calque_1" data-name="Calque 1" height ="50" xmlns="http://www.w3.org/2000/svg" viewBox="0 0 41.33 48.58"><defs><style>.cls-1{fill:#4fd1b9;}</style></defs><title>sms</title><path class="cls-1" d="M25.79,23.62c-.06-.05-.09-.12-.15-.18V41.38A.64.64,0,0,1,25,42H8.77a.65.65,0,0,1-.65-.64V13.31a.65.65,0,0,1,.65-.64H19.28V9.38H7.76a3.09,3.09,0,0,0-3.09,3.09V45.91A3.09,3.09,0,0,0,7.76,49H26a3.09,3.09,0,0,0,3.09-3.09V24.33a3.59,3.59,0,0,1-3.31-.71ZM16.88,47.25a2,2,0,1,1,1.95-2A1.95,1.95,0,0,1,16.88,47.25Z" transform="translate(-4.67 -0.42)"/><path class="cls-1" d="M43.14.42H25.43a2.86,2.86,0,0,0-2.86,2.86v9.85A2.86,2.86,0,0,0,25.43,16h4.16l-1.77,4.76a.32.32,0,0,0,.09.36.33.33,0,0,0,.21.07.32.32,0,0,0,.16,0L37.38,16h5.76A2.86,2.86,0,0,0,46,13.13V3.28A2.86,2.86,0,0,0,43.14.42Z" transform="translate(-4.67 -0.42)"/></svg>